  0
SECTION
  2
HEADER
  9
$ACADVER
  1
AC1024
  9
$ACADMAINTVER
 70
6
  9
$DWGCODEPAGE
  3
ANSI_1252
  9
$LASTSAVEDBY
  1
ezdxf
  9
$INSBASE
 10
0.0
 20
0.0
 30
0.0
  9
$EXTMIN
 10
1e+20
 20
1e+20
 30
1e+20
  9
$EXTMAX
 10
-1e+20
 20
-1e+20
 30
-1e+20
  9
$LIMMIN
 10
0.0
 20
0.0
  9
$LIMMAX
 10
420.0
 20
297.0
  9
$ORTHOMODE
 70
0
  9
$REGENMODE
 70
1
  9
$FILLMODE
 70
1
  9
$QTEXTMODE
 70
0
  9
$MIRRTEXT
 70
1
  9
$LTSCALE
 40
1.0
  9
$ATTMODE
 70
1
  9
$TEXTSIZE
 40
2.5
  9
$TRACEWID
 40
1.0
  9
$TEXTSTYLE
  7
Standard
  9
$CLAYER
  8
0
  9
$CELTYPE
  6
ByLayer
  9
$CECOLOR
 62
256
  9
$CELTSCALE
 40
1.0
  9
$DISPSILH
 70
0
  9
$DIMSCALE
 40
1.0
  9
$DIMASZ
 40
2.5
  9
$DIMEXO
 40
0.625
  9
$DIMDLI
 40
3.75
  9
$DIMRND
 40
0.0
  9
$DIMDLE
 40
0.0
  9
$DIMEXE
 40
1.25
  9
$DIMTP
 40
0.0
  9
$DIMTM
 40
0.0
  9
$DIMTXT
 40
2.5
  9
$DIMCEN
 40
2.5
  9
$DIMTSZ
 40
0.0
  9
$DIMTOL
 70
0
  9
$DIMLIM
 70
0
  9
$DIMTIH
 70
0
  9
$DIMTOH
 70
0
  9
$DIMSE1
 70
0
  9
$DIMSE2
 70
0
  9
$DIMTAD
 70
1
  9
$DIMZIN
 70
8
  9
$DIMBLK
  1

  9
$DIMASO
 70
1
  9
$DIMSHO
 70
1
  9
$DIMPOST
  1

  9
$DIMAPOST
  1

  9
$DIMALT
 70
0
  9
$DIMALTD
 70
3
  9
$DIMALTF
 40
0.03937007874
  9
$DIMLFAC
 40
1.0
  9
$DIMTOFL
 70
1
  9
$DIMTVP
 40
0.0
  9
$DIMTIX
 70
0
  9
$DIMSOXD
 70
0
  9
$DIMSAH
 70
0
  9
$DIMBLK1
  1

  9
$DIMBLK2
  1

  9
$DIMSTYLE
  2
ISO-25
  9
$DIMCLRD
 70
0
  9
$DIMCLRE
 70
0
  9
$DIMCLRT
 70
0
  9
$DIMTFAC
 40
1.0
  9
$DIMGAP
 40
0.625
  9
$DIMJUST
 70
0
  9
$DIMSD1
 70
0
  9
$DIMSD2
 70
0
  9
$DIMTOLJ
 70
0
  9
$DIMTZIN
 70
8
  9
$DIMALTZ
 70
0
  9
$DIMALTTZ
 70
0
  9
$DIMUPT
 70
0
  9
$DIMDEC
 70
2
  9
$DIMTDEC
 70
2
  9
$DIMALTU
 70
2
  9
$DIMALTTD
 70
3
  9
$DIMTXSTY
  7
Standard
  9
$DIMAUNIT
 70
0
  9
$DIMADEC
 70
0
  9
$DIMALTRND
 40
0.0
  9
$DIMAZIN
 70
0
  9
$DIMDSEP
 70
44
  9
$DIMATFIT
 70
3
  9
$DIMFRAC
 70
0
  9
$DIMLDRBLK
  1

  9
$DIMLUNIT
 70
2
  9
$DIMLWD
 70
-2
  9
$DIMLWE
 70
-2
  9
$DIMTMOVE
 70
0
  9
$DIMFXL
 40
1.0
  9
$DIMFXLON
 70
0
  9
$DIMJOGANG
 40
0.785398163397
  9
$DIMTFILL
 70
0
  9
$DIMTFILLCLR
 70
0
  9
$DIMARCSYM
 70
0
  9
$DIMLTYPE
  6

  9
$DIMLTEX1
  6

  9
$DIMLTEX2
  6

  9
$DIMTXTDIRECTION
 70
0
  9
$LUNITS
 70
2
  9
$LUPREC
 70
4
  9
$SKETCHINC
 40
1.0
  9
$FILLETRAD
 40
10.0
  9
$AUNITS
 70
0
  9
$AUPREC
 70
2
  9
$MENU
  1
.
  9
$ELEVATION
 40
0.0
  9
$PELEVATION
 40
0.0
  9
$THICKNESS
 40
0.0
  9
$LIMCHECK
 70
0
  9
$CHAMFERA
 40
0.0
  9
$CHAMFERB
 40
0.0
  9
$CHAMFERC
 40
0.0
  9
$CHAMFERD
 40
0.0
  9
$SKPOLY
 70
0
  9
$TDCREATE
 40
2461229.685011574
  9
$TDUCREATE
 40
2458532.153996898
  9
$TDUPDATE
 40
2461229.685011574
  9
$TDUUPDATE
 40
2458532.1544311
  9
$TDINDWG
 40
0.0
  9
$TDUSRTIMER
 40
0.0
  9
$USRTIMER
 70
1
  9
$ANGBASE
 50
0.0
  9
$ANGDIR
 70
0
  9
$PDMODE
 70
0
  9
$PDSIZE
 40
0.0
  9
$PLINEWID
 40
0.0
  9
$SPLFRAME
 70
0
  9
$SPLINETYPE
 70
6
  9
$SPLINESEGS
 70
8
  9
$HANDSEED
  5
34
  9
$SURFTAB1
 70
6
  9
$SURFTAB2
 70
6
  9
$SURFTYPE
 70
6
  9
$SURFU
 70
6
  9
$SURFV
 70
6
  9
$UCSBASE
  2

  9
$UCSNAME
  2

  9
$UCSORG
 10
0.0
 20
0.0
 30
0.0
  9
$UCSXDIR
 10
1.0
 20
0.0
 30
0.0
  9
$UCSYDIR
 10
0.0
 20
1.0
 30
0.0
  9
$UCSORTHOREF
  2

  9
$UCSORTHOVIEW
 70
0
  9
$UCSORGTOP
 10
0.0
 20
0.0
 30
0.0
  9
$UCSORGBOTTOM
 10
0.0
 20
0.0
 30
0.0
  9
$UCSORGLEFT
 10
0.0
 20
0.0
 30
0.0
  9
$UCSORGRIGHT
 10
0.0
 20
0.0
 30
0.0
  9
$UCSORGFRONT
 10
0.0
 20
0.0
 30
0.0
  9
$UCSORGBACK
 10
0.0
 20
0.0
 30
0.0
  9
$PUCSBASE
  2

  9
$PUCSNAME
  2

  9
$PUCSORG
 10
0.0
 20
0.0
 30
0.0
  9
$PUCSXDIR
 10
1.0
 20
0.0
 30
0.0
  9
$PUCSYDIR
 10
0.0
 20
1.0
 30
0.0
  9
$PUCSORTHOREF
  2

  9
$PUCSORTHOVIEW
 70
0
  9
$PUCSORGTOP
 10
0.0
 20
0.0
 30
0.0
  9
$PUCSORGBOTTOM
 10
0.0
 20
0.0
 30
0.0
  9
$PUCSORGLEFT
 10
0.0
 20
0.0
 30
0.0
  9
$PUCSORGRIGHT
 10
0.0
 20
0.0
 30
0.0
  9
$PUCSORGFRONT
 10
0.0
 20
0.0
 30
0.0
  9
$PUCSORGBACK
 10
0.0
 20
0.0
 30
0.0
  9
$USERI1
 70
0
  9
$USERI2
 70
0
  9
$USERI3
 70
0
  9
$USERI4
 70
0
  9
$USERI5
 70
0
  9
$USERR1
 40
0.0
  9
$USERR2
 40
0.0
  9
$USERR3
 40
0.0
  9
$USERR4
 40
0.0
  9
$USERR5
 40
0.0
  9
$WORLDVIEW
 70
1
  9
$SHADEDGE
 70
3
  9
$SHADEDIF
 70
70
  9
$TILEMODE
 70
1
  9
$MAXACTVP
 70
64
  9
$PINSBASE
 10
0.0
 20
0.0
 30
0.0
  9
$PLIMCHECK
 70
0
  9
$PEXTMIN
 10
1e+20
 20
1e+20
 30
1e+20
  9
$PEXTMAX
 10
-1e+20
 20
-1e+20
 30
-1e+20
  9
$PLIMMIN
 10
0.0
 20
0.0
  9
$PLIMMAX
 10
420.0
 20
297.0
  9
$UNITMODE
 70
0
  9
$VISRETAIN
 70
1
  9
$PLINEGEN
 70
0
  9
$PSLTSCALE
 70
1
  9
$TREEDEPTH
 70
3020
  9
$CMLSTYLE
  2
Standard
  9
$CMLJUST
 70
0
  9
$CMLSCALE
 40
20.0
  9
$PROXYGRAPHICS
 70
1
  9
$MEASUREMENT
 70
1
  9
$CELWEIGHT
370
-1
  9
$ENDCAPS
280
0
  9
$JOINSTYLE
280
0
  9
$LWDISPLAY
290
0
  9
$INSUNITS
 70
6
  9
$HYPERLINKBASE
  1

  9
$STYLESHEET
  1

  9
$XEDIT
290
1
  9
$CEPSNTYPE
380
0
  9
$PSTYLEMODE
290
1
  9
$FINGERPRINTGUID
  2
{F49EDBAC-AB58-4C3D-869A-B27E15714F78}
  9
$VERSIONGUID
  2
{B4E0F653-8907-4A7A-993A-1BD5C6DCA745}
  9
$EXTNAMES
290
1
  9
$PSVPSCALE
 40
0.0
  9
$OLESTARTUP
290
0
  9
$SORTENTS
280
127
  9
$INDEXCTL
280
0
  9
$HIDETEXT
280
1
  9
$XCLIPFRAME
280
1
  9
$HALOGAP
280
0
  9
$OBSCOLOR
 70
257
  9
$OBSLTYPE
280
0
  9
$INTERSECTIONDISPLAY
280
0
  9
$INTERSECTIONCOLOR
 70
257
  9
$DIMASSOC
280
2
  9
$PROJECTNAME
  1

  9
$CAMERADISPLAY
290
0
  9
$LENSLENGTH
 40
50.0
  9
$CAMERAHEIGHT
 40
0.0
  9
$STEPSPERSEC
 40
24.0
  9
$STEPSIZE
 40
100.0
  9
$3DDWFPREC
 40
2.0
  9
$PSOLWIDTH
 40
0.005
  9
$PSOLHEIGHT
 40
0.08
  9
$LOFTANG1
 40
1.570796326795
  9
$LOFTANG2
 40
1.570796326795
  9
$LOFTMAG1
 40
0.0
  9
$LOFTMAG2
 40
0.0
  9
$LOFTPARAM
 70
7
  9
$LOFTNORMALS
280
1
  9
$LATITUDE
 40
37.795
  9
$LONGITUDE
 40
-122.394
  9
$NORTHDIRECTION
 40
0.0
  9
$TIMEZONE
 70
-8000
  9
$LIGHTGLYPHDISPLAY
280
1
  9
$TILEMODELIGHTSYNCH
280
1
  9
$CMATERIAL
347
20
  9
$SOLIDHIST
280
0
  9
$SHOWHIST
280
1
  9
$DWFFRAME
280
2
  9
$DGNFRAME
280
2
  9
$REALWORLDSCALE
290
1
  9
$INTERFERECOLOR
 62
256
  9
$CSHADOW
280
0
  9
$SHADOWPLANELOCATION
 40
0.0
  0
ENDSEC
  0
SECTION
  2
CLASSES
  0
CLASS
  1
ACDBDICTIONARYWDFLT
  2
AcDbDictionaryWithDefault
  3
ObjectDBX Classes
 90
0
 91
0
280
0
281
0
  0
CLASS
  1
SUN
  2
AcDbSun
  3
SCENEOE
 90
1153
 91
0
280
0
281
0
  0
CLASS
  1
VISUALSTYLE
  2
AcDbVisualStyle
  3
ObjectDBX Classes
 90
4095
 91
0
280
0
281
0
  0
CLASS
  1
MATERIAL
  2
AcDbMaterial
  3
ObjectDBX Classes
 90
1153
 91
0
280
0
281
0
  0
CLASS
  1
SCALE
  2
AcDbScale
  3
ObjectDBX Classes
 90
1153
 91
0
280
0
281
0
  0
CLASS
  1
TABLESTYLE
  2
AcDbTableStyle
  3
ObjectDBX Classes
 90
4095
 91
0
280
0
281
0
  0
CLASS
  1
MLEADERSTYLE
  2
AcDbMLeaderStyle
  3
ACDB_MLEADERSTYLE_CLASS
 90
4095
 91
0
280
0
281
0
  0
CLASS
  1
DICTIONARYVAR
  2
AcDbDictionaryVar
  3
ObjectDBX Classes
 90
0
 91
0
280
0
281
0
  0
CLASS
  1
CELLSTYLEMAP
  2
AcDbCellStyleMap
  3
ObjectDBX Classes
 90
1152
 91
0
280
0
281
0
  0
CLASS
  1
MENTALRAYRENDERSETTINGS
  2
AcDbMentalRayRenderSettings
  3
SCENEOE
 90
1024
 91
0
280
0
281
0
  0
CLASS
  1
ACDBDETAILVIEWSTYLE
  2
AcDbDetailViewStyle
  3
ObjectDBX Classes
 90
1025
 91
0
280
0
281
0
  0
CLASS
  1
ACDBSECTIONVIEWSTYLE
  2
AcDbSectionViewStyle
  3
ObjectDBX Classes
 90
1025
 91
0
280
0
281
0
  0
CLASS
  1
RASTERVARIABLES
  2
AcDbRasterVariables
  3
ISM
 90
0
 91
0
280
0
281
0
  0
CLASS
  1
LAYOUT
  2
AcDbLayout
  3
ObjectDBX Classes
 90
0
 91
0
280
0
281
0
  0
CLASS
  1
ACDBPLACEHOLDER
  2
AcDbPlaceHolder
  3
ObjectDBX Classes
 90
0
 91
0
280
0
281
0
  0
ENDSEC
  0
SECTION
  2
TABLES
  0
TABLE
  2
VPORT
  5
8
330
0
100
AcDbSymbolTable
 70
1
  0
VPORT
  5
23
330
8
100
AcDbSymbolTableRecord
100
AcDbViewportTableRecord
  2
*Active
 70
0
 10
0.0
 20
0.0
 11
1.0
 21
1.0
 12
0.0
 22
0.0
 13
0.0
 23
0.0
 14
0.5
 24
0.5
 15
0.5
 25
0.5
 16
0.0
 26
0.0
 36
1.0
 17
0.0
 27
0.0
 37
0.0
 40
1000.0
 41
1.34
 42
50.0
 43
0.0
 44
0.0
 50
0.0
 51
0.0
 71
0
 72
1000
 73
1
 74
3
 75
0
 76
0
 77
0
 78
0
281
0
 65
0
146
0.0
  0
ENDTAB
  0
TABLE
  2
LTYPE
  5
2
330
0
100
AcDbSymbolTable
 70
3
  0
LTYPE
  5
24
330
2
100
AcDbSymbolTableRecord
100
AcDbLinetypeTableRecord
  2
ByBlock
 70
0
  3

 72
65
 73
0
 40
0.0
  0
LTYPE
  5
25
330
2
100
AcDbSymbolTableRecord
100
AcDbLinetypeTableRecord
  2
ByLayer
 70
0
  3

 72
65
 73
0
 40
0.0
  0
LTYPE
  5
26
330
2
100
AcDbSymbolTableRecord
100
AcDbLinetypeTableRecord
  2
Continuous
 70
0
  3

 72
65
 73
0
 40
0.0
  0
ENDTAB
  0
TABLE
  2
LAYER
  5
1
330
0
100
AcDbSymbolTable
 70
3
  0
LAYER
  5
27
330
1
100
AcDbSymbolTableRecord
100
AcDbLayerTableRecord
  2
0
 70
0
 62
7
  6
Continuous
370
-3
390
13
347
21
  0
LAYER
  5
28
330
1
100
AcDbSymbolTableRecord
100
AcDbLayerTableRecord
  2
Defpoints
 70
0
 62
7
  6
Continuous
290
0
370
-3
390
13
347
21
  0
LAYER
  5
2F
330
1
100
AcDbSymbolTableRecord
100
AcDbLayerTableRecord
  2
EJE_VIA
 70
0
 62
3
  6
Continuous
370
-3
390
13
347
21
  0
ENDTAB
  0
TABLE
  2
STYLE
  5
5
330
0
100
AcDbSymbolTable
 70
1
  0
STYLE
  5
29
330
5
100
AcDbSymbolTableRecord
100
AcDbTextStyleTableRecord
  2
Standard
 70
0
 40
0.0
 41
1.0
 50
0.0
 71
0
 42
2.5
  3
txt
  4

  0
ENDTAB
  0
TABLE
  2
VIEW
  5
7
330
0
100
AcDbSymbolTable
 70
0
  0
ENDTAB
  0
TABLE
  2
UCS
  5
6
330
0
100
AcDbSymbolTable
 70
0
  0
ENDTAB
  0
TABLE
  2
APPID
  5
3
330
0
100
AcDbSymbolTable
 70
3
  0
APPID
  5
2A
330
3
100
AcDbSymbolTableRecord
100
AcDbRegAppTableRecord
  2
ACAD
 70
0
  0
APPID
  5
31
330
3
100
AcDbSymbolTableRecord
100
AcDbRegAppTableRecord
  2
HATCHBACKGROUNDCOLOR
 70
0
  0
APPID
  5
32
330
3
100
AcDbSymbolTableRecord
100
AcDbRegAppTableRecord
  2
EZDXF
 70
0
  0
ENDTAB
  0
TABLE
  2
DIMSTYLE
  5
4
330
0
100
AcDbSymbolTable
 70
1
100
AcDbDimStyleTable
  0
DIMSTYLE
105
2B
330
4
100
AcDbSymbolTableRecord
100
AcDbDimStyleTableRecord
  2
Standard
 70
0
 40
1.0
 41
2.5
 42
0.625
 43
3.75
 44
1.25
 45
0.0
 46
0.0
 47
0.0
 48
0.0
 49
2.5
140
2.5
141
2.5
142
0.0
143
0.03937007874
144
1.0
145
0.0
146
1.0
147
0.625
148
0.0
 69
0
 70
0
 71
0
 72
0
 73
0
 74
0
 75
0
 76
0
 77
1
 78
8
 79
3
170
0
171
3
172
1
173
0
174
0
175
0
176
0
177
0
178
0
179
2
271
2
272
2
273
2
274
3
275
0
276
0
277
2
278
44
279
0
280
0
281
0
282
0
283
0
284
8
285
0
286
0
288
0
289
3
290
0
371
-2
372
-2
  0
ENDTAB
  0
TABLE
  2
BLOCK_RECORD
  5
9
330
0
100
AcDbSymbolTable
 70
2
  0
BLOCK_RECORD
  5
17
330
9
100
AcDbSymbolTableRecord
100
AcDbBlockTableRecord
  2
*Model_Space
340
1A
 70
0
280
1
281
0
  0
BLOCK_RECORD
  5
1B
330
9
100
AcDbSymbolTableRecord
100
AcDbBlockTableRecord
  2
*Paper_Space
340
1E
 70
0
280
1
281
0
  0
ENDTAB
  0
ENDSEC
  0
SECTION
  2
BLOCKS
  0
BLOCK
  5
18
330
17
100
AcDbEntity
  8
0
100
AcDbBlockBegin
  2
*Model_Space
 70
0
 10
0.0
 20
0.0
 30
0.0
  3
*Model_Space
  1

  0
ENDBLK
  5
19
330
17
100
AcDbEntity
  8
0
100
AcDbBlockEnd
  0
BLOCK
  5
1C
330
1B
100
AcDbEntity
  8
0
100
AcDbBlockBegin
  2
*Paper_Space
 70
0
 10
0.0
 20
0.0
 30
0.0
  3
*Paper_Space
  1

  0
ENDBLK
  5
1D
330
1B
100
AcDbEntity
  8
0
100
AcDbBlockEnd
  0
ENDSEC
  0
SECTION
  2
ENTITIES
  0
LWPOLYLINE
  5
30
330
17
100
AcDbEntity
  8
EJE_VIA
100
AcDbPolyline
 90
1634
 70
0
 10
0.0
 20
0.0
 10
0.1
 20
0.0
 10
0.2
 20
0.0
 10
0.30000000000000004
 20
0.0
 10
0.4
 20
0.0
 10
0.5
 20
0.0
 10
0.6000000000000001
 20
0.0
 10
0.7000000000000001
 20
0.0
 10
0.8
 20
0.0
 10
0.9
 20
0.0
 10
1.0
 20
0.0
 10
1.1
 20
0.0
 10
1.2000000000000002
 20
0.0
 10
1.3
 20
0.0
 10
1.4000000000000001
 20
0.0
 10
1.5
 20
0.0
 10
1.6
 20
0.0
 10
1.7000000000000002
 20
0.0
 10
1.8
 20
0.0
 10
1.9000000000000001
 20
0.0
 10
2.0
 20
0.0
 10
2.1
 20
0.0
 10
2.2
 20
0.0
 10
2.3000000000000003
 20
0.0
 10
2.4000000000000004
 20
0.0
 10
2.5
 20
0.0
 10
2.6
 20
0.0
 10
2.7
 20
0.0
 10
2.8000000000000003
 20
0.0
 10
2.9000000000000004
 20
0.0
 10
3.0
 20
0.0
 10
3.1
 20
0.0
 10
3.2
 20
0.0
 10
3.3000000000000003
 20
0.0
 10
3.4000000000000004
 20
0.0
 10
3.5
 20
0.0
 10
3.6
 20
0.0
 10
3.7
 20
0.0
 10
3.8000000000000003
 20
0.0
 10
3.9000000000000004
 20
0.0
 10
4.0
 20
0.0
 10
4.1000000000000005
 20
0.0
 10
4.2
 20
0.0
 10
4.3
 20
0.0
 10
4.4
 20
0.0
 10
4.5
 20
0.0
 10
4.6000000000000005
 20
0.0
 10
4.7
 20
0.0
 10
4.800000000000001
 20
0.0
 10
4.9
 20
0.0
 10
5.0
 20
0.0
 10
5.1000000000000005
 20
0.0
 10
5.2
 20
0.0
 10
5.300000000000001
 20
0.0
 10
5.4
 20
0.0
 10
5.5
 20
0.0
 10
5.6000000000000005
 20
0.0
 10
5.7
 20
0.0
 10
5.800000000000001
 20
0.0
 10
5.9
 20
0.0
 10
6.0
 20
0.0
 10
6.1000000000000005
 20
0.0
 10
6.2
 20
0.0
 10
6.300000000000001
 20
0.0
 10
6.4
 20
0.0
 10
6.5
 20
0.0
 10
6.6000000000000005
 20
0.0
 10
6.7
 20
0.0
 10
6.800000000000001
 20
0.0
 10
6.9
 20
0.0
 10
7.0
 20
0.0
 10
7.1000000000000005
 20
0.0
 10
7.2
 20
0.0
 10
7.300000000000001
 20
0.0
 10
7.4
 20
0.0
 10
7.5
 20
0.0
 10
7.6000000000000005
 20
0.0
 10
7.7
 20
0.0
 10
7.800000000000001
 20
0.0
 10
7.9
 20
0.0
 10
8.0
 20
0.0
 10
8.1
 20
0.0
 10
8.200000000000001
 20
0.0
 10
8.3
 20
0.0
 10
8.4
 20
0.0
 10
8.5
 20
0.0
 10
8.6
 20
0.0
 10
8.700000000000001
 20
0.0
 10
8.8
 20
0.0
 10
8.9
 20
0.0
 10
9.0
 20
0.0
 10
9.1
 20
0.0
 10
9.200000000000001
 20
0.0
 10
9.3
 20
0.0
 10
9.4
 20
0.0
 10
9.5
 20
0.0
 10
9.600000000000001
 20
0.0
 10
9.700000000000001
 20
0.0
 10
9.8
 20
0.0
 10
9.9
 20
0.0
 10
10.0
 20
0.0
 10
10.100000000000001
 20
0.0
 10
10.200000000000001
 20
0.0
 10
10.3
 20
0.0
 10
10.4
 20
0.0
 10
10.5
 20
0.0
 10
10.600000000000001
 20
0.0
 10
10.700000000000001
 20
0.0
 10
10.8
 20
0.0
 10
10.9
 20
0.0
 10
11.0
 20
0.0
 10
11.100000000000001
 20
0.0
 10
11.200000000000001
 20
0.0
 10
11.3
 20
0.0
 10
11.4
 20
0.0
 10
11.5
 20
0.0
 10
11.600000000000001
 20
0.0
 10
11.700000000000001
 20
0.0
 10
11.8
 20
0.0
 10
11.9
 20
0.0
 10
12.0
 20
0.0
 10
12.100000000000001
 20
0.0
 10
12.200000000000001
 20
0.0
 10
12.3
 20
0.0
 10
12.4
 20
0.0
 10
12.5
 20
0.0
 10
12.600000000000001
 20
0.0
 10
12.700000000000001
 20
0.0
 10
12.8
 20
0.0
 10
12.9
 20
0.0
 10
13.0
 20
0.0
 10
13.100000000000001
 20
0.0
 10
13.200000000000001
 20
0.0
 10
13.3
 20
0.0
 10
13.4
 20
0.0
 10
13.5
 20
0.0
 10
13.600000000000001
 20
0.0
 10
13.700000000000001
 20
0.0
 10
13.8
 20
0.0
 10
13.9
 20
0.0
 10
14.0
 20
0.0
 10
14.100000000000001
 20
0.0
 10
14.200000000000001
 20
0.0
 10
14.3
 20
0.0
 10
14.4
 20
0.0
 10
14.5
 20
0.0
 10
14.600000000000001
 20
0.0
 10
14.700000000000001
 20
0.0
 10
14.8
 20
0.0
 10
14.9
 20
0.0
 10
15.0
 20
0.0
 10
15.100000000000001
 20
0.0
 10
15.200000000000001
 20
0.0
 10
15.3
 20
0.0
 10
15.4
 20
0.0
 10
15.5
 20
0.0
 10
15.600000000000001
 20
0.0
 10
15.700000000000001
 20
0.0
 10
15.8
 20
0.0
 10
15.9
 20
0.0
 10
16.0
 20
0.0
 10
16.1
 20
0.0
 10
16.2
 20
0.0
 10
16.3
 20
0.0
 10
16.400000000000002
 20
0.0
 10
16.5
 20
0.0
 10
16.6
 20
0.0
 10
16.7
 20
0.0
 10
16.8
 20
0.0
 10
16.900000000000002
 20
0.0
 10
17.0
 20
0.0
 10
17.1
 20
0.0
 10
17.2
 20
0.0
 10
17.3
 20
0.0
 10
17.400000000000002
 20
0.0
 10
17.5
 20
0.0
 10
17.6
 20
0.0
 10
17.7
 20
0.0
 10
17.8
 20
0.0
 10
17.900000000000002
 20
0.0
 10
18.0
 20
0.0
 10
18.1
 20
0.0
 10
18.2
 20
0.0
 10
18.3
 20
0.0
 10
18.400000000000002
 20
0.0
 10
18.5
 20
0.0
 10
18.6
 20
0.0
 10
18.7
 20
0.0
 10
18.8
 20
0.0
 10
18.900000000000002
 20
0.0
 10
19.0
 20
0.0
 10
19.1
 20
0.0
 10
19.200000000000003
 20
0.0
 10
19.3
 20
0.0
 10
19.400000000000002
 20
0.0
 10
19.5
 20
0.0
 10
19.6
 20
0.0
 10
19.700000000000003
 20
0.0
 10
19.8
 20
0.0
 10
19.900000000000002
 20
0.0
 10
20.0
 20
0.0
 10
20.1
 20
0.0
 10
20.200000000000003
 20
0.0
 10
20.3
 20
0.0
 10
20.400000000000002
 20
0.0
 10
20.5
 20
0.0
 10
20.6
 20
0.0
 10
20.700000000000003
 20
0.0
 10
20.8
 20
0.0
 10
20.900000000000002
 20
0.0
 10
21.0
 20
0.0
 10
21.1
 20
0.0
 10
21.200000000000003
 20
0.0
 10
21.3
 20
0.0
 10
21.400000000000002
 20
0.0
 10
21.5
 20
0.0
 10
21.6
 20
0.0
 10
21.700000000000003
 20
0.0
 10
21.8
 20
0.0
 10
21.900000000000002
 20
0.0
 10
22.0
 20
0.0
 10
22.1
 20
0.0
 10
22.200000000000003
 20
0.0
 10
22.3
 20
0.0
 10
22.400000000000002
 20
0.0
 10
22.5
 20
0.0
 10
22.6
 20
0.0
 10
22.700000000000003
 20
0.0
 10
22.8
 20
0.0
 10
22.900000000000002
 20
0.0
 10
23.0
 20
0.0
 10
23.1
 20
0.0
 10
23.200000000000003
 20
0.0
 10
23.3
 20
0.0
 10
23.400000000000002
 20
0.0
 10
23.5
 20
0.0
 10
23.6
 20
0.0
 10
23.700000000000003
 20
0.0
 10
23.8
 20
0.0
 10
23.900000000000002
 20
0.0
 10
24.0
 20
0.0
 10
24.1
 20
0.0
 10
24.200000000000003
 20
0.0
 10
24.3
 20
0.0
 10
24.400000000000002
 20
0.0
 10
24.5
 20
0.0
 10
24.6
 20
0.0
 10
24.700000000000003
 20
0.0
 10
24.8
 20
0.0
 10
24.900000000000002
 20
0.0
 10
25.0
 20
0.0
 10
25.1
 20
0.0
 10
25.200000000000003
 20
0.0
 10
25.3
 20
0.0
 10
25.400000000000002
 20
0.0
 10
25.5
 20
0.0
 10
25.6
 20
0.0
 10
25.700000000000003
 20
0.0
 10
25.8
 20
0.0
 10
25.900000000000002
 20
0.0
 10
26.0
 20
0.0
 10
26.1
 20
0.0
 10
26.200000000000003
 20
0.0
 10
26.3
 20
0.0
 10
26.400000000000002
 20
0.0
 10
26.5
 20
0.0
 10
26.6
 20
0.0
 10
26.700000000000003
 20
0.0
 10
26.8
 20
0.0
 10
26.900000000000002
 20
0.0
 10
27.0
 20
0.0
 10
27.1
 20
0.0
 10
27.200000000000003
 20
0.0
 10
27.3
 20
0.0
 10
27.400000000000002
 20
0.0
 10
27.5
 20
0.0
 10
27.6
 20
0.0
 10
27.700000000000003
 20
0.0
 10
27.8
 20
0.0
 10
27.900000000000002
 20
0.0
 10
28.0
 20
0.0
 10
28.1
 20
0.0
 10
28.200000000000003
 20
0.0
 10
28.3
 20
0.0
 10
28.400000000000002
 20
0.0
 10
28.5
 20
0.0
 10
28.6
 20
0.0
 10
28.700000000000003
 20
0.0
 10
28.8
 20
0.0
 10
28.900000000000002
 20
0.0
 10
29.0
 20
0.0
 10
29.1
 20
0.0
 10
29.200000000000003
 20
0.0
 10
29.3
 20
0.0
 10
29.400000000000002
 20
0.0
 10
29.5
 20
0.0
 10
29.6
 20
0.0
 10
29.700000000000003
 20
0.0
 10
29.8
 20
0.0
 10
29.900000000000002
 20
0.0
 10
30.0
 20
0.0
 10
30.099999999990075
 20
1.0468749999248492e-06
 10
30.199999999686202
 20
8.343749990618471e-06
 10
30.29999999762256
 20
2.8140624840473055e-05
 10
30.399999989989592
 20
6.668749880692126e-05
 10
30.49999996946208
 20
0.00013023436931542106
 10
30.599999924027358
 20
0.00022503122963982714
 10
30.699999835813344
 20
0.0003573280651178937
 10
30.799999679916738
 20
0.0005333748475357396
 10
30.89999942323114
 20
0.0007594215273150797
 10
30.999999023275194
 20
0.0010417180231369185
 10
31.09999842702075
 20
0.0013865142086356987
 10
31.19999756972105
 20
0.0018000598957974658
 10
31.29999637373891
 20
0.0022886048146960876
 10
31.399994747375025
 20
0.002858398589201324
 10
31.49999258369619
 20
0.0035156907082923654
 10
31.5999897593637
 20
0.004266730492611209
 10
31.69998613346174
 20
0.005117767055889182
 10
31.799981546325903
 20
0.006075049260881079
 10
31.89997581837185
 20
0.007144825669440807
 10
31.99996874892403
 20
0.008333344486372163
 10
32.09996011504461
 20
0.009646853496689792
 10
32.19994967036255
 20
0.011091599995923459
 10
32.29993714390294
 20
0.01267383071310095
 10
32.39992223891654
 20
0.014399791726043347
 10
32.49990463170966
 20
0.01627572836860823
 10
32.59988397047425
 20
0.018307885129513674
 10
32.69985987411855
 20
0.020502505542380377
 10
32.799831931097955
 20
0.02286583206662543
 10
32.8997996982465
 20
0.025404105958843404
 10
32.99976269960876
 20
0.028123567134311567
 10
33.09972042527249
 20
0.03103045401825238
 10
33.19967233020169
 20
0.03413100338649316
 10
33.29961783307063
 20
0.03743145019515686
 10
33.39955631509848
 20
0.040938027399021866
 10
33.49948711888501
 20
0.04465696575818964
 10
33.59940954724698
 20
0.04859449363269437
 10
33.69932286205589
 20
0.052756836764698216
 10
33.799226283076656
 20
0.057150218047907514
 10
33.89911898680758
 20
0.06178085728385095
 10
33.99900010532175
 20
0.06665497092466177
 10
34.09886872510979
 20
0.07177877180200036
 10
34.1987238859243
 20
0.07715846884176585
 10
34.29856457962597
 20
0.08280026676423474
 10
34.39838974903142
 20
0.08871036576927216
 10
34.498198286763284
 20
0.09489496120626244
 10
34.597989034102106
 20
0.10136024322839933
 10
34.697760779840685
 20
0.10811239643099108
 10
34.79751225914089
 20
0.11515759947342277
 10
34.8972421523929
 20
0.12250202468442783
 10
34.996949084077386
 20
0.13015183765032257
 10
35.096631621630515
 20
0.13811319678584918
 10
35.196288274312174
 20
0.14639225288729182
 10
35.295917492077486
 20
0.15499514866751432
 10
35.39551766445182
 20
0.16392801827258074
 10
35.49508711940966
 20
0.1731969867796213
 10
35.59462412225731
 20
0.18280816967559738
 10
35.694126874519846
 20
0.19276767231664194
 10
35.79359351283253
 20
0.20308158936763368
 10
35.893022107836835
 20
0.2137560042216762
 10
35.99241066308141
 20
0.22479698839915904
 10
36.09175711392823
 20
0.23621060092606327
 10
36.191059326464234
 20
0.24800288769120504
 10
36.290315096418645
 20
0.2601798807820856
 10
36.38952214808635
 20
0.2727475977990363
 10
36.48867813325763
 20
0.2857120411473497
 10
36.58778063015443
 20
0.2990791973070749
 10
36.68682714237366
 20
0.31285503608018866
 10
36.785815097837755
 20
0.3270455098148289
 10
36.884741847752814
 20
0.34165655260629485
 10
36.98360466557478
 20
0.35669407947452914
 10
37.08240074598379
 20
0.372163985517775
 10
37.18112720386734
 20
0.38807214504214677
 10
37.279781073312485
 20
0.4044244106668178
 10
37.37835930660745
 20
0.4212266124045576
 10
37.47685877325315
 20
0.4384845567173553
 10
37.575276258984815
 20
0.4562040255468474
 10
37.67360846480452
 20
0.474390775319317
 10
37.771852006024645
 20
0.4930505359249945
 10
37.87000341132288
 20
0.5121890096714207
 10
37.96805912180936
 20
0.5318118702106382
 10
38.06601570196293
 20
0.5519237362263724
 10
38.16387049875073
 20
0.5725251317043135
 10
38.26162106580792
 20
0.5936155416106477
 10
38.359264959375416
 20
0.6151944386862254
 10
38.456799738360964
 20
0.6372612834597422
 10
38.554222964400175
 20
0.6598155242612314
 10
38.651532201917476
 20
0.6828565972358459
 10
38.748725018186974
 20
0.7063839263579614
 10
38.845798983393344
 20
0.7303969234455754
 10
38.94275167069251
 20
0.7548949881750094
 10
39.03958065627235
 20
0.7798775080959249
 10
39.13628351941325
 20
0.8053438586466231
 10
39.23285784254867
 20
0.8312934031696664
 10
39.329301211325564
 20
0.8577254929277937
 10
39.42561121466473
 20
0.8846394671201356
 10
39.52178544482112
 20
0.9120346528987429
 10
39.61782149744398
 20
0.9399103653853959
 10
39.713716971637
 20
0.9682659076887344
 10
39.8094694700183
 20
0.9971005709216778
 10
39.905076598780425
 20
1.0264136342191448
 10
40.00053596775014
 20
1.0562043647560837
 10
40.09584519044817
 20
1.086472017765781
 10
40.19100188414893
 20
1.1172158365584879
 10
40.28600366994002
 20
1.1484350525403357
 10
40.38084817278176
 20
1.1801288852325482
 10
40.475533021566505
 20
1.212296542290964
 10
40.570055849177976
 20
1.2449372195258293
 10
40.6644142925504
 20
1.2780501009219138
 10
40.7586059927276
 20
1.3116343586589068
 10
40.85262859492199
 20
1.3456891531321113
 10
40.946479748573424
 20
1.3802136329734447
 10
41.04015710740792
 20
1.4152069350727066
 10
41.133658329496406
 20
1.4506681845991665
 10
41.2269810773132
 20
1.4865964950234334
 10
41.32012301779445
 20
1.5229909681396157
 10
41.41308182239653
 20
1.5598506940877859
 10
41.50585516715412
 20
1.5971747513767125
 10
41.59844073273846
 20
1.6349622069069074
 10
41.690836204515236
 20
1.6732121159939504
 10
41.78303927260244
 20
1.711923522392104
 10
41.8750476319282
 20
1.7510954583182299
 10
41.96685898228831
 20
1.790726944475967
 10
42.05847102840379
 20
1.8308169900802256
 10
42.149881479978276
 20
1.8713645928819538
 10
42.241088051755234
 20
1.9123687391931903
 10
42.33208846357512
 20
1.953828403912419
 10
42.42288044043236
 20
1.9957425505501785
 10
42.51346171253229
 20
2.038110131254985
 10
42.6038300153478
 20
2.080930086839529
 10
42.693983089676045
 20
2.124201346807146
 10
42.78391868169485
 20
2.167922829378598
 10
42.8736345430191
 20
2.212093441519095
 10
42.96312843075693
 20
2.256712078965634
 10
43.052398107565814
 20
2.3017776262546024
 10
43.14144134170848
 20
2.347288956749661
 10
43.23025590710873
 20
2.3932449326699254
 10
43.318839583407026
 20
2.4396444051183876
 10
43.4071901560161
 20
2.4864862141106534
 10
43.49530541617622
 20
2.5337691886039377
 10
43.583183161010474
 20
2.5814921465263363
 10
43.670821193579826
 20
2.629653894806395
 10
43.758217322938016
 20
2.678253229402911
 10
43.84536936418637
 20
2.727288935335051
 10
43.932275138528404
 20
2.7767597867127196
 10
44.01893247332426
 20
2.826664546767207
 10
44.105339202145096
 20
2.8770019678821166
 10
44.19149316482721
 20
2.9277707916245395
 10
44.27739220752599
 20
2.978969748776526
 10
44.363034182769866
 20
3.030597559366814
 10
44.4484169495139
 20
3.0826529327028247
 10
44.53353837319338
 20
3.135134567402943
 10
44.61839632577714
 20
3.188041151429031
 10
44.70298868582079
 20
3.241371362119243
 10
44.78731333851976
 20
3.29512386622109
 10
44.871368175762086
 20
3.3492973199247658
 10
44.95515109618123
 20
3.403890368896757
 10
45.03866000520855
 20
3.4589016483136765
 10
45.12189281512564
 20
3.5143297828964064
 10
45.204847445116634
 20
3.5701733869444685
 10
45.28752182132007
 20
3.6264310643706654
 10
45.369913876880865
 20
3.6831014087360003
 10
45.45202155200192
 20
3.7401830032848116
 10
45.533842793995625
 20
3.797674420980208
 10
45.615375557335184
 20
3.8555742245397413
 10
45.69661780370577
 20
3.913880966471335
 10
45.77756750205546
 20
3.9725931891094857
 10
45.85822262864602
 20
4.031709424651682
 10
45.93858116710346
 20
4.091228195195113
 10
46.01864110846852
 20
4.151148012773615
 10
46.09840045124683
 20
4.2114673793948665
 10
46.17785720145899
 20
4.272184787077849
 10
46.25700937269037
 20
4.333298717890531
 10
46.33585498614081
 20
4.394807643987825
 10
46.414392070674076
 20
4.45671002764978
 10
46.49261866286715
 20
4.519004321320028
 10
46.570532807059315
 20
4.581688967644477
 10
46.64813255540101
 20
4.644762399510233
 10
46.72541596790257
 20
4.708223040084782
 10
46.80238111248272
 20
4.7720693028554155
 10
46.87902606501682
 20
4.836299591668885
 10
46.95534890938508
 20
4.900912300771323
 10
47.03134773752035
 20
4.965905814848366
 10
47.107020649455905
 20
5.031278509065544
 10
47.18236575337286
 20
5.097028749108906
 10
47.257381165647566
 20
5.163154891225874
 10
47.33206501089861
 20
5.229655282266346
 10
47.40641542203377
 20
5.296528259724004
 10
47.48043054029661
 20
5.363772151777899
 10
47.55410851531304
 20
5.431385277334227
 10
47.627447505137525
 20
5.499365946068369
 10
47.700445676299154
 20
5.5677124584671525
 10
47.77310120384742
 20
5.636423105871327
 10
47.845412271397926
 20
5.705496170518287
 10
47.917377071177775
 20
5.77492992558501
 10
47.98899380407069
 20
5.844722635231232
 10
48.0602606796621
 20
5.914872554642858
 10
48.13117591628381
 20
5.98537793007555
 10
48.2017377410586
 20
6.056236998898594
 10
48.271944389944544
 20
6.127447989638963
 10
48.341794107779045
 20
6.199009122025589
 10
48.41128514832283
 20
6.270918607033901
 10
48.48041577430349
 20
6.343174646930513
 10
48.549184257458975
 20
6.415775435318193
 10
48.617588878580776
 20
6.488719157181009
 10
48.68562792755694
 20
6.562003988929713
 10
48.75329970341479
 20
6.635628098447335
 10
48.82060251436346
 20
6.709589645134969
 10
48.887534677836165
 20
6.783886779957796
 10
48.95409452053231
 20
6.85851764549132
 10
49.02028037845928
 20
6.9334803759677825
 10
49.08609059697411
 20
7.008773097322835
 10
49.15152353082474
 20
7.084393927242362
 10
49.216577544191225
 20
7.160340975209553
 10
49.281251010726635
 20
7.236612342552163
 10
49.345542313597655
 20
7.313206122489977
 10
49.40944984552509
 20
7.390120400182498
 10
49.47297200882395
 20
7.467353252776784
 10
49.53610721544347
 20
7.544902749455539
 10
49.59885388700679
 20
7.6227669514853895
 10
49.66121045485035
 20
7.700943912265331
 10
49.723175360063216
 20
7.779431677375428
 10
49.78474705352601
 20
7.858228284625637
 10
49.84592399594957
 20
7.937331764104879
 10
49.90670465791353
 20
8.016740138230286
 10
49.96708751990451
 20
8.096451421796639
 10
50.02707107235412
 20
8.176463622026008
 10
50.086653815676655
 20
8.256774738617551
 10
50.14583426030662
 20
8.337382763797532
 10
50.20461092673602
 20
8.418285682369525
 10
50.26298234555121
 20
8.49948147176477
 10
50.320947057469795
 20
8.580968102092774
 10
50.378503613377
 20
8.662743536192018
 10
50.43565057436191
 20
8.744805729680909
 10
50.49238651175349
 20
8.827152631008884
 10
50.54871000715623
 20
8.90978218150769
 10
50.6046196524857
 20
8.99269231544288
 10
50.66011405000367
 20
9.075880960065422
 10
50.715191812353105
 20
9.15934603566353
 10
50.76985156259281
 20
9.243085455614661
 10
50.824091934231866
 20
9.327097126437677
 10
50.877911571263816
 20
9.411378947845185
 10
50.931309128200546
 20
9.495928812796038
 10
50.98428327010589
 20
9.580744607548018
 10
51.03683267262909
 20
9.665824211710671
 10
51.088956022037785
 20
9.751165498298324
 10
51.140652015250986
 20
9.836766333783265
 10
51.19191935987155
 20
9.922624578149057
 10
51.24275677421852
 20
10.008738084944063
 10
51.29316298735918
 20
10.095104701335101
 10
51.343136739140824
 20
10.181722268161252
 10
51.39267678022229
 20
10.26858861998787
 10
51.4417818721051
 20
10.355701585160679
 10
51.49045078716455
 20
10.44305898586008
 10
51.538682308680265
 20
10.530658638155614
 10
51.586475230866725
 20
10.618498352060524
 10
51.633828358903365
 20
10.706575931586547
 10
51.680740508964455
 20
10.794889174798785
 10
51.72721050824869
 20
10.883435873870756
 10
51.773237195008505
 20
10.972213815139591
 10
51.81881941857912
 20
11.061220779161374
 10
51.86395603940734
 20
11.150454540766654
 10
51.90864592907999
 20
11.239912869116036
 10
51.95288797035214
 20
11.329593527755971
 10
51.99668105717506
 20
11.419494274674658
 10
52.04002409472388
 20
11.509612862358104
 10
52.08291599942491
 20
11.599947037846322
 10
52.12535569898276
 20
11.690494542789624
 10
52.16734213240717
 20
11.7812531135051
 10
52.20887425003947
 20
11.872220481033212
 10
52.2499510135789
 20
11.963394371194504
 10
52.2905713961085
 20
12.054772504646486
 10
52.33073438212083
 20
12.146352596940568
 10
52.37043896754333
 20
12.238132358579218
 10
52.409684159763415
 20
12.330109495073168
 10
52.44846897765335
 20
12.422281706998792
 10
52.48679245159469
 20
12.51464669005561
 10
52.524653623502594
 20
12.607202135123847
 10
52.562051546849716
 20
12.699945728322197
 10
52.59898528668993
 20
12.79287515106566
 10
52.63545391968168
 20
12.885988080123498
 10
52.67145653411103
 20
12.979282187677354
 10
52.7069922299145
 20
13.072755141379385
 10
52.742060118701524
 20
13.166404604410625
 10
52.77665932377672
 20
13.260228235539367
 10
52.81078898016177
 20
13.354223689179719
 10
52.84444823461703
 20
13.448388615450245
 10
52.87763624566292
 20
13.542720660232686
 10
52.91035218360086
 20
13.63721746523084
 10
52.94259523053411
 20
13.7318766680295
 10
52.9743645803882
 20
13.826695902153519
 10
53.00565943893101
 20
13.921672797127
 10
53.03647902379272
 20
14.016804978532509
 10
53.06682256448532
 20
14.112090068070456
 10
53.09668930242187
 20
14.207525683618575
 10
53.12607849093547
 20
14.303109439291436
 10
53.15498939529793
 20
14.398838945500142
 10
53.183421292738174
 20
14.494711809012017
 10
53.211373472460224
 20
14.590725633010466
 10
53.238845235661046
 20
14.68687801715489
 10
53.265835895547994
 20
14.783166557640682
 10
53.292344777355964
 20
14.879588847259365
 10
53.31837121836432
 20
14.976142475458712
 10
53.343914567913366
 20
15.072825028403045
 10
53.368974187420704
 20
15.169634089033577
 10
53.39354945039715
 20
15.266567237128825
 10
53.41763974246242
 20
15.36362204936515
 10
53.44124446136045
 20
15.460796099377296
 10
53.4643630169745
 20
15.558086957819073
 10
53.48699483134189
 20
15.655492192424088
 10
53.50913933866844
 20
15.75300936806654
 10
53.530795985342614
 20
15.850636046822135
 10
53.55196422994938
 20
15.948369788028982
 10
53.572643543283725
 20
16.046208148348633
 10
53.592833408363894
 20
16.14414868182719
 10
53.6125333204443
 20
16.242188939956392
 10
53.63174278702819
 20
16.340326471734922
 10
53.650461327879874
 20
16.43855882372958
 10
53.66868847503681
 20
16.536883540136685
 10
53.68642377282127
 20
16.635298162843455
 10
53.703666777851744
 20
16.73380023148943
 10
53.720417059054
 20
16.83238728352804
 10
53.73667419767188
 20
16.93105685428812
 10
53.75243778727777
 20
17.029806477035528
 10
53.76770743378274
 20
17.128633683034842
 10
53.782482755446416
 20
17.22753600161106
 10
53.796763382886546
 20
17.32651096021138
 10
53.81054895908819
 20
17.42555608446698
 10
53.82383913941265
 20
17.52466889825492
 10
53.836633591606095
 20
17.62384692376001
 10
53.84893199580791
 20
17.72308768153677
 10
53.86073404455862
 20
17.82238869057144
 10
53.872039442807626
 20
17.92174746834397
 10
53.882847907920564
 20
18.02116153089007
 10
53.893159169686356
 20
18.12062839286337
 10
53.90297297032399
 20
18.220145567597495
 10
53.91228906448898
 20
18.319710567168265
 10
53.92110721927944
 20
18.419320902455873
 10
53.92942721424197
 20
18.518974083207127
 10
53.93724884137714
 20
18.618667618097692
 10
53.94457190514468
 20
18.71839901479439
 10
53.95139622246835
 20
18.818165780017512
 10
53.957721622740586
 20
18.917965419603096
 10
53.963547947826726
 20
19.017795438565372
 10
53.968875052068924
 20
19.117653341159073
 10
53.97370280228985
 20
19.21753663094181
 10
53.97803107779601
 20
19.317442810836564
 10
53.981859770380744
 20
19.417369383194014
 10
53.985188784326944
 20
19.51731384985507
 10
53.98801803640941
 20
19.61727371221329
 10
53.990347455897
 20
19.71724647127728
 10
53.992176984554376
 20
19.817229627733315
 10
53.993506576643384
 20
19.91722068200766
 10
53.994336198924294
 20
20.01721713432917
 10
53.994665830656594
 20
20.117216484791765
 10
53.99449546359951
 20
20.217216233416867
 10
53.99382510201221
 20
20.317213880215988
 10
53.99265476265369
 20
20.417206925253144
 10
53.990984474782394
 20
20.51719286870743
 10
53.98881428015542
 20
20.617169210935483
 10
53.98614423302751
 20
20.717133452533925
 10
53.98297440014972
 20
20.817083094401944
 10
53.979304860767705
 20
20.917015637803683
 10
53.97513570661974
 20
21.016928584430776
 10
53.97046704193448
 20
21.116819436464766
 10
53.9652989834283
 20
21.216685696639527
 10
53.959631660302385
 20
21.316524868303787
 10
53.95346521423952
 20
21.416334455483426
 10
53.94679979940054
 20
21.516111962943985
 10
53.93963558242044
 20
21.61585489625298
 10
53.93197274240434
 20
21.71556076184225
 10
53.92381147092278
 20
21.81522706707037
 10
53.91515197200714
 20
21.914851320284868
 10
53.90599446214444
 20
22.014431030884626
 10
53.89633917027194
 20
22.113963709382077
 10
53.886186337771456
 20
22.213446867465414
 10
53.87553621846326
 20
22.3128780180609
 10
53.86438907859977
 20
22.412254675394912
 10
53.852745196858926
 20
22.511574355056208
 10
53.84060486433713
 20
22.61083457405798
 10
53.82796838454209
 20
22.710032850899903
 10
53.814836073385145
 20
22.809166705630243
 10
53.801208259173386
 20
22.908233659907772
 10
53.78708528260145
 20
23.007231237063806
 10
53.77246749674302
 20
23.10615696216409
 10
53.75735526704199
 20
23.205008362070615
 10
53.7417489713033
 20
23.303782965503565
 10
53.72564899968354
 20
23.402478303102964
 10
53.70905575468116
 20
23.50109190749053
 10
53.69196965112641
 20
23.599621313331305
 10
53.67439111617101
 20
23.698064057395243
 10
53.656320589277385
 20
23.7964176786189
 10
53.6377585222078
 20
23.89467971816685
 10
53.61870537901296
 20
23.992847719493216
 10
53.59916163602044
 20
24.090919228403106
 10
53.5791277818228
 20
24.18889179311387
 10
53.55860431726536
 20
24.286762964316523
 10
53.53759175543367
 20
24.384530295236857
 10
53.516090621640664
 20
24.4821913416967
 10
53.49410145341358
 20
24.579743662175
 10
53.47162480048047
 20
24.67718481786879
 10
53.44866122475647
 20
24.774512372754288
 10
53.42521130032981
 20
24.871723893647648
 10
53.401275613447375
 20
24.96881695026594
 10
53.37685476250007
 20
25.06578911528781
 10
53.3519493580079
 20
25.162637964414156
 10
53.326560022604696
 20
25.259361076428828
 10
53.300687391022514
 20
25.355956033259037
 10
53.27433211007579
 20
25.452420420035903
 10
53.24749483864518
 20
25.54875182515479
 10
53.22017624766108
 20
25.644947840335572
 10
53.19237702008684
 20
25.741006060682896
 10
53.16409785090167
 20
25.83692408474623
 10
53.13533944708336
 20
25.932699514579983
 10
53.1061025275905
 20
26.02832995580341
 10
53.076387823344554
 20
26.123813017660435
 10
53.04619607721158
 20
26.219146313079516
 10
53.01552804398367
 20
26.3143274587332
 10
52.984384490360036
 20
26.409354075097824
 10
52.952766194927904
 20
26.50422378651293
 10
52.92067394814302
 20
26.598934221240658
 10
52.888108552309866
 20
26.693483011525096
 10
52.855070821561675
 20
26.787867793651383
 10
52.82156158183997
 20
26.882086208004893
 10
52.78758167087398
 20
26.976135899130195
 10
52.75313193815975
 20
27.07001451578987
 10
52.71821324493877
 20
27.16371971102343
 10
52.682826464176586
 20
27.25724914220584
 10
52.64697248054085
 20
27.35060047110622
 10
52.6106521903793
 20
27.4437713639462
 10
52.57386650169729
 20
27.536759491458305
 10
52.536616334135104
 20
27.629562528944206
 10
52.49890261894501
 20
27.722178156332774
 10
52.46072629896792
 20
27.814604058238167
 10
52.422088328609846
 20
27.906837924017655
 10
52.38298967381804
 20
27.998877447829372
 10
52.343431312056815
 20
28.09072032869005
 10
52.30341423228319
 20
28.18236427053242
 10
52.262939434922046
 20
28.27380698226273
 10
52.22200793184122
 20
28.365046177817945
 10
52.180620746326156
 20
28.456079576222923
 10
52.138778913054324
 20
28.546904901647462
 10
52.0964834780694
 20
28.63751988346313
 10
52.05373549875504
 20
28.72792225630011
 10
52.0105360438085
 20
28.81810976010381
 10
51.96688619321392
 20
28.908080140191295
 10
51.92278703821526
 20
28.997831147307778
 10
51.87823968128913
 20
29.087360537682745
 10
51.83324523611713
 20
29.176666073086096
 10
51.78780482755802
 20
29.26574552088412
 10
51.74191959161966
 20
29.354596654095232
 10
51.695590675430566
 20
29.44321725144576
 10
51.648819237211235
 20
29.53160509742535
 10
51.601606446245164
 20
29.619757982342477
 10
51.55395348284969
 20
29.707673702379623
 10
51.5058615383464
 20
29.795350059648328
 10
51.4573318150314
 20
29.88278486224427
 10
51.408365526145275
 20
29.969975924301895
 10
51.35896389584268
 20
30.05692106604922
 10
51.30912815916177
 20
30.14361811386223
 10
51.25885956199341
 20
30.23006490031923
 10
51.20815936104988
 20
30.316259264255088
 10
51.157028823833585
 20
30.402199050815153
 10
51.10546922860529
 20
30.487882111509265
 10
51.053481864352165
 20
30.573306304265376
 10
51.00106803075564
 20
30.658469493483096
 10
50.94822903815881
 20
30.74336955008715
 10
50.89496620753373
 20
30.828004351580525
 10
50.84128087044841
 20
30.9123717820976
 10
50.787174369033465
 20
30.996469732457008
 10
50.73264805594862
 20
31.080296100214365
 10
50.677703294348866
 20
31.16384878971486
 10
50.62234145785039
 20
31.247125712145582
 10
50.566563930496194
 20
31.330124785587827
 10
50.510372106721576
 20
31.412843935069073
 10
50.4537673913192
 20
31.495281092614892
 10
50.396751199404
 20
31.577434197300644
 10
50.339324956377816
 20
31.659301195302984
 10
50.28149009789371
 20
31.74088003995123
 10
50.22324806982015
 20
31.82216869177851
 10
50.164600328204806
 20
31.903165118572765
 10
50.10554833923815
 20
31.98386729542755
 10
50.046093579216844
 20
32.06427320479263
 10
49.986237534506785
 20
32.14438083652449
 10
49.925981701505975
 20
32.22418818793646
 10
49.86532758660711
 20
32.303693263848956
 10
49.80427670615987
 20
32.38289407663921
 10
49.742830586433115
 20
32.461788646291005
 10
49.68099076357663
 20
32.54037500044424
 10
49.61875878358278
 20
32.61865117444413
 10
49.55613620224781
 20
32.696615211390416
 10
49.493124585132975
 20
32.774265162186246
 10
49.42972550752545
 20
32.85159908558687
 10
49.36594055439885
 20
32.92861504824824
 10
49.30177132037371
 20
33.0053111247753
 10
49.237219409677515
 20
33.08168539777013
 10
49.17228643610468
 20
33.15773595787989
 10
49.10697402297616
 20
33.23346090384453
 10
49.04128380309888
 20
33.308858342544355
 10
48.975217418724924
 20
33.3839263890473
 10
48.90877652151045
 20
33.45866316665614
 10
48.84196277247443
 20
33.533066806955325
 10
48.77477784195712
 20
33.60713544985771
 10
48.70722340957825
 20
33.68086724365109
 10
48.639301164195146
 20
33.75426034504445
 10
48.5710128038604
 20
33.82731291921407
 10
48.502360035779446
 20
33.90002313984945
 10
48.43334457626793
 20
33.97238918919881
 10
48.36396815070873
 20
34.0444092581147
 10
48.29423249350889
 20
34.116081546099146
 10
48.2241393480562
 20
34.18740426134867
 10
48.153690466675634
 20
34.25837562079914
 10
48.08288761058557
 20
34.32899385017023
 10
48.011732549853726
 20
34.39925718400991
 10
47.94022706335291
 20
34.46916386573848
 10
47.868372938716554
 20
34.538712147692536
 10
47.79617197229403
 20
34.607900291168654
 10
47.72362596910576
 20
34.67672656646686
 10
47.65073674279802
 20
34.74518925293385
 10
47.57750611559768
 20
34.81328663900603
 10
47.50393591826661
 20
34.88101702225229
 10
47.43002799005588
 20
34.94837870941657
 10
47.3557841786599
 20
35.01537001646021
 10
47.28120634017006
 20
35.081989268604026
 10
47.20629633902843
 20
35.14823480037017
 10
47.13105604798115
 20
35.214104955623796
 10
47.05548734803156
 20
35.279598087614495
 10
46.97959212839326
 20
35.34471255901733
 10
46.90337228644274
 20
35.409446741973944
 10
46.82682972767212
 20
35.4737990181331
 10
46.74996636564136
 20
35.537767778691254
 10
46.672784121930505
 20
35.60135142443274
 10
46.59528492609165
 20
35.664548365769726
 10
46.51747071560063
 20
35.727357022781945
 10
46.43934343580869
 20
35.78977582525626
 10
46.36090503989372
 20
35.85180321272586
 10
46.282157488811535
 20
35.91343763450929
 10
46.20310275124683
 20
35.97467754974921
 10
46.12374280356389
 20
36.035521427450945
 10
46.044079629757334
 20
36.0959677465207
 10
45.96411522140231
 20
36.15601499580365
 10
45.88385157760489
 20
36.2156616741217
 10
45.803290704951955
 20
36.274906290311
 10
45.72243461746115
 20
36.333747363259235
 10
45.64128533653045
 20
36.392183421942626
 10
45.55984489088765
 20
36.45021300546275
 10
45.47811531653964
 20
36.50783466308305
 10
45.39609865672154
 20
36.56504695426508
 10
45.313796961845554
 20
36.62184844870456
 10
45.231212289449786
 20
36.67823772636709
 10
45.148346704146725
 20
36.73421337752364
 10
45.06520227757169
 20
36.78977400278586
 10
44.98178108833103
 20
36.84491821314101
 10
44.898085221950126
 20
36.899644629986696
 10
44.81411677082128
 20
36.953951885165345
 10
44.729877834151395
 20
37.00783862099843
 10
44.645370517909484
 20
37.06130349032034
 10
44.56059693477409
 20
37.11434515651213
 10
44.47555920408033
 20
37.166962293534915
 10
44.390259451767065
 20
37.219153585963
 10
44.30469981032366
 20
37.27091772901681
 10
44.2188824187367
 20
37.32225342859545
 10
44.132809422436495
 20
37.3731594013091
 10
44.04648297324347
 20
37.4236343745111
 10
43.95990522931437
 20
37.47367708632976
 10
43.87307835508828
 20
37.52328628569987
 10
43.78600452123252
 20
37.57246073239404
 10
43.698685904588416
 20
37.62119919705368
 10
43.611124688116824
 20
37.66950046121968
 10
43.52332306084361
 20
37.71736331736296
 10
43.43528321780487
 20
37.76478656891463
 10
43.34700735999209
 20
37.81176903029587
 10
43.25849769429714
 20
37.858309526947565
 10
43.16975643345703
 20
37.90440689535974
 10
43.080785795998686
 20
37.95005998310059
 10
42.99158800618339
 20
37.99526764884529
 10
42.902165293951235
 20
38.04002876240456
 10
42.8125198948654
 20
38.084342204752886
 10
42.72265405005616
 20
38.12820686805651
 10
42.63257000616497
 20
38.171621655701145
 10
42.54227001528823
 20
38.21458548231936
 10
42.45175633492101
 20
38.25709727381773
 10
42.36103122790061
 20
38.29915596740366
 10
42.27009696234997
 20
38.340760511612025
 10
42.178955811621016
 20
38.381909866331384
 10
42.08761005423774
 20
38.422603002829995
 10
41.99606197383934
 20
38.46283890378158
 10
41.90431385912306
 20
38.50261656329071
 10
41.812368003786965
 20
38.54193498691797
 10
41.72022670647267
 20
38.58079319170481
 10
41.62789227070781
 20
38.61919020619814
 10
41.53536700484845
 20
38.6571250704746
 10
41.442653222021434
 20
38.69459683616456
 10
41.34975324006649
 20
38.73160456647583
 10
41.25666938147836
 20
38.76814733621707
 10
41.16340397334863
 20
38.80422423182093
 10
41.06995934730765
 20
38.839834351366925
 10
40.97633783946622
 20
38.8749768046039
 10
40.88254179035712
 20
38.90965071297236
 10
40.788573544876755
 20
38.9438552096264
 10
40.69443545222633
 20
38.97758943945539
 10
40.60012986585324
 20
39.010852559105345
 10
40.50565914339228
 20
39.043643737000004
 10
40.41102564660653
 20
39.07596215336163
 10
40.31623174132854
 20
39.10780700023149
 10
40.22127979740099
 20
39.13917748149007
 10
40.126172188617495
 20
39.170072812876974
 10
40.030911292663376
 20
39.200492222010546
 10
39.93549949105603
 20
39.23043494840713
 10
39.83993916908556
 20
39.2599002435001
 10
39.74423271575501
 20
39.28888737065864
 10
39.648382523720734
 20
39.31739560520609
 10
39.55239098923256
 20
39.34542423443804
 10
39.45626051207383
 20
39.37297255764023
 10
39.35999349550148
 20
39.400039886106036
 10
39.26359234618589
 20
39.426625543153634
 10
39.167059474150776
 20
39.45272886414299
 10
39.07039729271293
 20
39.47834919649244
 10
38.97360821842185
 20
39.503485899695
 10
38.876694670999356
 20
39.528138345334405
 10
38.77965907327907
 20
39.552305917100796
 10
38.68250385114587
 20
39.57598801080615
 10
38.58523143347528
 20
39.599184034399336
 10
38.487844252072655
 20
39.62189340798098
 10
38.390344741612466
 20
39.64411556381794
 10
38.292735339577405
 20
39.665849946357476
 10
38.195018486197405
 20
39.68709601224113
 10
38.09719662438875
 20
39.70785323031839
 10
37.99927219969287
 20
39.72812108165988
 10
37.901247660215304
 20
39.74789905957037
 10
37.80312545656441
 20
39.76718666960142
 10
37.70490804179016
 20
39.78598342956381
 10
37.60659787132284
 20
39.804288869539505
 10
37.508197402911556
 20
39.82210253189347
 10
37.40970909656293
 20
39.83942397128507
 10
37.31113541447948
 20
39.85625275467922
 10
37.21247882099811
 20
39.8725884613572
 10
37.11374178252853
 20
39.888430682927236
 10
37.014926767491545
 20
39.903779023334586
 10
36.916036246257406
 20
39.91863309887153
 10
36.81707269108398
 20
39.93299253818697
 10
36.71803857605498
 20
39.946856982295664
 10
36.618936377018144
 20
39.960226084587234
 10
36.51976857152328
 20
39.973099510834814
 10
36.42053763876036
 20
39.98547693920341
 10
36.32124605949754
 20
39.99735806025797
 10
36.22189631601911
 20
40.00874257697108
 10
36.12249089206352
 20
40.01963020473042
 10
36.02303227276116
 20
40.03002067134586
 10
35.92352294457234
 20
40.039913717056294
 10
35.82396539522509
 20
40.04930909453606
 10
35.72436211365293
 20
40.05820656890123
 10
35.624715589932755
 20
40.06660591771541
 10
35.52502831522242
 20
40.07450693099531
 10
35.42530278169867
 20
40.08190941121603
 10
35.3255414824946
 20
40.088813173315934
 10
35.22574691163748
 20
40.095218044701326
 10
35.125921563986424
 20
40.10112386525075
 10
35.02606793516989
 20
40.10653048731901
 10
34.92618852152343
 20
40.11143777574083
 10
34.82628582002717
 20
40.11584560783427
 10
34.726362328243404
 20
40.11975387340374
 10
34.62642054425428
 20
40.12316247474281
 10
34.52646296659916
 20
40.12607132663662
 10
34.4264920942123
 20
40.12848035636403
 10
34.32651042636029
 20
40.13038950369942
 10
34.22652046257961
 20
40.13179872091421
 10
34.12652470261417
 20
40.13270797277805
 10
34.02652564635274
 20
40.13311723655967
 10
33.92652579376653
 20
40.133026502027505
 10
33.82652764484666
 20
40.13243577144993
 10
33.726533699541605
 20
40.13134505959515
 10
33.62654645769482
 20
40.129754393730906
 10
33.526568418982144
 20
40.127663813623776
 10
33.426602082849335
 20
40.12507337153817
 10
33.32664994844959
 20
40.12198313223499
 10
33.22671451458103
 20
40.118393172970045
 10
33.12679827962433
 20
40.11430358349214
 10
33.026903741480155
 20
40.1097144660408
 10
32.927033397506776
 20
40.10462593534373
 10
32.82718974445757
 20
40.099038118613926
 10
32.72737527841865
 20
40.0929511555465
 10
32.627592494746494
 20
40.08636519831524
 10
32.52784388800547
 20
40.07928041156871
 10
32.42813195190558
 20
40.07169697242621
 10
32.328459179240014
 20
40.063615070473325
 10
32.22882806182289
 20
40.05503490775721
 10
32.12924109042699
 20
40.04595669878147
 10
32.02970075472136
 20
40.036380670500826
 10
31.930209543209255
 20
40.02630706231551
 10
31.83076994316576
 20
40.015736126065214
 10
31.73138444057569
 20
40.00466812602279
 10
31.632055520071454
 20
39.993103338887664
 10
31.532785664870868
 20
39.98104205377891
 10
31.43357735671517
 20
39.968484572228014
 10
31.334433075806885
 20
39.955431208171376
 10
31.235355300747848
 20
39.9418822879424
 10
31.13634650847731
 20
39.9278381502634
 10
31.03740917420989
 20
39.91329914623708
 10
30.938545771373818
 20
39.89826563933779
 10
30.839758771549008
 20
39.882738005402416
 10
30.7410506444053
 20
39.866716632621
 10
30.64242385764075
 20
39.850201921527024
 10
30.54388087691987
 20
39.8331942849874
 10
30.445424165812067
 20
39.81569414819216
 10
30.34705618572998
 20
39.79770194864381
 10
30.248779395867974
 20
39.77921813614642
 10
30.1505962531407
 20
39.76024317279433
 10
30.052509212121596
 20
39.74077753296062
 10
29.954520724981595
 20
39.72082170328528
 10
29.856633241427765
 20
39.700376182663035
 10
29.758849208642076
 20
39.67944148223079
 10
29.661171071220288
 20
39.65801812535501
 10
29.563601271110723
 20
39.63610664761846
 10
29.46614224755332
 20
39.61370759680698
 10
29.36879643701859
 20
39.59082153289567
 10
29.2715662731467
 20
39.56744902803491
 10
29.174454186686727
 20
39.543590666536126
 10
29.077462605435734
 20
39.5192470448571
 10
28.98059395417823
 20
39.49441877158711
 10
28.88385065462544
 20
39.46910646743169
 10
28.787235125354798
 20
39.44331076519714
 10
28.69074978174953
 20
39.41703230977467
 10
28.594397035938183
 20
39.39027175812428
 10
28.4981792967344
 20
39.36302977925838
 10
28.402098969576645
 20
39.335307054225034
 10
28.30615845646807
 20
39.307104276090904
 10
28.210360155916536
 20
39.278422149923976
 10
28.114706462874548
 20
39.24926139277592
 10
28.01919976867947
 20
39.21962273366414
 10
27.923842460993665
 20
39.18950691355358
 10
27.828636923744856
 20
39.15891468533816
 10
27.733585537066528
 20
39.127846813821996
 10
27.638690677238383
 20
39.09630407570025
 10
27.543954716627
 20
39.06428725953977
 10
27.449380023626436
 20
39.03179716575925
 10
27.35496896259909
 20
38.99883460660934
 10
27.260723893816593
 20
38.965400406152334
 10
27.166647173400722
 20
38.93149540024148
 10
27.072741153264626
 20
38.897120436500174
 10
26.9790081810539
 20
38.862276374300706
 10
26.88545060008795
 20
38.82696408474282
 10
26.79207074930145
 20
38.79118445063194
 10
26.69887096318579
 20
38.75493836645701
 10
26.605853571730794
 20
38.71822673836827
 10
26.513020900366392
 20
38.681050484154525
 10
26.420375269904515
 20
38.64341053322016
 10
26.327918996481124
 20
38.60530782656203
 10
26.235654391498212
 20
38.56674331674578
 10
26.143583761566138
 20
38.52771796788216
 10
26.051709408445824
 20
38.48823275560285
 10
25.960033628991305
 20
38.44828866703613
 10
25.868558715092323
 20
38.407886700782115
 10
25.77728695361693
 20
38.367027866887845
 10
25.68622062635444
 20
38.325713186822064
 10
25.595362009958276
 20
38.283943693449594
 10
25.504713375889107
 20
38.24172043100562
 10
25.414276990358083
 20
38.19904445506948
 10
25.324055114270113
 20
38.15591683253836
 10
25.234050003167425
 20
38.11233864160058
 10
25.14426390717309
 20
38.06831097170866
 10
25.054699070934817
 20
38.02383492355203
 10
24.965357733568883
 20
37.97891160902957
 10
24.87624212860403
 20
37.93354215122182
 10
24.787354483925775
 20
37.88772768436288
 10
24.698697021720594
 20
37.841469353812
 10
24.61027195842041
 20
37.79476831602505
 10
24.522081504647222
 20
37.74762573852554
 10
24.434127865157762
 20
37.700042799875455
 10
24.34641323878846
 20
37.652020689645795
 10
24.25893981840039
 20
37.60356060838679
 10
24.171709790824497
 20
37.55466376759795
 10
24.084725336806944
 20
37.50533138969778
 10
23.997988630954538
 20
37.45556470799311
 10
23.911501841680433
 20
37.405364966648435
 10
23.825267131149833
 20
37.35473342065464
 10
23.739286655226
 20
37.30367133579775
 10
23.65356256341638
 20
37.25217998862725
 10
23.568096998818785
 20
37.2002606664241
 10
23.4828920980679
 20
37.14791466716868
 10
23.3979499912818
 20
37.09514329950823
 10
23.3132728020087
 20
37.04194788272419
 10
23.228862647173962
 20
36.98832974669921
 10
23.14472163702703
 20
36.93429023188391
 10
23.060851875088794
 20
36.879830689263336
 10
22.97725545809893
 20
36.824952480323226
 10
22.8939344759635
 20
36.76965697701594
 10
22.810891011702736
 20
36.71394556172618
 10
22.728127141398897
 20
36.65781962723642
 10
22.64564493414445
 20
36.601280576692105
 10
22.56344645199027
 20
36.544329823566564
 10
22.48153374989413
 20
36.48696879162565
 10
22.399908875669322
 20
36.42919891489216
 10
22.31857386993344
 20
36.371021637610035
 10
22.237530766057404
 20
36.312438414208145
 10
22.156781590114583
 20
36.253450709264044
 10
22.076328360830157
 20
36.194059997467264
 10
21.996173089530693
 20
36.134267763582535
 10
21.916317780093777
 20
36.07407550241256
 10
21.836764428898007
 20
36.013484718760765
 10
21.757515024773006
 20
35.95249692739356
 10
21.67857154894974
 20
35.891113653002556
 10
21.599935975011018
 20
35.829336430166435
 10
21.521610268842068
 20
35.76716680331252
 10
21.443596388581483
 20
35.70460632667826
 10
21.3658962845722
 20
35.64165656427232
 10
21.28851189931276
 20
35.57831908983547
 10
21.21144516740879
 20
35.51459548680128
 10
21.134698015524542
 20
35.450487348256495
 10
21.05827236233485
 20
35.38599627690127
 10
20.98217011847704
 20
35.32112388500899
 10
20.906393186503248
 20
35.25587179438609
 10
20.830943460832835
 20
35.19024163633144
 10
20.755822827704996
 20
35.12423505159557
 10
20.68103316513167
 20
35.05785369033967
 10
20.606576342850516
 20
34.9910992120943
 10
20.532454222278204
 20
34.92397328571794
 10
20.458668656463907
 20
34.85647758935527
 10
20.385221490042905
 20
34.78861381039518
 10
20.31211455919055
 20
34.72038364542859
 10
20.239349691576304
 20
34.65178880020609
 10
20.166928706318057
 20
34.582830989595216
 10
20.09485341393668
 20
34.51351193753768
 10
20.02312561631071
 20
34.44383337700613
 10
19.951747106631384
 20
34.373797049960984
 10
19.880719669357706
 20
34.303404707306754
 10
19.8100450801719
 20
34.23265810884833
 10
19.739725105935037
 20
34.161559023246994
 10
19.66976150464278
 20
34.09010922797621
 10
19.600156025381555
 20
34.018310509277114
 10
19.530910408284697
 20
33.94616466211393
 10
19.462026384489015
 20
33.87367349012908
 10
19.393505676091543
 20
33.80083880559812
 10
19.325349996106397
 20
33.72766242938433
 10
19.257561048422055
 20
33.65414619089332
 10
19.190140527758654
 20
33.580291928027236
 10
19.1230901196257
 20
33.50610148713877
 10
19.056411500279925
 20
33.43157672298512
 10
18.990106336683308
 20
33.35671949868147
 10
18.924176286461517
 20
33.281531685654556
 10
18.858622997862366
 20
33.20601516359579
 10
18.793448109714635
 20
33.13017182041427
 10
18.72865325138716
 20
33.054003552189634
 10
18.664240042748006
 20
32.97751226312461
 10
18.600210094124048
 20
32.90069986549747
 10
18.536565006260666
 20
32.82356827961414
 10
18.473306370281723
 20
32.74611943376023
 10
18.41043576764984
 20
32.66835526415288
 10
18.3479547701268
 20
32.59027771489225
 10
18.2858649397343
 20
32.51188873791305
 10
18.224167828714858
 20
32.43319029293558
 10
18.162864979493023
 20
32.35418434741687
 10
18.101957924636856
 20
32.274872876501455
 10
18.041448186819544
 20
32.195257862971964
 10
17.98133727878138
 20
32.115341297199635
 10
17.921626703291935
 20
32.03512517709441
 10
17.86231795311249
 20
31.9546115080551
 10
17.803412510958722
 20
31.873802302919266
 10
17.744911849463588
 20
31.792699581912807
 10
17.6868174311406
 20
31.711305372599544
 10
17.629130708347187
 20
31.62962170983046
 10
17.571853123248406
 20
31.547650635692857
 10
17.514986107780906
 20
31.465394199459357
 10
17.458531083617107
 20
31.382854457536542
 10
17.402489462129683
 20
31.300033473413684
 10
17.346862644356253
 20
31.216933317611076
 10
17.291652020964353
 20
31.133556067628252
 10
17.2368589722167
 20
31.049903807892157
 10
17.182484867936655
 20
30.965978629704903
 10
17.128531067474
 20
30.88178263119159
 10
17.074998919670943
 20
30.797317917247792
 10
17.02188976282836
 20
30.712586599486944
 10
16.969204924672436
 20
30.627590796187597
 10
16.916945722321362
 20
30.542332632240388
 10
16.86511346225249
 20
30.456814239094992
 10
16.813709440269623
 20
30.37103775470678
 10
16.762734941470605
 20
30.285005323483375
 10
16.712191240215276
 20
30.198719096231105
 10
16.66207960009353
 20
30.112181230101136
 10
16.61240127389377
 20
30.02539388853563
 10
16.563157503571556
 20
29.938359241213597
 10
16.514349520218573
 20
29.85107946399668
 10
16.465978544031874
 20
29.763556738874783
 10
16.418045784283333
 20
29.675793253911454
 10
16.370552439289455
 20
29.587791203189273
 10
16.3234996963814
 20
29.499552786754904
 10
16.27688873187527
 20
29.411080210564158
 10
16.230720711042768
 20
29.32237568642685
 10
16.184996788081992
 20
29.233441431951437
 10
16.139718106088658
 20
29.144279670489684
 10
16.094885797027437
 20
29.054892631080964
 10
16.050500981703728
 20
28.965282548396594
 10
16.0065647697356
 20
28.875451662684
 10
15.963078259526068
 20
28.78540221971062
 10
15.92004253823562
 20
28.695136470707865
 10
15.877458681755051
 20
28.604656672314743
 10
15.835327754678545
 20
28.51396508652149
 10
15.793650810277096
 20
28.423063980613055
 10
15.752428890472135
 20
28.331955627112333
 10
15.711663025809518
 20
28.24064230372343
 10
15.671354235433736
 20
28.149126293274666
 10
15.631503527062437
 20
28.05740988366152
 10
15.592111896961272
 20
27.965495367789483
 10
15.553180329918927
 20
27.87338504351664
 10
15.514709799222565
 20
27.78108121359633
 10
15.476701266633443
 20
27.688586185619478
 10
15.439155682362887
 20
27.595902271956952
 10
15.402073985048565
 20
27.50303178970179
 10
15.365457101730966
 20
27.409977060611183
 10
15.329305947830278
 20
27.316740411048553
 10
15.293621427123455
 20
27.22332417192525
 10
15.258404431721656
 20
27.129730678642378
 10
15.223655842047942
 20
27.035962271032428
 10
15.18937652681523
 20
26.94202129330068
 10
15.155567343004627
 20
26.84791009396671
 10
15.122229135843966
 20
26.75363102580559
 10
15.089362738786681
 20
26.659186445789093
 10
15.056968973491
 20
26.564578715026826
 10
15.025048649799354
 20
26.469810198707105
 10
14.993602565718184
 20
26.374883266037934
 10
14.962631507397955
 20
26.279800290187673
 10
14.932136249113501
 20
26.18456364822574
 10
14.902117553244702
 20
26.089175721063267
 10
14.872576170257382
 20
25.993638893393427
 10
14.843512838684585
 20
25.89795555363197
 10
14.814928285108081
 20
25.802128093857387
 10
14.786823224140223
 20
25.70615890975117
 10
14.759198358406072
 20
25.61005040053795
 10
14.732054378525827
 20
25.513804968925424
 10
14.70539196309758
 20
25.417425021044405
 10
14.679211778680322
 20
25.320912966388548
 10
14.6535144797773
 20
25.22427121775418
 10
14.628300708819653
 20
25.12750219118001
 10
14.603571096150336
 20
25.03060830588663
 10
14.579326260008381
 20
24.933591984216168
 10
14.555566806513431
 20
24.83645565157159
 10
14.532293329650578
 20
24.73920173635614
 10
14.509506411255542
 20
24.641832669912656
 10
14.487206621000087
 20
24.54435088646271
 10
14.465394516377811
 20
24.44675882304583
 10
14.4440706426902
 20
24.349058919458503
 10
14.423235533032978
 20
24.25125361819323
 10
14.402889708282803
 20
24.15334536437747
 10
14.38303367708423
 20
24.05533660571243
 10
14.363667935837011
 20
23.957229792412015
 10
14.344792968683667
 20
23.859027377141427
 10
14.32640924749739
 20
23.760731814955918
 10
14.308517231870256
 20
23.662345563239455
 10
14.291117369101723
 20
23.563871081643175
 10
14.274210094187454
 20
23.465310832024016
 10
14.257795829808446
 20
23.366667278383073
 10
14.241874986320441
 20
23.267942886804036
 10
14.22644796174371
 20
23.16914012539158
 10
14.211515098721804
 20
23.070261470615577
 10
14.19707442848444
 20
22.971309733720624
 10
14.183120430540708
 20
22.872288192351085
 10
14.169647249187644
 20
22.77320008199578
 10
14.156649004908587
 20
22.674048549560233
 10
14.144119795388095
 20
22.574836654356538
 10
14.13205369650021
 20
22.475567369103942
 10
14.120444763270303
 20
22.376243580939295
 10
14.109287030810794
 20
22.276868092437283
 10
14.098574515231023
 20
22.17744362263986
 10
14.088301214521508
 20
22.0779728080944
 10
14.078461109412965
 20
21.97845820390048
 10
14.069048164210269
 20
21.878902284764518
 10
14.060056327601757
 20
21.779307446062212
 10
14.051479533444086
 20
21.67967600490832
 10
14.043311701523015
 20
21.58001020123329
 10
14.035546738290364
 20
21.48031219886671
 10
14.028178537577512
 20
21.380584086626893
 10
14.021200981285718
 20
21.280827879416552
 10
14.014607940053594
 20
21.181045519324208
 10
14.008393273902046
 20
21.081238876730822
 10
14.002550832857013
 20
20.981409751421715
 10
13.99707445755034
 20
20.88155987370313
 10
13.991957979799114
 20
20.781690905523472
 10
13.987195223163754
 20
20.681804441598846
 10
13.982780003485288
 20
20.581902010542464
 10
13.978706129402049
 20
20.481985075998104
 10
13.97496740284621
 20
20.382055037776887
 10
13.971557619520445
 20
20.28211323299755
 10
13.968470569355116
 20
20.182160937229778
 10
13.965700036946279
 20
20.082199365640587
 10
13.963239801974906
 20
19.98222967414312
 10
13.961083639607624
 20
19.882252960548282
 10
13.959225320879378
 20
19.782270265718605
 10
13.957658613058333
 20
19.68228257472421
 10
13.95637727999338
 20
19.582290818000967
 10
13.955375082444597
 20
19.48229587251022
 10
13.954645778397044
 20
19.38229856290046
 10
13.954183123358218
 20
19.28229966267041
 10
13.95398087063957
 20
19.18229989533355
 10
13.954032771622382
 20
19.082299935584015
 10
13.954332576008436
 20
18.9823004104634
 10
13.954874032055786
 20
18.882301900528876
 10
13.955650886800008
 20
18.7823049410221
 10
13.956656886261309
 20
18.682310023038944
 10
13.957885775637836
 20
18.58231759470007
 10
13.959331299485566
 20
18.482328062321898
 10
13.960987201885121
 20
18.382341791588377
 10
13.962847226595898
 20
18.282359108723085
 10
13.96490511719786
 20
18.18238030166171
 10
13.967154617221365
 20
18.082405621225035
 10
13.969589470265392
 20
17.982435282291842
 10
13.972203420104547
 20
17.882469464972356
 10
13.974990210785164
 20
17.782508315781644
 10
13.977943586710952
 20
17.682551948813146
 10
13.98105729271848
 20
17.58260044691236
 10
13.984325074142893
 20
17.4826538628503
 10
13.987740676874235
 20
17.382712220497165
 10
13.99129784740475
 20
17.282775515995844
 10
13.99499033286748
 20
17.182843718935313
 10
13.998811881066596
 20
17.082916773524065
 10
14.002756240499782
 20
16.98299459976315
 10
14.006817160373059
 20
16.883077094619296
 10
14.01098839060839
 20
16.783164133197776
 10
14.015263681844477
 20
16.68325556991509
 10
14.019636785431066
 20
16.583351239671593
 10
14.024101453417183
 20
16.48345095902365
 10
14.028651438533599
 20
16.38355452735592
 10
14.033280494169956
 20
16.283661728053257
 10
14.037982374346889
 20
16.183772329672482
 10
14.042750833683485
 20
16.083886087114056
 10
14.047579627360527
 20
15.984002742793347
 10
14.052462511079781
 20
15.884122027811985
 10
14.057393241019788
 20
15.784243663128935
 10
14.062365573788457
 20
15.68436736073141
 10
14.067373266372869
 20
15.584492824805801
 10
14.072410076086651
 20
15.484619752908225
 10
14.077469760515257
 20
15.384747837135224
 10
14.082546077459561
 20
15.284876765294262
 10
14.087632784878094
 20
15.185006222074154
 10
14.092723684277368
 20
15.085135892430479
 10
14.097814897225952
 20
14.985265578769663
 10
14.102906110174535
 20
14.885395265108848
 10
14.107997323123119
 20
14.785524951448032
 10
14.113088536071704
 20
14.685654637787188
 10
14.118179749020287
 20
14.585784324126372
 10
14.12327096196887
 20
14.485914010465557
 10
14.128362174917454
 20
14.386043696804741
 10
14.133453387866037
 20
14.286173383143925
 10
14.138544600814622
 20
14.186303069483081
 10
14.143635813763206
 20
14.086432755822266
 10
14.14872702671179
 20
13.98656244216145
 10
14.153818239660373
 20
13.886692128500634
 10
14.158909452608956
 20
13.786821814839819
 10
14.164000665557541
 20
13.686951501178974
 10
14.169091878506125
 20
13.587081187518159
 10
14.174183091454708
 20
13.487210873857343
 10
14.179274304403291
 20
13.387340560196527
 10
14.184365517351875
 20
13.287470246535712
 10
14.18945673030046
 20
13.187599932874868
 10
14.194547943249043
 20
13.087729619214052
 10
14.199639156197627
 20
12.987859305553236
 10
14.20473036914621
 20
12.88798899189242
 10
14.209821582094794
 20
12.788118678231605
 10
14.214912795043379
 20
12.68824836457076
 10
14.220004007991962
 20
12.588378050909945
 10
14.225095220940545
 20
12.48850773724913
 10
14.230186433889129
 20
12.388637423588314
 10
14.235277646837712
 20
12.288767109927498
 10
14.240368859786297
 20
12.188896796266654
 10
14.24546007273488
 20
12.089026482605838
 10
14.250551285683464
 20
11.989156168945023
 10
14.255642498632048
 20
11.889285855284207
 10
14.260733711580631
 20
11.789415541623391
 10
14.265824924529216
 20
11.689545227962547
 10
14.2709161374778
 20
11.589674914301732
 10
14.276007350426383
 20
11.489804600640916
 10
14.281098563374966
 20
11.3899342869801
 10
14.28618977632355
 20
11.290063973319285
 10
14.291280989272135
 20
11.19019365965844
 10
14.296372202220718
 20
11.090323345997625
 10
14.301463415169302
 20
10.99045303233681
 10
14.306554628117885
 20
10.890582718675994
 10
14.311645841066468
 20
10.790712405015178
 10
14.316737054015054
 20
10.690842091354334
 10
14.321828266963637
 20
10.590971777693518
 10
14.32691947991222
 20
10.491101464032702
 10
14.332010692860804
 20
10.391231150371887
 10
14.337101905809387
 20
10.291360836711071
 10
14.342193118757972
 20
10.191490523050227
 10
14.347284331706556
 20
10.091620209389411
 10
14.352375544655139
 20
9.991749895728596
 10
14.357466757603722
 20
9.89187958206778
 10
14.362557970552306
 20
9.792009268406964
 10
14.367649183500891
 20
9.69213895474612
 10
14.372740396449474
 20
9.592268641085305
 10
14.377831609398058
 20
9.492398327424489
 10
14.382922822346641
 20
9.392528013763673
 10
14.388014035295225
 20
9.292657700102858
 10
14.39310524824381
 20
9.192787386442014
 10
14.398196461192393
 20
9.092917072781198
 10
14.403287674140977
 20
8.993046759120382
 10
14.40837888708956
 20
8.893176445459567
 10
14.413470100038143
 20
8.79330613179875
 10
14.418561312986728
 20
8.693435818137907
 10
14.423652525935312
 20
8.593565504477091
 10
14.428743738883895
 20
8.493695190816275
 10
14.433834951832479
 20
8.39382487715546
 10
14.438926164781062
 20
8.293954563494644
 10
14.444017377729647
 20
8.1940842498338
 10
14.44910859067823
 20
8.094213936172984
 10
14.454199803626814
 20
7.994343622512168
 10
14.459291016575397
 20
7.894473308851343
 10
14.46438222952398
 20
7.794602995190519
 10
14.469473442472566
 20
7.694732681529666
 10
14.47456465542115
 20
7.594862367868841
 10
14.479655868369733
 20
7.494992054208017
 10
14.484747081318316
 20
7.395121740547192
 10
14.4898382942669
 20
7.2952514268863675
 10
14.494929507215485
 20
7.1953811132255145
 10
14.500020720164068
 20
7.09551079956469
 10
14.505111933112651
 20
6.9956404859038654
 10
14.510203146061235
 20
6.895770172243041
 10
14.515294359009818
 20
6.795899858582216
 10
14.520385571958403
 20
6.696029544921363
 10
14.525476784906987
 20
6.596159231260539
 10
14.53056799785557
 20
6.496288917599714
 10
14.535659210804154
 20
6.39641860393889
 10
14.540750423752737
 20
6.296548290278065
 10
14.545841636701322
 20
6.196677976617212
 10
14.550932849649906
 20
6.096807662956388
 10
14.556024062598489
 20
5.996937349295563
 10
14.561115275547072
 20
5.8970670356347386
 10
14.566206488495656
 20
5.797196721973914
 10
14.57129770144424
 20
5.697326408313061
 10
14.576388914392824
 20
5.5974560946522365
 10
14.581480127341408
 20
5.497585780991412
 10
14.586571340289991
 20
5.397715467330587
 10
14.591662553238574
 20
5.297845153669763
 10
14.59675376618716
 20
5.19797484000891
 10
14.601844979135743
 20
5.098104526348085
 10
14.606936192084326
 20
4.998234212687261
 10
14.61202740503291
 20
4.898363899026436
 10
14.617118617981493
 20
4.798493585365612
 10
14.622209830930078
 20
4.698623271704759
 10
14.627301043878662
 20
4.598752958043934
 10
14.632392256827245
 20
4.49888264438311
 10
14.637483469775828
 20
4.399012330722285
 10
14.642574682724412
 20
4.2991420170614605
 10
14.647665895672997
 20
4.1992717034006075
 10
14.65275710862158
 20
4.099401389739783
 10
14.657848321570164
 20
3.999531076078959
 10
14.662939534518747
 20
3.8996607624181387
 10
14.66803074746733
 20
3.7997904487573186
 10
14.673121960415916
 20
3.69992013509647
 10
14.6782131733645
 20
3.60004982143565
 10
14.683304386313083
 20
3.50017950777483
 10
14.688395599261666
 20
3.40030919411401
 10
14.69348681221025
 20
3.3004388804531897
 10
14.698578025158834
 20
3.200568566792341
 10
14.703669238107418
 20
3.100698253131521
 10
14.708760451056001
 20
3.000827939470701
 10
14.713851664004585
 20
2.900957625809881
 10
14.718942876953168
 20
2.8010873121490607
 10
14.724034089901753
 20
2.701216998488212
 10
14.729125302850337
 20
2.601346684827392
 10
14.73421651579892
 20
2.501476371166572
 10
14.739307728747503
 20
2.401606057505752
 10
14.744398941696087
 20
2.3017357438449317
 10
14.749490154644672
 20
2.201865430184083
 10
14.754581367593255
 20
2.101995116523263
 10
14.759672580541839
 20
2.002124802862443
 10
14.764763793490422
 20
1.9022544892016207
 10
14.769855006439006
 20
1.8023841755407983
 10
14.77494621938759
 20
1.7025138618799476
 10
14.780037432336174
 20
1.6026435482191252
 10
14.785128645284757
 20
1.502773234558303
 10
14.79021985823334
 20
1.4029029208974806
 10
14.795311071181924
 20
1.3030326072366583
 10
14.80040228413051
 20
1.2031622935758075
 10
14.805493497079093
 20
1.1032919799149852
 10
14.810584710027676
 20
1.0034216662541628
 10
14.81567592297626
 20
0.9035513525933405
 10
14.820767135924843
 20
0.8036810389325182
 10
14.825858348873428
 20
0.7038107252716674
 10
14.830949561822012
 20
0.6039404116108451
 10
14.836040774770595
 20
0.5040700979500228
 10
14.841131987719178
 20
0.4041997842892006
 10
14.846223200667762
 20
0.30432947062837845
 10
14.851314413616347
 20
0.204459156967528
 10
14.85640562656493
 20
0.10458884330670601
 10
14.861496839513514
 20
0.004718529645883941
 10
14.866588052462097
 20
-0.09515178401493812
 10
14.87167926541068
 20
-0.19502209767576012
 10
14.876770478359266
 20
-0.29489241133661054
 10
14.881861691307849
 20
-0.3947627249974327
 10
14.886952904256432
 20
-0.49463303865825486
 10
14.892044117205016
 20
-0.5945033523190771
 10
14.8971353301536
 20
-0.6943736659798995
 10
14.902226543102184
 20
-0.7942439796407502
 10
14.907317756050768
 20
-0.8941142933015725
 10
14.912408968999351
 20
-0.9939846069623949
 10
14.917500181947934
 20
-1.093854920623217
 10
14.922591394896518
 20
-1.1937252342840394
 10
14.927682607845103
 20
-1.2935955479448902
 10
14.932773820793686
 20
-1.3934658616057125
 10
14.93786503374227
 20
-1.4933361752665348
 10
14.942956246690853
 20
-1.5932064889273572
 10
14.948047459639437
 20
-1.6930768025881795
 10
14.953138672588022
 20
-1.7929471162490302
 10
14.958229885536605
 20
-1.8928174299098526
 10
14.963321098485189
 20
-1.992687743570675
 10
14.968412311433772
 20
-2.092558057231495
 10
14.973503524382355
 20
-2.192428370892315
 10
14.97859473733094
 20
-2.2922986845531637
 10
14.983685950279524
 20
-2.3921689982139838
 10
14.988777163228107
 20
-2.492039311874804
 10
14.99386837617669
 20
-2.591909625535624
 10
14.998959589125274
 20
-2.691779939196444
 10
15.00405080207386
 20
-2.7916502528572926
 10
15.009142015022443
 20
-2.8915205665181127
 10
15.014233227971026
 20
-2.991390880178933
 10
15.01932444091961
 20
-3.091261193839753
 10
15.024415653868193
 20
-3.191131507500573
 10
15.029506866816778
 20
-3.2910018211614216
 10
15.034598079765361
 20
-3.3908721348222417
 10
15.039689292713945
 20
-3.490742448483062
 10
15.044780505662528
 20
-3.590612762143882
 10
15.049871718611112
 20
-3.690483075804702
 10
15.054962931559697
 20
-3.7903533894655506
 10
15.06005414450828
 20
-3.8902237031263707
 10
15.065145357456863
 20
-3.990094016787191
 10
15.070236570405447
 20
-4.089964330448015
 10
15.07532778335403
 20
-4.189834644108839
 10
15.080418996302615
 20
-4.289704957769692
 10
15.085510209251199
 20
-4.389575271430517
 10
15.090601422199782
 20
-4.4894455850913415
 10
15.095692635148366
 20
-4.589315898752166
 10
15.100783848096949
 20
-4.689186212412991
 10
15.105875061045534
 20
-4.789056526073844
 10
15.110966273994118
 20
-4.888926839734668
 10
15.116057486942701
 20
-4.988797153395493
 10
15.121148699891284
 20
-5.088667467056317
 10
15.12623991283987
 20
-5.18853778071717
 10
15.131331125788453
 20
-5.288408094377995
 10
15.136422338737036
 20
-5.388278408038819
 10
15.14151355168562
 20
-5.488148721699644
 10
15.146604764634203
 20
-5.588019035360468
 10
15.151695977582788
 20
-5.687889349021321
 10
15.156787190531372
 20
-5.787759662682146
 10
15.161878403479955
 20
-5.8876299763429705
 10
15.166969616428538
 20
-5.987500290003795
 10
15.172060829377122
 20
-6.08737060366462
 10
15.177152042325707
 20
-6.1872409173254725
 10
15.18224325527429
 20
-6.287111230986297
 10
15.187334468222874
 20
-6.386981544647122
 10
15.192425681171457
 20
-6.486851858307946
 10
15.19751689412004
 20
-6.586722171968771
 10
15.202608107068626
 20
-6.686592485629624
 10
15.207699320017209
 20
-6.786462799290448
 10
15.212790532965792
 20
-6.886333112951273
 10
15.217881745914376
 20
-6.986203426612097
 10
15.22297295886296
 20
-7.086073740272922
 10
15.228064171811544
 20
-7.185944053933775
 10
15.233155384760128
 20
-7.285814367594599
 10
15.238246597708711
 20
-7.385684681255424
 10
15.243337810657295
 20
-7.4855549949162485
 10
15.248429023605878
 20
-7.585425308577073
 10
15.253520236554463
 20
-7.685295622237926
 10
15.258611449503046
 20
-7.785165935898751
 10
15.26370266245163
 20
-7.885036249559575
 10
15.268793875400213
 20
-7.9849065632204
 10
15.273885088348797
 20
-8.084776876881216
 10
15.278976301297382
 20
-8.18464719054206
 10
15.284067514245965
 20
-8.284517504202876
 10
15.289158727194549
 20
-8.384387817863692
 10
15.294249940143132
 20
-8.484258131524507
 10
15.299341153091715
 20
-8.584128445185323
 10
15.3044323660403
 20
-8.683998758846167
 10
15.309523578988884
 20
-8.783869072506983
 10
15.314614791937467
 20
-8.883739386167798
 10
15.31970600488605
 20
-8.983609699828614
 10
15.324797217834634
 20
-9.08348001348943
 10
15.32988843078322
 20
-9.183350327150274
 10
15.334979643731803
 20
-9.28322064081109
 10
15.340070856680386
 20
-9.383090954471905
 10
15.34516206962897
 20
-9.482961268132721
 10
15.350253282577553
 20
-9.582831581793537
 10
15.355344495526138
 20
-9.68270189545438
 10
15.360435708474721
 20
-9.782572209115196
 10
15.365526921423305
 20
-9.882442522776012
 10
15.370618134371888
 20
-9.982312836436828
 10
15.375709347320472
 20
-10.082183150097643
 10
15.380800560269057
 20
-10.182053463758487
 10
15.38589177321764
 20
-10.281923777419303
 10
15.390982986166224
 20
-10.381794091080119
 10
15.396074199114807
 20
-10.481664404740934
 10
15.40116541206339
 20
-10.58153471840175
 10
15.406256625011975
 20
-10.681405032062594
 10
15.411347837960559
 20
-10.78127534572341
 10
15.416439050909142
 20
-10.881145659384226
 10
15.421530263857726
 20
-10.981015973045041
 10
15.426621476806309
 20
-11.080886286705857
 10
15.431712689754894
 20
-11.180756600366701
 10
15.436803902703478
 20
-11.280626914027517
 10
15.441895115652061
 20
-11.380497227688332
 10
15.446986328600644
 20
-11.480367541349148
 10
15.452077541549228
 20
-11.580237855009964
 10
15.457168754497813
 20
-11.680108168670808
 10
15.462259967446396
 20
-11.779978482331623
 10
15.46735118039498
 20
-11.879848795992439
 10
15.472442393343563
 20
-11.979719109653255
 10
15.477533606292146
 20
-12.07958942331407
 10
15.482624819240732
 20
-12.179459736974914
 10
15.487716032189315
 20
-12.27933005063573
 10
15.492807245137898
 20
-12.379200364296546
 10
15.497898458086482
 20
-12.479070677957361
 10
15.502989671035065
 20
-12.578940991618177
 10
15.50808088398365
 20
-12.678811305279021
 10
15.513172096932234
 20
-12.778681618939837
 10
15.518263309880817
 20
-12.878551932600653
 10
15.5233545228294
 20
-12.978422246261468
 10
15.528445735777984
 20
-13.078292559922284
 10
15.533536948726569
 20
-13.178162873583128
 10
15.538628161675152
 20
-13.278033187243944
 10
15.543719374623736
 20
-13.37790350090476
 10
15.54881058757232
 20
-13.477773814565575
 10
15.553901800520903
 20
-13.57764412822639
 10
15.558993013469488
 20
-13.677514441887235
 10
15.564084226418071
 20
-13.77738475554805
 10
15.569175439366655
 20
-13.877255069208866
 10
15.574266652315238
 20
-13.977125382869682
 10
15.579357865263821
 20
-14.076995696530497
 10
15.584449078212407
 20
-14.176866010191342
 10
15.58954029116099
 20
-14.276736323852157
 10
15.594631504109573
 20
-14.376606637512973
 10
15.599722717058157
 20
-14.476476951173789
 10
15.60481393000674
 20
-14.576347264834604
 10
15.609905142955325
 20
-14.676217578495448
 10
15.614996355903909
 20
-14.776087892156264
 10
15.618560204967917
 20
-14.845997111718832
  0
ENDSEC
  0
SECTION
  2
OBJECTS
  0
DICTIONARY
  5
A
330
0
100
AcDbDictionary
281
1
  3
ACAD_COLOR
350
B
  3
ACAD_GROUP
350
C
  3
ACAD_LAYOUT
350
D
  3
ACAD_MATERIAL
350
E
  3
ACAD_MLEADERSTYLE
350
F
  3
ACAD_MLINESTYLE
350
10
  3
ACAD_PLOTSETTINGS
350
11
  3
ACAD_PLOTSTYLENAME
350
12
  3
ACAD_SCALELIST
350
14
  3
ACAD_TABLESTYLE
350
15
  3
ACAD_VISUALSTYLE
350
16
  3
EZDXF_META
350
2D
  0
DICTIONARY
  5
B
330
A
100
AcDbDictionary
281
1
  0
DICTIONARY
  5
C
330
A
100
AcDbDictionary
281
1
  0
DICTIONARY
  5
D
330
A
100
AcDbDictionary
281
1
  3
Model
350
1A
  3
Layout1
350
1E
  0
DICTIONARY
  5
E
330
A
100
AcDbDictionary
281
1
  3
ByBlock
350
1F
  3
ByLayer
350
20
  3
Global
350
21
  0
DICTIONARY
  5
F
330
A
100
AcDbDictionary
281
1
  3
Standard
350
2C
  0
DICTIONARY
  5
10
330
A
100
AcDbDictionary
281
1
  3
Standard
350
22
  0
DICTIONARY
  5
11
330
A
100
AcDbDictionary
281
1
  0
ACDBDICTIONARYWDFLT
  5
12
330
A
100
AcDbDictionary
281
1
  3
Normal
350
13
100
AcDbDictionaryWithDefault
340
13
  0
ACDBPLACEHOLDER
  5
13
330
12
  0
DICTIONARY
  5
14
330
A
100
AcDbDictionary
281
1
  0
DICTIONARY
  5
15
330
A
100
AcDbDictionary
281
1
  0
DICTIONARY
  5
16
330
A
100
AcDbDictionary
281
1
  0
LAYOUT
  5
1A
330
D
100
AcDbPlotSettings
  1

  4
A3
  6

 40
7.5
 41
20.0
 42
7.5
 43
20.0
 44
420.0
 45
297.0
 46
0.0
 47
0.0
 48
0.0
 49
0.0
140
0.0
141
0.0
142
1.0
143
1.0
 70
1024
 72
1
 73
0
 74
5
  7

 75
16
 76
0
 77
2
 78
300
147
1.0
148
0.0
149
0.0
100
AcDbLayout
  1
Model
 70
1
 71
0
 10
0.0
 20
0.0
 11
420.0
 21
297.0
 12
0.0
 22
0.0
 32
0.0
 14
1e+20
 24
1e+20
 34
1e+20
 15
-1e+20
 25
-1e+20
 35
-1e+20
146
0.0
 13
0.0
 23
0.0
 33
0.0
 16
1.0
 26
0.0
 36
0.0
 17
0.0
 27
1.0
 37
0.0
 76
1
330
17
  0
LAYOUT
  5
1E
330
D
100
AcDbPlotSettings
  1

  4
A3
  6

 40
7.5
 41
20.0
 42
7.5
 43
20.0
 44
420.0
 45
297.0
 46
0.0
 47
0.0
 48
0.0
 49
0.0
140
0.0
141
0.0
142
1.0
143
1.0
 70
0
 72
1
 73
0
 74
5
  7

 75
16
 76
0
 77
2
 78
300
147
1.0
148
0.0
149
0.0
100
AcDbLayout
  1
Layout1
 70
1
 71
1
 10
0.0
 20
0.0
 11
420.0
 21
297.0
 12
0.0
 22
0.0
 32
0.0
 14
1e+20
 24
1e+20
 34
1e+20
 15
-1e+20
 25
-1e+20
 35
-1e+20
146
0.0
 13
0.0
 23
0.0
 33
0.0
 16
1.0
 26
0.0
 36
0.0
 17
0.0
 27
1.0
 37
0.0
 76
1
330
1B
  0
MATERIAL
  5
1F
102
{ACAD_REACTORS
330
E
102
}
330
E
100
AcDbMaterial
  1
ByBlock
  2

 70
0
 40
1.0
 71
1
 41
1.0
 91
-1023410177
 42
1.0
 72
1
  3

 73
1
 74
1
 75
1
 44
0.5
 73
0
 45
1.0
 46
1.0
 77
1
  4

 78
1
 79
1
170
1
 48
1.0
171
1
  6

172
1
173
1
174
1
140
1.0
141
1.0
175
1
  7

176
1
177
1
178
1
143
1.0
179
1
  8

270
1
271
1
272
1
145
1.0
146
1.0
273
1
  9

274
1
275
1
276
1
 42
1.0
 72
1
  3

 73
1
 74
1
 75
1
 94
63
  0
MATERIAL
  5
20
102
{ACAD_REACTORS
330
E
102
}
330
E
100
AcDbMaterial
  1
ByLayer
  2

 70
0
 40
1.0
 71
1
 41
1.0
 91
-1023410177
 42
1.0
 72
1
  3

 73
1
 74
1
 75
1
 44
0.5
 73
0
 45
1.0
 46
1.0
 77
1
  4

 78
1
 79
1
170
1
 48
1.0
171
1
  6

172
1
173
1
174
1
140
1.0
141
1.0
175
1
  7

176
1
177
1
178
1
143
1.0
179
1
  8

270
1
271
1
272
1
145
1.0
146
1.0
273
1
  9

274
1
275
1
276
1
 42
1.0
 72
1
  3

 73
1
 74
1
 75
1
 94
63
  0
MATERIAL
  5
21
102
{ACAD_REACTORS
330
E
102
}
330
E
100
AcDbMaterial
  1
Global
  2

 70
0
 40
1.0
 71
1
 41
1.0
 91
-1023410177
 42
1.0
 72
1
  3

 73
1
 74
1
 75
1
 44
0.5
 73
0
 45
1.0
 46
1.0
 77
1
  4

 78
1
 79
1
170
1
 48
1.0
171
1
  6

172
1
173
1
174
1
140
1.0
141
1.0
175
1
  7

176
1
177
1
178
1
143
1.0
179
1
  8

270
1
271
1
272
1
145
1.0
146
1.0
273
1
  9

274
1
275
1
276
1
 42
1.0
 72
1
  3

 73
1
 74
1
 75
1
 94
63
  0
MLINESTYLE
  5
22
102
{ACAD_REACTORS
330
10
102
}
330
10
100
AcDbMlineStyle
  2
Standard
 70
0
  3

 62
256
 51
90.0
 52
90.0
 71
2
 49
0.5
 62
256
  6
BYLAYER
 49
-0.5
 62
256
  6
BYLAYER
  0
MLEADERSTYLE
  5
2C
102
{ACAD_REACTORS
330
F
102
}
330
F
100
AcDbMLeaderStyle
179
2
170
2
171
1
172
0
 90
2
 40
0.0
 41
0.0
173
1
 91
-1056964608
 92
-2
290
1
 42
2.0
291
1
 43
8.0
  3
Standard
 44
4.0
300

342
29
174
1
175
1
176
0
178
1
 93
-1056964608
 45
4.0
292
0
297
0
 46
4.0
 94
-1056964608
 47
1.0
 49
1.0
140
1.0
294
1
141
0.0
177
0
142
1.0
295
0
296
0
143
3.75
271
0
272
9
273
9
  0
DICTIONARY
  5
2D
330
A
100
AcDbDictionary
280
1
281
1
  3
CREATED_BY_EZDXF
350
2E
  3
WRITTEN_BY_EZDXF
350
33
  0
DICTIONARYVAR
  5
2E
330
2D
100
DictionaryVariables
280
0
  1
1.4.4 @ 2026-07-07T16:26:25.472734+00:00
  0
DICTIONARYVAR
  5
33
330
2D
100
DictionaryVariables
280
0
  1
1.4.4 @ 2026-07-07T16:26:25.482081+00:00
  0
ENDSEC
  0
EOF
