  0
SECTION
  2
HEADER
  9
$ACADVER
  1
AC1024
  9
$ACADMAINTVER
 70
6
  9
$DWGCODEPAGE
  3
ANSI_1252
  9
$LASTSAVEDBY
  1
ezdxf
  9
$INSBASE
 10
0.0
 20
0.0
 30
0.0
  9
$EXTMIN
 10
1e+20
 20
1e+20
 30
1e+20
  9
$EXTMAX
 10
-1e+20
 20
-1e+20
 30
-1e+20
  9
$LIMMIN
 10
0.0
 20
0.0
  9
$LIMMAX
 10
420.0
 20
297.0
  9
$ORTHOMODE
 70
0
  9
$REGENMODE
 70
1
  9
$FILLMODE
 70
1
  9
$QTEXTMODE
 70
0
  9
$MIRRTEXT
 70
1
  9
$LTSCALE
 40
1.0
  9
$ATTMODE
 70
1
  9
$TEXTSIZE
 40
2.5
  9
$TRACEWID
 40
1.0
  9
$TEXTSTYLE
  7
Standard
  9
$CLAYER
  8
0
  9
$CELTYPE
  6
ByLayer
  9
$CECOLOR
 62
256
  9
$CELTSCALE
 40
1.0
  9
$DISPSILH
 70
0
  9
$DIMSCALE
 40
1.0
  9
$DIMASZ
 40
2.5
  9
$DIMEXO
 40
0.625
  9
$DIMDLI
 40
3.75
  9
$DIMRND
 40
0.0
  9
$DIMDLE
 40
0.0
  9
$DIMEXE
 40
1.25
  9
$DIMTP
 40
0.0
  9
$DIMTM
 40
0.0
  9
$DIMTXT
 40
2.5
  9
$DIMCEN
 40
2.5
  9
$DIMTSZ
 40
0.0
  9
$DIMTOL
 70
0
  9
$DIMLIM
 70
0
  9
$DIMTIH
 70
0
  9
$DIMTOH
 70
0
  9
$DIMSE1
 70
0
  9
$DIMSE2
 70
0
  9
$DIMTAD
 70
1
  9
$DIMZIN
 70
8
  9
$DIMBLK
  1

  9
$DIMASO
 70
1
  9
$DIMSHO
 70
1
  9
$DIMPOST
  1

  9
$DIMAPOST
  1

  9
$DIMALT
 70
0
  9
$DIMALTD
 70
3
  9
$DIMALTF
 40
0.03937007874
  9
$DIMLFAC
 40
1.0
  9
$DIMTOFL
 70
1
  9
$DIMTVP
 40
0.0
  9
$DIMTIX
 70
0
  9
$DIMSOXD
 70
0
  9
$DIMSAH
 70
0
  9
$DIMBLK1
  1

  9
$DIMBLK2
  1

  9
$DIMSTYLE
  2
ISO-25
  9
$DIMCLRD
 70
0
  9
$DIMCLRE
 70
0
  9
$DIMCLRT
 70
0
  9
$DIMTFAC
 40
1.0
  9
$DIMGAP
 40
0.625
  9
$DIMJUST
 70
0
  9
$DIMSD1
 70
0
  9
$DIMSD2
 70
0
  9
$DIMTOLJ
 70
0
  9
$DIMTZIN
 70
8
  9
$DIMALTZ
 70
0
  9
$DIMALTTZ
 70
0
  9
$DIMUPT
 70
0
  9
$DIMDEC
 70
2
  9
$DIMTDEC
 70
2
  9
$DIMALTU
 70
2
  9
$DIMALTTD
 70
3
  9
$DIMTXSTY
  7
Standard
  9
$DIMAUNIT
 70
0
  9
$DIMADEC
 70
0
  9
$DIMALTRND
 40
0.0
  9
$DIMAZIN
 70
0
  9
$DIMDSEP
 70
44
  9
$DIMATFIT
 70
3
  9
$DIMFRAC
 70
0
  9
$DIMLDRBLK
  1

  9
$DIMLUNIT
 70
2
  9
$DIMLWD
 70
-2
  9
$DIMLWE
 70
-2
  9
$DIMTMOVE
 70
0
  9
$DIMFXL
 40
1.0
  9
$DIMFXLON
 70
0
  9
$DIMJOGANG
 40
0.785398163397
  9
$DIMTFILL
 70
0
  9
$DIMTFILLCLR
 70
0
  9
$DIMARCSYM
 70
0
  9
$DIMLTYPE
  6

  9
$DIMLTEX1
  6

  9
$DIMLTEX2
  6

  9
$DIMTXTDIRECTION
 70
0
  9
$LUNITS
 70
2
  9
$LUPREC
 70
4
  9
$SKETCHINC
 40
1.0
  9
$FILLETRAD
 40
10.0
  9
$AUNITS
 70
0
  9
$AUPREC
 70
2
  9
$MENU
  1
.
  9
$ELEVATION
 40
0.0
  9
$PELEVATION
 40
0.0
  9
$THICKNESS
 40
0.0
  9
$LIMCHECK
 70
0
  9
$CHAMFERA
 40
0.0
  9
$CHAMFERB
 40
0.0
  9
$CHAMFERC
 40
0.0
  9
$CHAMFERD
 40
0.0
  9
$SKPOLY
 70
0
  9
$TDCREATE
 40
2461229.685011574
  9
$TDUCREATE
 40
2458532.153996898
  9
$TDUPDATE
 40
2461229.685011574
  9
$TDUUPDATE
 40
2458532.1544311
  9
$TDINDWG
 40
0.0
  9
$TDUSRTIMER
 40
0.0
  9
$USRTIMER
 70
1
  9
$ANGBASE
 50
0.0
  9
$ANGDIR
 70
0
  9
$PDMODE
 70
0
  9
$PDSIZE
 40
0.0
  9
$PLINEWID
 40
0.0
  9
$SPLFRAME
 70
0
  9
$SPLINETYPE
 70
6
  9
$SPLINESEGS
 70
8
  9
$HANDSEED
  5
34
  9
$SURFTAB1
 70
6
  9
$SURFTAB2
 70
6
  9
$SURFTYPE
 70
6
  9
$SURFU
 70
6
  9
$SURFV
 70
6
  9
$UCSBASE
  2

  9
$UCSNAME
  2

  9
$UCSORG
 10
0.0
 20
0.0
 30
0.0
  9
$UCSXDIR
 10
1.0
 20
0.0
 30
0.0
  9
$UCSYDIR
 10
0.0
 20
1.0
 30
0.0
  9
$UCSORTHOREF
  2

  9
$UCSORTHOVIEW
 70
0
  9
$UCSORGTOP
 10
0.0
 20
0.0
 30
0.0
  9
$UCSORGBOTTOM
 10
0.0
 20
0.0
 30
0.0
  9
$UCSORGLEFT
 10
0.0
 20
0.0
 30
0.0
  9
$UCSORGRIGHT
 10
0.0
 20
0.0
 30
0.0
  9
$UCSORGFRONT
 10
0.0
 20
0.0
 30
0.0
  9
$UCSORGBACK
 10
0.0
 20
0.0
 30
0.0
  9
$PUCSBASE
  2

  9
$PUCSNAME
  2

  9
$PUCSORG
 10
0.0
 20
0.0
 30
0.0
  9
$PUCSXDIR
 10
1.0
 20
0.0
 30
0.0
  9
$PUCSYDIR
 10
0.0
 20
1.0
 30
0.0
  9
$PUCSORTHOREF
  2

  9
$PUCSORTHOVIEW
 70
0
  9
$PUCSORGTOP
 10
0.0
 20
0.0
 30
0.0
  9
$PUCSORGBOTTOM
 10
0.0
 20
0.0
 30
0.0
  9
$PUCSORGLEFT
 10
0.0
 20
0.0
 30
0.0
  9
$PUCSORGRIGHT
 10
0.0
 20
0.0
 30
0.0
  9
$PUCSORGFRONT
 10
0.0
 20
0.0
 30
0.0
  9
$PUCSORGBACK
 10
0.0
 20
0.0
 30
0.0
  9
$USERI1
 70
0
  9
$USERI2
 70
0
  9
$USERI3
 70
0
  9
$USERI4
 70
0
  9
$USERI5
 70
0
  9
$USERR1
 40
0.0
  9
$USERR2
 40
0.0
  9
$USERR3
 40
0.0
  9
$USERR4
 40
0.0
  9
$USERR5
 40
0.0
  9
$WORLDVIEW
 70
1
  9
$SHADEDGE
 70
3
  9
$SHADEDIF
 70
70
  9
$TILEMODE
 70
1
  9
$MAXACTVP
 70
64
  9
$PINSBASE
 10
0.0
 20
0.0
 30
0.0
  9
$PLIMCHECK
 70
0
  9
$PEXTMIN
 10
1e+20
 20
1e+20
 30
1e+20
  9
$PEXTMAX
 10
-1e+20
 20
-1e+20
 30
-1e+20
  9
$PLIMMIN
 10
0.0
 20
0.0
  9
$PLIMMAX
 10
420.0
 20
297.0
  9
$UNITMODE
 70
0
  9
$VISRETAIN
 70
1
  9
$PLINEGEN
 70
0
  9
$PSLTSCALE
 70
1
  9
$TREEDEPTH
 70
3020
  9
$CMLSTYLE
  2
Standard
  9
$CMLJUST
 70
0
  9
$CMLSCALE
 40
20.0
  9
$PROXYGRAPHICS
 70
1
  9
$MEASUREMENT
 70
1
  9
$CELWEIGHT
370
-1
  9
$ENDCAPS
280
0
  9
$JOINSTYLE
280
0
  9
$LWDISPLAY
290
0
  9
$INSUNITS
 70
6
  9
$HYPERLINKBASE
  1

  9
$STYLESHEET
  1

  9
$XEDIT
290
1
  9
$CEPSNTYPE
380
0
  9
$PSTYLEMODE
290
1
  9
$FINGERPRINTGUID
  2
{8595E264-4FE7-4FE6-8120-7B0A40F3287C}
  9
$VERSIONGUID
  2
{9DA29100-9A97-456E-AC62-2D627439CBB3}
  9
$EXTNAMES
290
1
  9
$PSVPSCALE
 40
0.0
  9
$OLESTARTUP
290
0
  9
$SORTENTS
280
127
  9
$INDEXCTL
280
0
  9
$HIDETEXT
280
1
  9
$XCLIPFRAME
280
1
  9
$HALOGAP
280
0
  9
$OBSCOLOR
 70
257
  9
$OBSLTYPE
280
0
  9
$INTERSECTIONDISPLAY
280
0
  9
$INTERSECTIONCOLOR
 70
257
  9
$DIMASSOC
280
2
  9
$PROJECTNAME
  1

  9
$CAMERADISPLAY
290
0
  9
$LENSLENGTH
 40
50.0
  9
$CAMERAHEIGHT
 40
0.0
  9
$STEPSPERSEC
 40
24.0
  9
$STEPSIZE
 40
100.0
  9
$3DDWFPREC
 40
2.0
  9
$PSOLWIDTH
 40
0.005
  9
$PSOLHEIGHT
 40
0.08
  9
$LOFTANG1
 40
1.570796326795
  9
$LOFTANG2
 40
1.570796326795
  9
$LOFTMAG1
 40
0.0
  9
$LOFTMAG2
 40
0.0
  9
$LOFTPARAM
 70
7
  9
$LOFTNORMALS
280
1
  9
$LATITUDE
 40
37.795
  9
$LONGITUDE
 40
-122.394
  9
$NORTHDIRECTION
 40
0.0
  9
$TIMEZONE
 70
-8000
  9
$LIGHTGLYPHDISPLAY
280
1
  9
$TILEMODELIGHTSYNCH
280
1
  9
$CMATERIAL
347
20
  9
$SOLIDHIST
280
0
  9
$SHOWHIST
280
1
  9
$DWFFRAME
280
2
  9
$DGNFRAME
280
2
  9
$REALWORLDSCALE
290
1
  9
$INTERFERECOLOR
 62
256
  9
$CSHADOW
280
0
  9
$SHADOWPLANELOCATION
 40
0.0
  0
ENDSEC
  0
SECTION
  2
CLASSES
  0
CLASS
  1
ACDBDICTIONARYWDFLT
  2
AcDbDictionaryWithDefault
  3
ObjectDBX Classes
 90
0
 91
0
280
0
281
0
  0
CLASS
  1
SUN
  2
AcDbSun
  3
SCENEOE
 90
1153
 91
0
280
0
281
0
  0
CLASS
  1
VISUALSTYLE
  2
AcDbVisualStyle
  3
ObjectDBX Classes
 90
4095
 91
0
280
0
281
0
  0
CLASS
  1
MATERIAL
  2
AcDbMaterial
  3
ObjectDBX Classes
 90
1153
 91
0
280
0
281
0
  0
CLASS
  1
SCALE
  2
AcDbScale
  3
ObjectDBX Classes
 90
1153
 91
0
280
0
281
0
  0
CLASS
  1
TABLESTYLE
  2
AcDbTableStyle
  3
ObjectDBX Classes
 90
4095
 91
0
280
0
281
0
  0
CLASS
  1
MLEADERSTYLE
  2
AcDbMLeaderStyle
  3
ACDB_MLEADERSTYLE_CLASS
 90
4095
 91
0
280
0
281
0
  0
CLASS
  1
DICTIONARYVAR
  2
AcDbDictionaryVar
  3
ObjectDBX Classes
 90
0
 91
0
280
0
281
0
  0
CLASS
  1
CELLSTYLEMAP
  2
AcDbCellStyleMap
  3
ObjectDBX Classes
 90
1152
 91
0
280
0
281
0
  0
CLASS
  1
MENTALRAYRENDERSETTINGS
  2
AcDbMentalRayRenderSettings
  3
SCENEOE
 90
1024
 91
0
280
0
281
0
  0
CLASS
  1
ACDBDETAILVIEWSTYLE
  2
AcDbDetailViewStyle
  3
ObjectDBX Classes
 90
1025
 91
0
280
0
281
0
  0
CLASS
  1
ACDBSECTIONVIEWSTYLE
  2
AcDbSectionViewStyle
  3
ObjectDBX Classes
 90
1025
 91
0
280
0
281
0
  0
CLASS
  1
RASTERVARIABLES
  2
AcDbRasterVariables
  3
ISM
 90
0
 91
0
280
0
281
0
  0
CLASS
  1
LAYOUT
  2
AcDbLayout
  3
ObjectDBX Classes
 90
0
 91
0
280
0
281
0
  0
CLASS
  1
ACDBPLACEHOLDER
  2
AcDbPlaceHolder
  3
ObjectDBX Classes
 90
0
 91
0
280
0
281
0
  0
ENDSEC
  0
SECTION
  2
TABLES
  0
TABLE
  2
VPORT
  5
8
330
0
100
AcDbSymbolTable
 70
1
  0
VPORT
  5
23
330
8
100
AcDbSymbolTableRecord
100
AcDbViewportTableRecord
  2
*Active
 70
0
 10
0.0
 20
0.0
 11
1.0
 21
1.0
 12
0.0
 22
0.0
 13
0.0
 23
0.0
 14
0.5
 24
0.5
 15
0.5
 25
0.5
 16
0.0
 26
0.0
 36
1.0
 17
0.0
 27
0.0
 37
0.0
 40
1000.0
 41
1.34
 42
50.0
 43
0.0
 44
0.0
 50
0.0
 51
0.0
 71
0
 72
1000
 73
1
 74
3
 75
0
 76
0
 77
0
 78
0
281
0
 65
0
146
0.0
  0
ENDTAB
  0
TABLE
  2
LTYPE
  5
2
330
0
100
AcDbSymbolTable
 70
3
  0
LTYPE
  5
24
330
2
100
AcDbSymbolTableRecord
100
AcDbLinetypeTableRecord
  2
ByBlock
 70
0
  3

 72
65
 73
0
 40
0.0
  0
LTYPE
  5
25
330
2
100
AcDbSymbolTableRecord
100
AcDbLinetypeTableRecord
  2
ByLayer
 70
0
  3

 72
65
 73
0
 40
0.0
  0
LTYPE
  5
26
330
2
100
AcDbSymbolTableRecord
100
AcDbLinetypeTableRecord
  2
Continuous
 70
0
  3

 72
65
 73
0
 40
0.0
  0
ENDTAB
  0
TABLE
  2
LAYER
  5
1
330
0
100
AcDbSymbolTable
 70
3
  0
LAYER
  5
27
330
1
100
AcDbSymbolTableRecord
100
AcDbLayerTableRecord
  2
0
 70
0
 62
7
  6
Continuous
370
-3
390
13
347
21
  0
LAYER
  5
28
330
1
100
AcDbSymbolTableRecord
100
AcDbLayerTableRecord
  2
Defpoints
 70
0
 62
7
  6
Continuous
290
0
370
-3
390
13
347
21
  0
LAYER
  5
2F
330
1
100
AcDbSymbolTableRecord
100
AcDbLayerTableRecord
  2
EJE_VIA
 70
0
 62
3
  6
Continuous
370
-3
390
13
347
21
  0
ENDTAB
  0
TABLE
  2
STYLE
  5
5
330
0
100
AcDbSymbolTable
 70
1
  0
STYLE
  5
29
330
5
100
AcDbSymbolTableRecord
100
AcDbTextStyleTableRecord
  2
Standard
 70
0
 40
0.0
 41
1.0
 50
0.0
 71
0
 42
2.5
  3
txt
  4

  0
ENDTAB
  0
TABLE
  2
VIEW
  5
7
330
0
100
AcDbSymbolTable
 70
0
  0
ENDTAB
  0
TABLE
  2
UCS
  5
6
330
0
100
AcDbSymbolTable
 70
0
  0
ENDTAB
  0
TABLE
  2
APPID
  5
3
330
0
100
AcDbSymbolTable
 70
3
  0
APPID
  5
2A
330
3
100
AcDbSymbolTableRecord
100
AcDbRegAppTableRecord
  2
ACAD
 70
0
  0
APPID
  5
31
330
3
100
AcDbSymbolTableRecord
100
AcDbRegAppTableRecord
  2
HATCHBACKGROUNDCOLOR
 70
0
  0
APPID
  5
32
330
3
100
AcDbSymbolTableRecord
100
AcDbRegAppTableRecord
  2
EZDXF
 70
0
  0
ENDTAB
  0
TABLE
  2
DIMSTYLE
  5
4
330
0
100
AcDbSymbolTable
 70
1
100
AcDbDimStyleTable
  0
DIMSTYLE
105
2B
330
4
100
AcDbSymbolTableRecord
100
AcDbDimStyleTableRecord
  2
Standard
 70
0
 40
1.0
 41
2.5
 42
0.625
 43
3.75
 44
1.25
 45
0.0
 46
0.0
 47
0.0
 48
0.0
 49
2.5
140
2.5
141
2.5
142
0.0
143
0.03937007874
144
1.0
145
0.0
146
1.0
147
0.625
148
0.0
 69
0
 70
0
 71
0
 72
0
 73
0
 74
0
 75
0
 76
0
 77
1
 78
8
 79
3
170
0
171
3
172
1
173
0
174
0
175
0
176
0
177
0
178
0
179
2
271
2
272
2
273
2
274
3
275
0
276
0
277
2
278
44
279
0
280
0
281
0
282
0
283
0
284
8
285
0
286
0
288
0
289
3
290
0
371
-2
372
-2
  0
ENDTAB
  0
TABLE
  2
BLOCK_RECORD
  5
9
330
0
100
AcDbSymbolTable
 70
2
  0
BLOCK_RECORD
  5
17
330
9
100
AcDbSymbolTableRecord
100
AcDbBlockTableRecord
  2
*Model_Space
340
1A
 70
0
280
1
281
0
  0
BLOCK_RECORD
  5
1B
330
9
100
AcDbSymbolTableRecord
100
AcDbBlockTableRecord
  2
*Paper_Space
340
1E
 70
0
280
1
281
0
  0
ENDTAB
  0
ENDSEC
  0
SECTION
  2
BLOCKS
  0
BLOCK
  5
18
330
17
100
AcDbEntity
  8
0
100
AcDbBlockBegin
  2
*Model_Space
 70
0
 10
0.0
 20
0.0
 30
0.0
  3
*Model_Space
  1

  0
ENDBLK
  5
19
330
17
100
AcDbEntity
  8
0
100
AcDbBlockEnd
  0
BLOCK
  5
1C
330
1B
100
AcDbEntity
  8
0
100
AcDbBlockBegin
  2
*Paper_Space
 70
0
 10
0.0
 20
0.0
 30
0.0
  3
*Paper_Space
  1

  0
ENDBLK
  5
1D
330
1B
100
AcDbEntity
  8
0
100
AcDbBlockEnd
  0
ENDSEC
  0
SECTION
  2
ENTITIES
  0
LWPOLYLINE
  5
30
330
17
100
AcDbEntity
  8
EJE_VIA
100
AcDbPolyline
 90
1310
 70
0
 10
0.0
 20
0.0
 10
0.1
 20
0.0
 10
0.2
 20
0.0
 10
0.30000000000000004
 20
0.0
 10
0.4
 20
0.0
 10
0.5
 20
0.0
 10
0.6000000000000001
 20
0.0
 10
0.7000000000000001
 20
0.0
 10
0.8
 20
0.0
 10
0.9
 20
0.0
 10
1.0
 20
0.0
 10
1.1
 20
0.0
 10
1.2000000000000002
 20
0.0
 10
1.3
 20
0.0
 10
1.4000000000000001
 20
0.0
 10
1.5
 20
0.0
 10
1.6
 20
0.0
 10
1.7000000000000002
 20
0.0
 10
1.8
 20
0.0
 10
1.9000000000000001
 20
0.0
 10
2.0
 20
0.0
 10
2.1
 20
0.0
 10
2.2
 20
0.0
 10
2.3000000000000003
 20
0.0
 10
2.4000000000000004
 20
0.0
 10
2.5
 20
0.0
 10
2.6
 20
0.0
 10
2.7
 20
0.0
 10
2.8000000000000003
 20
0.0
 10
2.9000000000000004
 20
0.0
 10
3.0
 20
0.0
 10
3.1
 20
0.0
 10
3.2
 20
0.0
 10
3.3000000000000003
 20
0.0
 10
3.4000000000000004
 20
0.0
 10
3.5
 20
0.0
 10
3.6
 20
0.0
 10
3.7
 20
0.0
 10
3.8000000000000003
 20
0.0
 10
3.9000000000000004
 20
0.0
 10
4.0
 20
0.0
 10
4.1000000000000005
 20
0.0
 10
4.2
 20
0.0
 10
4.3
 20
0.0
 10
4.4
 20
0.0
 10
4.5
 20
0.0
 10
4.6000000000000005
 20
0.0
 10
4.7
 20
0.0
 10
4.800000000000001
 20
0.0
 10
4.9
 20
0.0
 10
5.0
 20
0.0
 10
5.1000000000000005
 20
0.0
 10
5.2
 20
0.0
 10
5.300000000000001
 20
0.0
 10
5.4
 20
0.0
 10
5.5
 20
0.0
 10
5.6000000000000005
 20
0.0
 10
5.7
 20
0.0
 10
5.800000000000001
 20
0.0
 10
5.9
 20
0.0
 10
6.0
 20
0.0
 10
6.1000000000000005
 20
0.0
 10
6.2
 20
0.0
 10
6.300000000000001
 20
0.0
 10
6.4
 20
0.0
 10
6.5
 20
0.0
 10
6.6000000000000005
 20
0.0
 10
6.7
 20
0.0
 10
6.800000000000001
 20
0.0
 10
6.9
 20
0.0
 10
7.0
 20
0.0
 10
7.1000000000000005
 20
0.0
 10
7.2
 20
0.0
 10
7.300000000000001
 20
0.0
 10
7.4
 20
0.0
 10
7.5
 20
0.0
 10
7.6000000000000005
 20
0.0
 10
7.7
 20
0.0
 10
7.800000000000001
 20
0.0
 10
7.9
 20
0.0
 10
8.0
 20
0.0
 10
8.1
 20
0.0
 10
8.200000000000001
 20
0.0
 10
8.3
 20
0.0
 10
8.4
 20
0.0
 10
8.5
 20
0.0
 10
8.6
 20
0.0
 10
8.700000000000001
 20
0.0
 10
8.8
 20
0.0
 10
8.9
 20
0.0
 10
9.0
 20
0.0
 10
9.1
 20
0.0
 10
9.200000000000001
 20
0.0
 10
9.3
 20
0.0
 10
9.4
 20
0.0
 10
9.5
 20
0.0
 10
9.600000000000001
 20
0.0
 10
9.700000000000001
 20
0.0
 10
9.8
 20
0.0
 10
9.9
 20
0.0
 10
10.0
 20
0.0
 10
10.100000000000001
 20
0.0
 10
10.200000000000001
 20
0.0
 10
10.3
 20
0.0
 10
10.4
 20
0.0
 10
10.5
 20
0.0
 10
10.600000000000001
 20
0.0
 10
10.700000000000001
 20
0.0
 10
10.8
 20
0.0
 10
10.9
 20
0.0
 10
11.0
 20
0.0
 10
11.100000000000001
 20
0.0
 10
11.200000000000001
 20
0.0
 10
11.3
 20
0.0
 10
11.4
 20
0.0
 10
11.5
 20
0.0
 10
11.600000000000001
 20
0.0
 10
11.700000000000001
 20
0.0
 10
11.8
 20
0.0
 10
11.9
 20
0.0
 10
12.0
 20
0.0
 10
12.100000000000001
 20
0.0
 10
12.200000000000001
 20
0.0
 10
12.3
 20
0.0
 10
12.4
 20
0.0
 10
12.5
 20
0.0
 10
12.600000000000001
 20
0.0
 10
12.700000000000001
 20
0.0
 10
12.8
 20
0.0
 10
12.9
 20
0.0
 10
13.0
 20
0.0
 10
13.100000000000001
 20
0.0
 10
13.200000000000001
 20
0.0
 10
13.3
 20
0.0
 10
13.4
 20
0.0
 10
13.5
 20
0.0
 10
13.600000000000001
 20
0.0
 10
13.700000000000001
 20
0.0
 10
13.8
 20
0.0
 10
13.9
 20
0.0
 10
14.0
 20
0.0
 10
14.100000000000001
 20
0.0
 10
14.200000000000001
 20
0.0
 10
14.3
 20
0.0
 10
14.4
 20
0.0
 10
14.5
 20
0.0
 10
14.600000000000001
 20
0.0
 10
14.700000000000001
 20
0.0
 10
14.8
 20
0.0
 10
14.9
 20
0.0
 10
15.0
 20
0.0
 10
15.099999999995587
 20
6.979166666444199e-07
 10
15.199999999860532
 20
5.562499997220264e-06
 10
15.29999999894336
 20
1.87604166193995e-05
 10
15.399999995550925
 20
4.445833297982832e-05
 10
15.49999998642759
 20
8.682291498234696e-05
 10
15.599999966234376
 20
0.00015002082730068998
 10
15.699999927028145
 20
0.00023821873225715265
 10
15.799999857740755
 20
0.0003555832881587349
 10
15.899999743658238
 20
0.000506281146982233
 10
15.999999565899973
 20
0.0006944789512997904
 10
16.099999300897853
 20
0.0009243433303363991
 10
16.199998919875455
 20
0.0012000408950508187
 10
16.299998388327246
 20
0.001525738232131509
 10
16.39999766549775
 20
0.0019056018967988915
 10
16.499996703860774
 20
0.002343798404305633
 10
16.599995448598584
 20
0.0028444942200264146
 10
16.699993837081163
 20
0.003411855748028486
 10
16.799991798345424
 20
0.004050049318014949
 10
16.899989252574514
 20
0.00476324117053176
 10
16.999986110577062
 20
0.005555597440330438
 10
17.099982273266544
 20
0.006431284137777889
 10
17.1999776311406
 20
0.007394467128204546
 10
17.29997206376047
 20
0.008449312109083135
 10
17.39996543923042
 20
0.009599984584928745
 10
17.49995761367726
 20
0.010850649839812538
 10
17.59994843072992
 20
0.012205472907380562
 10
17.69993772099908
 20
0.013668618538268656
 10
17.799925301556897
 20
0.01524425116480643
 10
17.899910975416837
 20
0.016936534862900435
 10
17.999894531013584
 20
0.01874963331098965
 10
18.099875741683093
 20
0.02068770974596447
 10
18.19985436514275
 20
0.022754926915940436
 10
18.299830142971683
 20
0.024955447029780135
 10
18.39980280009123
 20
0.027293431703253233
 10
18.49977204424558
 20
0.02977304190172824
 10
18.599737565482606
 20
0.03239843787928759
 10
18.69969903563491
 20
0.03517377911415707
 10
18.799656107801074
 20
0.03810322424034406
 10
18.899608415827178
 20
0.041190930975374185
 10
18.99955557378857
 20
0.04444105604402087
 10
19.09949717547196
 20
0.04785775509791984
 10
19.199432793857767
 20
0.05144518263095952
 10
19.29936198060287
 20
0.05520749189034242
 10
19.399284265523665
 20
0.05914883478320935
 10
19.49919915607954
 20
0.06327336177871787
 10
19.5991061368568
 20
0.06758522180547162
 10
19.699004669052965
 20
0.07208856214418959
 10
19.798894189961608
 20
0.07678752831551215
 10
19.898774112457723
 20
0.08168626396283654
 10
19.99864382448355
 20
0.08678891073007326
 10
20.0985026885351
 20
0.09209960813422216
 10
20.1983500411492
 20
0.0976224934326569
 10
20.298185192391255
 20
0.10336170148501692
 10
20.39800742534369
 20
0.1093213646095996
 10
20.49781599559513
 20
0.11550561243414598
 10
20.597610130730402
 20
0.12191857174091981
 10
20.697389029821284
 20
0.12856436630596974
 10
20.797151862918213
 20
0.13544711673247528
 10
20.896897770542893
 20
0.14257094027807155
 10
20.996625863181837
 20
0.1499399506760455
 10
21.096335220781008
 20
0.157558257950308
 10
21.196024892241475
 20
0.16542996822403058
 10
21.295693894916248
 20
0.17355918352185154
 10
21.39534121410831
 20
0.18195000156554644
 10
21.494965802569833
 20
0.1906065155630591
 10
21.594566580002823
 20
0.1995328139907994
 10
21.69414243256105
 20
0.20873298036909776
 10
21.793692212353452
 20
0.21821109303072508
 10
21.893214736949076
 20
0.22797122488237462
 10
21.99270878888355
 20
0.23801744315900406
 10
22.09217311516726
 20
0.2483538091709483
 10
22.1916064267952
 20
0.2589843780436941
 10
22.291007398258653
 20
0.26991319845022943
 10
22.390374667058765
 20
0.281144312335866
 10
22.489706833222034
 20
0.2926817546354383
 10
22.589002458817877
 20
0.3045295529827907
 10
22.688260067478303
 20
0.3166917274124489
 10
22.787478143919806
 20
0.3291722900533913
 10
22.886655133467567
 20
0.3419752448148253
 10
22.985789441581996
 20
0.35510458706386916
 10
23.084879527909898
 20
0.3685636118089516
 10
23.18392420040509
 20
0.38235286145783626
 10
23.282922358572232
 20
0.3964721827967797
 10
23.381872902432814
 20
0.41092141894457995
 10
23.480774732537363
 20
0.42570040935431624
 10
23.579626749977667
 20
0.44080898981513716
 10
23.678427856399
 20
0.4562469924540814
 10
23.777176954012305
 20
0.4720142457379447
 10
23.8758729456064
 20
0.4881105744751869
 10
23.974514734560177
 20
0.5045357998178757
 10
24.073101224854767
 20
0.5212897392636773
 10
24.17163132108574
 20
0.5383722066578809
 10
24.27010392847526
 20
0.5557830121954682
 10
24.36851795288427
 20
0.5735219624232246
 10
24.466872300824612
 20
0.5915888602418845
 10
24.565165879471202
 20
0.6099835049083261
 10
24.663397596674198
 20
0.628705692037797
 10
24.761566360971067
 20
0.647755213606188
 10
24.859671081598783
 20
0.6671318579523455
 10
24.957710668505893
 20
0.6868354097804192
 10
25.055684032364677
 20
0.7068656501622594
 10
25.153590084583204
 20
0.7272223565398453
 10
25.25142773731745
 20
0.7479053027277591
 10
25.3491959034834
 20
0.7689142589157018
 10
25.446893496769096
 20
0.7902489916710411
 10
25.544519431646734
 20
0.8119092639414125
 10
25.642072623384703
 20
0.833894835057346
 10
25.739551988059652
 20
0.8562054607349434
 10
25.836956442568546
 20
0.8788408930785948
 10
25.93428490464066
 20
0.901800880583728
 10
26.03153629284964
 20
0.9250851681396083
 10
26.12870952662551
 20
0.9486934970321684
 10
26.22580352626667
 20
0.9726256049468847
 10
26.3228172129519
 20
0.9968812259716952
 10
26.419749508752346
 20
1.0214600905999474
 10
26.5165993366435
 20
1.0463619257334
 10
26.613365620517158
 20
1.0715864546852514
 10
26.710047285193372
 20
1.0971333971832158
 10
26.806643256432434
 20
1.1230024693726415
 10
26.903152460946757
 20
1.1491933838196577
 10
26.999573826412853
 20
1.1757058495143746
 10
27.095906281483195
 20
1.2025395718741119
 10
27.19214875579816
 20
1.2296942527466743
 10
27.28830017999793
 20
1.2571695904136668
 10
27.384359485734322
 20
1.2849652795938409
 10
27.48032560568271
 20
1.313081011446493
 10
27.576197473553872
 20
1.341516473574891
 10
27.671974024105793
 20
1.3702713500297468
 10
27.76765419315558
 20
1.3993453213127318
 10
27.863236917591223
 20
1.4287380643800172
 10
27.958721135383435
 20
1.458449252645873
 10
28.054105785597443
 20
1.4884785559862903
 10
28.14938980840478
 20
1.5188256407426508
 10
28.244572145095063
 20
1.5494901697254386
 10
28.33965173808776
 20
1.5804718022179782
 10
28.434627530943917
 20
1.6117701939802291
 10
28.529498468377934
 20
1.6433849972526042
 10
28.62426349626924
 20
1.6753158607598353
 10
28.718921561674083
 20
1.707562429714881
 10
28.81347161283713
 20
1.7401243458228604
 10
28.90791259920325
 20
1.7730012472850427
 10
29.00224347142911
 20
1.8061927688028596
 10
29.096463181394878
 20
1.8396985415819682
 10
29.19057068221587
 20
1.8735181933363514
 10
29.28456492825413
 20
1.907651348292446
 10
29.378444875130143
 20
1.9420976271933288
 10
29.47220947973433
 20
1.9768566473029208
 10
29.565857700238723
 20
2.011928022410243
 10
29.65938849610851
 20
2.0473113628337134
 10
29.75280082811358
 20
2.0830062754254675
 10
29.8460936583401
 20
2.1190123635757345
 10
29.939265950202024
 20
2.1553292272172375
 10
30.032316668452623
 20
2.191956462829641
 10
30.12524477919598
 20
2.2288936634440404
 10
30.218049249898495
 20
2.2661404186474736
 10
30.310729049400337
 20
2.3036963145874902
 10
30.40328314792691
 20
2.3415609339767425
 10
30.49571051710029
 20
2.379733856097625
 10
30.588010129950664
 20
2.4182146568069554
 10
30.680180960927714
 20
2.4570029085406735
 10
30.772221985912058
 20
2.4960981803186066
 10
30.86413218222658
 20
2.5355000377492467
 10
30.95591052864783
 20
2.5752080430345825
 10
31.047556005417345
 20
2.6152217549749657
 10
31.13906759425298
 20
2.655540728974006
 10
31.23044427836027
 20
2.696164517043521
 10
31.321685042443644
 20
2.737092667808505
 10
31.41278887271778
 20
2.7783247265121465
 10
31.50375475691883
 20
2.8198602350208866
 10
31.594581684315695
 20
2.8616987318295
 10
31.68526864572122
 20
2.9038397520662325
 10
31.77581463350343
 20
2.9462828274979582
 10
31.86621864159673
 20
2.989027486535388
 10
31.956479665513065
 20
3.032073254238302
 10
32.0465967023531
 20
3.075419652320841
 10
32.13656875081737
 20
3.119066199156802
 10
32.226394811217354
 20
3.1630124097850034
 10
32.31607388548663
 20
3.2072577959146686
 10
32.40560497719198
 20
3.251801865930847
 10
32.49498709154442
 20
3.2966441248998932
 10
32.58421923541025
 20
3.341784074574943
 10
32.67330041732213
 20
3.3872212134014634
 10
32.76222964749008
 20
3.432955036522825
 10
32.85100593781244
 20
3.4789850357859047
 10
32.939628301886906
 20
3.525310699746746
 10
33.02809575502145
 20
3.571931513676222
 10
33.11640731424527
 20
3.6188469595657704
 10
33.20456199831976
 20
3.6660565161331395
 10
33.2925588277493
 20
3.713559658828184
 10
33.38039682479228
 20
3.7613558598387047
 10
33.46807501347183
 20
3.809444588096287
 10
33.55559241958678
 20
3.8578253092822243
 10
33.64294807072239
 20
3.906497485833445
 10
33.73014099626122
 20
3.9554605769484854
 10
33.81717022739387
 20
4.00471403859351
 10
33.9040347971298
 20
4.054257323508337
 10
33.99073374030801
 20
4.104089881212532
 10
34.07726609360779
 20
4.154211158011525
 10
34.16363089555943
 20
4.204620597002749
 10
34.249827186554946
 20
4.255317638081854
 10
34.335854008858625
 20
4.306301717948901
 10
34.421710406617784
 20
4.357572270114638
 10
34.50739542587333
 20
4.409128724906791
 10
34.59290811457036
 20
4.46097050947639
 10
34.6782475225688
 20
4.513097047804143
 10
34.76341270165386
 20
4.56550776070683
 10
34.84840270554667
 20
4.6182020658437315
 10
34.93321658991471
 20
4.67117937772311
 10
35.01785341238235
 20
4.724439107708709
 10
35.102312232541344
 20
4.777980664026306
 10
35.186592111961204
 20
4.831803451770268
 10
35.270692114199704
 20
4.885906872910175
 10
35.35461130481324
 20
4.940290326297457
 10
35.438348751367236
 20
4.994953207672077
 10
35.521903523446476
 20
5.0498949096692565
 10
35.60527469266544
 20
5.105114821826202
 10
35.688461332678685
 20
5.1606123305889025
 10
35.77146251919106
 20
5.216386819318941
 10
35.854277329968
 20
5.2724376683003475
 10
35.93690484484582
 20
5.3287642547464955
 10
36.019344145741854
 20
5.385365952807
 10
36.10159431666473
 20
5.442242133574686
 10
36.18365444372449
 20
5.499392165092575
 10
36.26552361514279
 20
5.556815412360902
 10
36.347200921263024
 20
5.614511237344184
 10
36.4286854545604
 20
5.672478998978287
 10
36.50997630965205
 20
5.730718053177569
 10
36.5910725833071
 20
5.789227752842027
 10
36.67197337445667
 20
5.848007447864484
 10
36.75267778420391
 20
5.907056485137831
 10
36.833184915833975
 20
5.966374208562256
 10
36.91349387482403
 20
6.025959959052555
 10
36.99360376885313
 20
6.085813074545447
 10
37.07351370781216
 20
6.145932890006931
 10
37.15322280381373
 20
6.206318737439671
 10
37.23273017120206
 20
6.266969945890435
 10
37.31203492656274
 20
6.327885841457529
 10
37.39113618873265
 20
6.389065747298293
 10
37.470033078809706
 20
6.450508983636627
 10
37.548724720162596
 20
6.512214867770535
 10
37.627210238440576
 20
6.574182714079721
 10
37.705488761583105
 20
6.636411834033196
 10
37.783559419829636
 20
6.6989015361969315
 10
37.86142134572923
 20
6.761651126241549
 10
37.93907367415013
 20
6.8246599069500204
 10
38.01651554228953
 20
6.887927178225439
 10
38.09374608968302
 20
6.951452237098773
 10
38.1707644582142
 20
7.015234377736686
 10
38.24756979212422
 20
7.079272891449384
 10
38.32416123802123
 20
7.143567066698479
 10
38.400537944890004
 20
7.208116189104918
 10
38.476699064101226
 20
7.272919541456887
 10
38.552643749421016
 20
7.337976403717807
 10
38.62837115702035
 20
7.40328605303432
 10
38.70388044548432
 20
7.468847763744326
 10
38.779170775821655
 20
7.534660807385054
 10
38.854241311473864
 20
7.600724452701134
 10
38.92909121832468
 20
7.667037965652745
 10
39.003719664709244
 20
7.733600609423759
 10
39.07812582142334
 20
7.800411644429925
 10
39.15230886173269
 20
7.867470328327106
 10
39.22626796138203
 20
7.934775916019499
 10
39.30000229860434
 20
8.002327659667936
 10
39.37351105412999
 20
8.070124808698178
 10
39.44679341119578
 20
8.138166609809266
 10
39.51984855555404
 20
8.206452306981895
 10
39.59267567548171
 20
8.274981141486792
 10
39.66527396178932
 20
8.34375235189317
 10
39.737642607829976
 20
8.412765174077181
 10
39.80978080950836
 20
8.482018841230387
 10
39.88168776528965
 20
8.551512583868325
 10
39.9533626762084
 20
8.621245629839004
 10
40.02480474587745
 20
8.691217204331524
 10
40.09601318049676
 20
8.761426529884666
 10
40.16698718886223
 20
8.831872826395529
 10
40.23772598237451
 20
8.902555311128218
 10
40.30822877504772
 20
8.973473198722512
 10
40.378494783518235
 20
9.044625701202616
 10
40.44852322705333
 20
9.1160120279859
 10
40.51831332755993
 20
9.187631385891686
 10
40.587864309593186
 20
9.259482979150075
 10
40.65717540036512
 20
9.33156600941077
 10
40.72624582975321
 20
9.403879675751948
 10
40.79507483030898
 20
9.476423174689172
 10
40.86366163726641
 20
9.549195700184312
 10
40.93200548855064
 20
9.622196443654504
 10
41.0001056247862
 20
9.695424593981127
 10
41.06796128930563
 20
9.768879337518811
 10
41.135571728157785
 20
9.842559858104504
 10
41.20293619011626
 20
9.916465337066505
 10
41.270053926687744
 20
9.990594953233595
 10
41.33692419212029
 20
10.064947882944129
 10
41.40354624341165
 20
10.139523300055213
 10
41.46991934031748
 20
10.214320375951862
 10
41.536042745359616
 20
10.289338279556224
 10
41.601915723834225
 20
10.364576177336819
 10
41.66753754382002
 20
10.440033233317768
 10
41.73290747618633
 20
10.515708609088122
 10
41.79802479460124
 20
10.591601463811148
 10
41.86288877553967
 20
10.667710954233677
 10
41.92749869829139
 20
10.7440362346955
 10
41.99185384496903
 20
10.820576457138726
 10
42.05595350051607
 20
10.897330771117225
 10
42.119796952714765
 20
10.974298323806076
 10
42.18338349219408
 20
11.051478260011038
 10
42.24671241243759
 20
11.128869722178067
 10
42.30978300979125
 20
11.20647185040282
 10
42.37259458347132
 20
11.284283782440228
 10
42.43514643557205
 20
11.362304653714066
 10
42.497437871073494
 20
11.440533597326562
 10
42.55946819784925
 20
11.518969744068045
 10
42.62123672667411
 20
11.597612222426575
 10
42.682742771231716
 20
11.67646015859765
 10
42.743985648122205
 20
11.7555126764939
 10
42.80496467686979
 20
11.83476889775482
 10
42.865679179930325
 20
11.914227941756561
 10
42.92612848269887
 20
11.993888925621661
 10
42.98631191351712
 20
12.073750964228903
 10
43.046228803680904
 20
12.153813170223124
 10
43.105878487447605
 20
12.23407465402507
 10
43.16526030204358
 20
12.31453452384132
 10
43.2243735876715
 20
12.395191885674143
 10
43.2832176875177
 20
12.476045843331448
 10
43.341791947759454
 20
12.55709549843677
 10
43.40009571757222
 20
12.638339950439212
 10
43.45812834913697
 20
12.719778296623485
 10
43.51588919764725
 20
12.801409632119912
 10
43.57337762131648
 20
12.883233049914493
 10
43.63059298138498
 20
12.96524764085898
 10
43.68753464212709
 20
13.047452493680984
 10
43.74420197085831
 20
13.129846694994104
 10
43.80059433794223
 20
13.21242932930806
 10
43.85671111679757
 20
13.29519947903887
 10
43.912551683905136
 20
13.378156224519058
 10
43.96811541881475
 20
13.461298644007858
 10
44.023401704152164
 20
13.544625813701476
 10
44.07840992562588
 20
13.628136807743319
 10
44.13313947203402
 20
13.711830698234316
 10
44.18758973527106
 20
13.795706555243205
 10
44.241760110334646
 20
13.879763446816883
 10
44.29564999533226
 20
13.96400043899076
 10
44.34925879148798
 20
14.048416595799118
 10
44.402585903149074
 20
14.13301097928553
 10
44.45563073779259
 20
14.21778264951327
 10
44.50839270603204
 20
14.30273066457576
 10
44.560871221623884
 20
14.387854080607047
 10
44.613065701474035
 20
14.473151951792271
 10
44.66497556564436
 20
14.558623330378184
 10
44.716600237359145
 20
14.644267266683686
 10
44.76793914301143
 20
14.730082809110353
 10
44.818991712169485
 20
14.816069004153054
 10
44.86975737758305
 20
14.902224896410504
 10
44.92023557518971
 20
14.988549528595895
 10
44.97042574412111
 20
15.07504194154753
 10
45.02032732670923
 20
15.161701174239495
 10
45.06993976849254
 20
15.248526263792316
 10
45.11926251822223
 20
15.33551624548367
 10
45.16829502786822
 20
15.422670152759105
 10
45.21703675262537
 20
15.509987017242763
 10
45.26548715091947
 20
15.597465868748158
 10
45.313645684413245
 20
15.685105735288957
 10
45.36151181801238
 20
15.772905643089763
 10
45.40908501987142
 20
15.86086461659695
 10
45.45636476139973
 20
15.948981678489496
 10
45.50335051726737
 20
16.037255849689828
 10
45.55004176541083
 20
16.125686149374754
 10
45.596437987038954
 20
16.21427159498629
 10
45.64253866663866
 20
16.3030112022426
 10
45.68834329198062
 20
16.391903985148986
 10
45.73385135412506
 20
16.480948956008756
 10
45.779062347427285
 20
16.570145125434276
 10
45.82397576954339
 20
16.65949150235791
 10
45.86859112143583
 20
16.748987094043052
 10
45.91290790737892
 20
16.838630906095162
 10
45.9569256349644
 20
16.928421942472795
 10
46.00064381510684
 20
17.018359205498715
 10
46.044061962049135
 20
17.108441695870905
 10
46.087179593367885
 20
17.198668412673747
 10
46.12999622997873
 20
17.28903835338908
 10
46.172511396141715
 20
17.379550513907382
 10
46.214724619466544
 20
17.470203888538926
 10
46.25663543091785
 20
17.560997470024915
 10
46.29824336482035
 20
17.651930249548716
 10
46.33954795886411
 20
17.74300121674705
 10
46.38054875410963
 20
17.834209359721207
 10
46.42124529499293
 20
17.925553665048323
 10
46.461637129330626
 20
18.017033117792614
 10
46.501723808324996
 20
18.108646701516655
 10
46.54150488656891
 20
18.20039339829267
 10
46.58097992205079
 20
18.292272188713877
 10
46.62014847615953
 20
18.384282051905764
 10
46.65901011368938
 20
18.47642196553747
 10
46.697564402844776
 20
18.56869090583312
 10
46.7358109152451
 20
18.661087847583218
 10
46.773749614554376
 20
18.75361160524482
 10
46.8113829409536
 20
18.84625999224412
 10
46.848714346675735
 20
18.93903044684541
 10
46.88574730623244
 20
19.031920442185704
 10
46.92248531216355
 20
19.12492748747169
 10
46.95893187461112
 20
19.218049127600086
 10
46.99509052090062
 20
19.311282942773715
 10
47.03096479512922
 20
19.404626548113413
 10
47.06655825776112
 20
19.498077593265844
 10
47.101874485229786
 20
19.59163376200747
 10
47.13691706954712
 20
19.685292771844527
 10
47.1716896179194
 20
19.779052373609407
 10
47.206195752370064
 20
19.872910351053257
 10
47.24043910936896
 20
19.96686452043512
 10
47.2744233394684
 20
20.060912730107606
 10
47.30815210694561
 20
20.155052860099165
 10
47.34162908945161
 20
20.2492828216932
 10
47.374857977666494
 20
20.34360055700385
 10
47.40784247496101
 20
20.438004038548815
 10
47.440586297064236
 20
20.532491268819165
 10
47.47309317173745
 20
20.62706027984614
 10
47.50536683845403
 20
20.721709132765294
 10
47.537411048085254
 20
20.816435917377703
 10
47.569229562591985
 20
20.91123875170864
 10
47.600826154722185
 20
21.0061157815636
 10
47.63220460771404
 20
21.101065180081832
 10
47.66336871500468
 20
21.196085147287466
 10
47.69432227994453
 20
21.29117390963818
 10
47.72506911551696
 20
21.38632971957168
 10
47.75561304406331
 20
21.481550855049914
 10
47.78595789701324
 20
21.576835619101118
 10
47.81610751462011
 20
21.67218233935985
 10
47.8460657457015
 20
21.76758936760488
 10
47.875836447384714
 20
21.863055079295247
 10
47.90542348485712
 20
21.95857787310437
 10
47.93483073112125
 20
22.054156170452323
 10
47.964062066754714
 20
22.149788415036404
 10
47.9931213796746
 20
22.245473072359875
 10
48.02201256490638
 20
22.341208629259167
 10
48.050739524357304
 20
22.436993593429424
 10
48.07930616659402
 20
22.532826492948516
 10
48.10771640662447
 20
22.628705875799604
 10
48.13597416568382
 20
22.72463030939219
 10
48.16408337102455
 20
22.82059838008186
 10
48.192047955710365
 20
22.916608692688673
 10
48.21987185841388
 20
23.012659870014193
 10
48.247559023218166
 20
23.108750552357453
 10
48.27511339942182
 20
23.20487939702951
 10
48.30253894134763
 20
23.301045077867055
 10
48.32983960815462
 20
23.397246284744767
 10
48.35701936365344
 20
23.49348172308673
 10
48.38408217612496
 20
23.589750113376788
 10
48.41103201814203
 20
23.686050190667878
 10
48.437872866394244
 20
23.782380704090546
 10
48.464608701515594
 20
23.878740416360483
 10
48.491243507915016
 20
23.975128103285204
 10
48.51778127360962
 20
24.07154255327002
 10
48.544225990060525
 20
24.16798256682311
 10
48.57058165201123
 20
24.26444695605992
 10
48.59685225732836
 20
24.360934544206856
 10
48.62304180684478
 20
24.45744416510427
 10
48.6491543042049
 20
24.553974662708928
 10
48.67519375571203
 20
24.650524890595694
 10
48.70116417017783
 20
24.747093711458835
 10
48.727069558773586
 20
24.84367999661267
 10
48.752913934883274
 20
24.940282625491786
 10
48.77870131395837
 20
25.036900485150763
 10
48.80443571337423
 20
25.13353246976346
 10
48.830121152287894
 20
25.2301774801219
 10
48.85576165149733
 20
25.32683442313478
 10
48.88136123330197
 20
25.423502211325655
 10
48.90692392136434
 20
25.520179762330788
 10
48.93245374057277
 20
25.616865998396673
 10
48.95795471690517
 20
25.713559845877402
 10
48.9834308772935
 20
25.810260234731725
 10
49.00888624948913
 20
25.906966098019943
 10
49.03432486192873
 20
26.003676371400605
 10
49.059750743600794
 20
26.10038999262707
 10
49.08516792391256
 20
26.197105901043987
 10
49.11058043255727
 20
26.293823037083644
 10
49.13599189330474
 20
26.39054044845657
 10
49.161403350059324
 20
26.48725786087859
 10
49.186814806813906
 20
26.58397527330061
 10
49.21222626356849
 20
26.68069268572263
 10
49.23763772032307
 20
26.777410098144653
 10
49.263049177077654
 20
26.874127510566666
 10
49.28846063383224
 20
26.970844922988686
 10
49.31387209058682
 20
27.067562335410706
 10
49.3392835473414
 20
27.164279747832726
 10
49.364695004095985
 20
27.26099716025475
 10
49.39010646085057
 20
27.357714572676763
 10
49.41551791760515
 20
27.454431985098783
 10
49.44092937435973
 20
27.551149397520803
 10
49.466340831114316
 20
27.647866809942823
 10
49.4917522878689
 20
27.744584222364846
 10
49.51716374462348
 20
27.84130163478686
 10
49.54257520137807
 20
27.938019047208876
 10
49.56798665813265
 20
28.034736459630874
 10
49.59339811488723
 20
28.131453872052877
 10
49.61880957164181
 20
28.22817128447489
 10
49.644221028396395
 20
28.324888696896892
 10
49.669632485150984
 20
28.42160610931891
 10
49.69504394190556
 20
28.518323521740907
 10
49.72045539866014
 20
28.61504093416291
 10
49.745866855414725
 20
28.711758346584922
 10
49.77127831216931
 20
28.808475759006924
 10
49.7966897689239
 20
28.90519317142894
 10
49.82210122567847
 20
29.00191058385094
 10
49.847512682433056
 20
29.098627996272942
 10
49.87292413918764
 20
29.195345408694955
 10
49.89833559594222
 20
29.292062821116957
 10
49.92374705269681
 20
29.388780233538974
 10
49.94915850945139
 20
29.485497645960972
 10
49.97456996620597
 20
29.582215058382975
 10
49.99998142296055
 20
29.678932470804988
 10
50.025392879715135
 20
29.77564988322699
 10
50.050804336469724
 20
29.872367295649006
 10
50.0762157932243
 20
29.969084708071005
 10
50.10162724997888
 20
30.065802120493007
 10
50.127038706733465
 20
30.16251953291502
 10
50.15245016348805
 20
30.259236945337022
 10
50.17786162024264
 20
30.35595435775904
 10
50.20327307699721
 20
30.452671770181038
 10
50.228684533751796
 20
30.54938918260304
 10
50.25409599050638
 20
30.646106595025053
 10
50.27950744726096
 20
30.742824007447055
 10
50.30491890401555
 20
30.83954141986907
 10
50.33033036077013
 20
30.93625883229107
 10
50.35574181752471
 20
31.032976244713073
 10
50.38115327427929
 20
31.129693657135086
 10
50.406564731033875
 20
31.226411069557088
 10
50.431976187788464
 20
31.323128481979104
 10
50.45738764454304
 20
31.419845894401103
 10
50.48279910129762
 20
31.516563306823105
 10
50.508210558052205
 20
31.613280719245118
 10
50.53362201480679
 20
31.70999813166712
 10
50.55903347156138
 20
31.806715544089137
 10
50.58444492831595
 20
31.903432956511136
 10
50.609856385070536
 20
32.000150368933134
 10
50.63526784182512
 20
32.09686778135517
 10
50.66067970465659
 20
32.19358508708291
 10
50.68609495952838
 20
32.29030150149704
 10
50.7115176322041
 20
32.38701596631958
 10
50.736951752196475
 20
32.48372742129631
 10
50.76240134864182
 20
32.58043480474213
 10
50.787870450167055
 20
32.677137053037484
 10
50.81336308475636
 20
32.773833100124946
 10
50.83888327961728
 20
32.87052187700579
 10
50.86443506104626
 20
32.96720231123692
 10
50.89002245429346
 20
33.063873326427796
 10
50.915649483426726
 20
33.160533841737696
 10
50.941320171194626
 20
33.257182771373294
 10
50.96703853888848
 20
33.35381902408623
 10
50.99280860620323
 20
33.45044150267133
 10
51.01863439109713
 20
33.547049103464985
 10
51.04451990964995
 20
33.64364071584379
 10
51.07046917591994
 20
33.74021522172388
 10
51.09648620179905
 20
33.83677149506039
 10
51.12257499686659
 20
33.93330840134757
 10
51.14873956824112
 20
34.029824797119254
 10
51.17498392043046
 20
34.12631952944995
 10
51.20131205517973
 20
34.222791435456465
 10
51.22772797131732
 20
34.31923934180002
 10
51.2542356645987
 20
34.415662064189135
 10
51.28083912754798
 20
34.51205840688313
 10
51.30754234929693
 20
34.60842716219613
 10
51.3343493154218
 20
34.704767110002145
 10
51.361264007777294
 20
34.80107701724058
 10
51.38829040432798
 20
34.897355637422756
 10
51.41543247897689
 20
34.993601710139174
 10
51.442694201391234
 20
35.08981396056764
 10
51.47007953682509
 20
35.185991098982434
 10
51.49759244593904
 20
35.282131820264304
 10
51.5252368846166
 20
35.37823480341147
 10
51.55301680377734
 20
35.47429871105181
 10
51.58093614918661
 20
35.57032218895589
 10
51.60899886126183
 20
35.666303865551384
 10
51.63720887487505
 20
35.76224235143848
 10
51.66557011915197
 20
35.85813623890659
 10
51.694086517267095
 20
35.953984101452356
 10
51.722761986234936
 20
36.04978449329883
 10
51.7516004366974
 20
36.14553594891625
 10
51.780605772706856
 20
36.24123698254399
 10
51.809781891505246
 20
36.33688608771419
 10
51.83913268329877
 20
36.432481736776815
 10
51.86866203102818
 20
36.52802238042621
 10
51.89837381013481
 20
36.623506447229495
 10
51.928271888321724
 20
36.718932343156425
 10
51.95836012531048
 20
36.81429845111118
 10
51.98864237259295
 20
36.909603130465925
 10
52.01912247317837
 20
37.00484471659608
 10
52.04980426133549
 20
37.10002152041778
 10
52.08069156232961
 20
37.19513182792716
 10
52.11178819215447
 20
37.290173899741774
 10
52.143097957259045
 20
37.38514597064407
 10
52.17462465426891
 20
37.48004624912713
 10
52.206372069702304
 20
37.57487291694274
 10
52.23834397968054
 20
37.66962412865157
 10
52.270544149633096
 20
37.76429801117607
 10
52.302976333996824
 20
37.858892663355654
 10
52.33564427590947
 20
37.953406155504425
 10
52.36855170689747
 20
38.047836528971715
 10
52.40170234655761
 20
38.14218179570518
 10
52.43509990223291
 20
38.236439937816776
 10
52.468748068682274
 20
38.330608907151664
 10
52.502650527743995
 20
38.42468662485991
 10
52.53681094799307
 20
38.51867098097152
 10
52.571232984392104
 20
38.6125598339743
 10
52.60592027793584
 20
38.70635101039522
 10
52.64087645528926
 20
38.80004230438496
 10
52.67610512841899
 20
38.89363147730588
 10
52.711609894218164
 20
38.987116257323656
 10
52.74739433412456
 20
39.080494339002314
 10
52.7834620137319
 20
39.17376338290305
 10
52.81981648239436
 20
39.266921015187016
 10
52.85646127282404
 20
39.35996482722181
 10
52.89339990068159
 20
39.45289237519209
 10
52.93063586415954
 20
39.54570117971432
 10
52.9681726435588
 20
39.63838872545575
 10
53.00601370085758
 20
39.73095246075777
 10
53.044162091322356
 20
39.82338995781279
 10
53.08261839045801
 20
39.91569978184226
 10
53.12138217479137
 20
40.007880905613426
 10
53.16045301361413
 20
40.099932304892555
 10
53.19983047280624
 20
40.19185295688725
 10
53.23951411484081
 20
40.28364184025789
 10
53.27950349878888
 20
40.37529793512896
 10
53.319798180324355
 20
40.46682022310032
 10
53.360397711729
 20
40.55820768725862
 10
53.4013016418973
 20
40.649459312188505
 10
53.44250951634157
 20
40.740574083983994
 10
53.484020877196976
 20
40.83155099025968
 10
53.525835263226575
 20
40.92238902016195
 10
53.56795220982654
 20
41.01308716438031
 10
53.610371249031196
 20
41.103644415158534
 10
53.65309190951835
 20
41.1940597663059
 10
53.69611371661443
 20
41.284332213208316
 10
53.73943619229978
 20
41.37446075283949
 10
53.78305885521404
 20
41.46444438377218
 10
53.82698122066135
 20
41.55428210618914
 10
53.87120280061593
 20
41.64397292189443
 10
53.915723103727345
 20
41.73351583432432
 10
53.960541635325995
 20
41.82290984855848
 10
54.005657897428684
 20
41.912153971331044
 10
54.05107138874404
 20
42.001247211041516
 10
54.096781604678206
 20
42.09018857776596
 10
54.14278803734036
 20
42.178977083267874
 10
54.18909017554839
 20
42.267611741009205
 10
54.235687504834566
 20
42.35609156616137
 10
54.28257950745127
 20
42.44441557561607
 10
54.329765662376715
 20
42.53258278799635
 10
54.377245445320796
 20
42.62059222366743
 10
54.42501832873084
 20
42.70844290474759
 10
54.47308378179755
 20
42.796133855119066
 10
54.52144127046081
 20
42.883664100438835
 10
54.5700902574157
 20
42.971032668149554
 10
54.61903020211841
 20
43.05823858749026
 10
54.66826056079228
 20
43.14528088950715
 10
54.717780786433835
 20
43.23215860706448
 10
54.76759032881887
 20
43.31887077485512
 10
54.817688634508514
 20
43.40541642941146
 10
54.868075146855446
 20
43.49179460911602
 10
54.918749306010056
 20
43.5780043542121
 10
54.96971054892665
 20
43.66404470681456
 10
55.020958309369725
 20
43.74991471092034
 10
55.072492017920226
 20
43.83561341241921
 10
55.12431110198195
 20
43.92113985910422
 10
55.17641498578781
 20
44.00649310068241
 10
55.22880309040631
 20
44.0916721887853
 10
55.28147483374793
 20
44.176676176979456
 10
55.33442963057163
 20
44.261504120777
 10
55.38766689249132
 20
44.3461550776461
 10
55.44118602798238
 20
44.430628107021434
 10
55.494986442388345
 20
44.51492227031468
 10
55.54906753792737
 20
44.59903663092484
 10
55.60342871369895
 20
44.6829702542488
 10
55.65806936569061
 20
44.76672220769163
 10
55.712988886784515
 20
44.85029156067689
 10
55.76818666676436
 20
44.9336773846571
 10
55.82366209232201
 20
45.01687875312395
 10
55.879414547064435
 20
45.099894741618655
 10
55.9354434115205
 20
45.182724427742194
 10
55.99174806314783
 20
45.26536689116556
 10
56.048327876339776
 20
45.347821213640046
 10
56.105182222432326
 20
45.43008647900732
 10
56.16231046971109
 20
45.51216177320974
 10
56.219711983418364
 20
45.59404618430045
 10
56.27738612576016
 20
45.67573880245349
 10
56.33533225591325
 20
45.757238719973955
 10
56.39354973003234
 20
45.838545031308016
 10
56.45203790125721
 20
45.91965683305307
 10
56.510796119719885
 20
46.00057322396773
 10
56.56982373255189
 20
46.08129330498178
 10
56.62912008389146
 20
46.161816179206276
 10
56.688684514890845
 20
46.24214095194345
 10
56.74851636372366
 20
46.32226673069665
 10
56.80861496559219
 20
46.402192625180284
 10
56.86897965273481
 20
46.48191774732966
 10
56.92960975443341
 20
46.56144121131092
 10
56.9905045970208
 20
46.640762133530814
 10
57.051663503888264
 20
46.71987963264661
 10
57.11308579549302
 20
46.79879282957579
 10
57.174770789365766
 20
46.87750084750585
 10
57.23671780011833
 20
46.95600281190408
 10
57.29892613945125
 20
47.034297850527224
 10
57.36139511616137
 20
47.11238509343123
 10
57.424124036149614
 20
47.19026367298087
 10
57.487112202428605
 20
47.26793272385937
 10
57.550358915130495
 20
47.345391383078116
 10
57.61386347151466
 20
47.4226387899861
 10
57.67762516597559
 20
47.499674086279605
 10
57.74164329005066
 20
47.5764964160117
 10
57.80591713242804
 20
47.65310492560174
 10
57.870445978954606
 20
47.72949876384484
 10
57.9352291126438
 20
47.80567708192133
 10
58.00026581368372
 20
47.88163903340628
 10
58.06555535944503
 20
47.957383774278775
 10
58.13109702448898
 20
48.03291046293135
 10
58.19689008057554
 20
48.10821826017938
 10
58.262933796671426
 20
48.183306329270316
 10
58.32922743895824
 20
48.25817383589305
 10
58.395770270840664
 20
48.332819948187186
 10
58.46256155295456
 20
48.40724383675222
 10
58.52960054317525
 20
48.48144467465684
 10
58.59688649662579
 20
48.555421637448056
 10
58.66441866568514
 20
48.62917390316036
 10
58.73219629999656
 20
48.702700652324914
 10
58.80021864647593
 20
48.77600106797856
 10
58.86848494932012
 20
48.84907433567301
 10
58.93699445001532
 20
48.92191964348383
 10
59.00574638734557
 20
48.99453618201944
 10
59.074739997401174
 20
49.06692314443019
 10
59.14397451358716
 20
49.13907972641721
 10
59.21344916663186
 20
49.21100512624146
 10
59.28316318459539
 20
49.282698544732575
 10
59.35311579287824
 20
49.35415918529773
 10
59.42330621422998
 20
49.42538625393057
 10
59.49373366875772
 20
49.49637895921993
 10
59.56439737393492
 20
49.567136512358715
 10
59.635296544610036
 20
49.63765812715262
 10
59.70643039301522
 20
49.707943020028864
 10
59.777798128775146
 20
49.77799041004493
 10
59.84939895891565
 20
49.84779951889719
 10
59.92123208787274
 20
49.91736957092961
 10
59.99329671750125
 20
49.98669979314232
 10
60.06559204708381
 20
50.055789415200245
 10
60.138117273339766
 20
50.12463766944161
 10
60.21087159043397
 20
50.19324379088653
 10
60.283854189985895
 20
50.26160701724547
 10
60.3570642610785
 20
50.32972658892773
 10
60.43050099026732
 20
50.397601749049876
 10
60.50416356158945
 20
50.46523174344417
 10
60.57805115657263
 20
50.53261582066691
 10
60.65216295424434
 20
50.59975323200685
 10
60.726498131140914
 20
50.666643231493396
 10
60.80105586131671
 20
50.73328507590507
 10
60.87583531635331
 20
50.799678024777606
 10
60.9508356653686
 20
50.865821340412225
 10
61.02605607502618
 20
50.93171428788391
 10
61.10149570954445
 20
50.99735613504948
 10
61.17715373070606
 20
51.062746152555725
 10
61.25302929786711
 20
51.12788361384759
 10
61.329121567966496
 20
51.19276779517617
 10
61.40542969553537
 20
51.257397975606786
 10
61.48195283270639
 20
51.321773437026984
 10
61.558690129223294
 20
51.38589346415452
 10
61.635640732450234
 20
51.44975734454531
 10
61.71280378738129
 20
51.513364368601344
 10
61.79017843665001
 20
51.57671382957856
 10
61.86776382053883
 20
51.63980502359471
 10
61.94555907698874
 20
51.70263724963716
 10
62.02356334160883
 20
51.76520980957074
 10
62.10177574768579
 20
51.82752200814542
 10
62.18019542619375
 20
51.88957315300408
 10
62.258821505803716
 20
51.95136255469018
 10
62.337653112893406
 20
52.01288952665545
 10
62.41668937155689
 20
52.07415338526753
 10
62.49592940361431
 20
52.13515344981747
 10
62.57537232862171
 20
52.19588904252743
 10
62.6550172638807
 20
52.256359488558104
 10
62.73486332444841
 20
52.31656411601626
 10
62.814909623147216
 20
52.37650225596223
 10
62.89515527057459
 20
52.4361732424173
 10
62.97559937511308
 20
52.495576412371115
 10
63.05624104294011
 20
52.55471110578906
 10
63.13707937803799
 20
52.61357666561959
 10
63.218113482203826
 20
52.67217243780156
 10
63.2993424550595
 20
52.73049777127141
 10
63.38076539406174
 20
52.78855201797049
 10
63.46238139451203
 20
52.84633453285221
 10
63.544189549566774
 20
52.903844673889225
 10
63.62618895024732
 20
52.961081802080564
 10
63.70837868545004
 20
53.01804528145872
 10
63.79075784195653
 20
53.07473447909672
 10
63.873325504443635
 20
53.131148765115185
 10
63.95608075549375
 20
53.187287512689295
 10
64.03902267560497
 20
53.24315009805577
 10
64.1221503432012
 20
53.29873590051977
 10
64.20546283464259
 20
53.35404430246188
 10
64.2889592242356
 20
53.40907468934483
 10
64.37263858424348
 20
53.463826449720436
 10
64.4564999848964
 20
53.51829897523642
 10
64.54054249440188
 20
53.572491660643024
 10
64.62476517895514
 20
53.626403903799854
 10
64.70916710274942
 20
53.68003510568254
 10
64.79374732798645
 20
53.733384670389405
 10
64.87850491488683
 20
53.78645200514804
 10
64.96343892170044
 20
53.839236520321954
 10
65.04854840471698
 20
53.89173762941708
 10
65.13383241827638
 20
53.94395474908829
 10
65.21929001477936
 20
53.995887299145906
 10
65.30492024469801
 20
54.04753470256213
 10
65.39072215658615
 20
54.09889638547746
 10
65.47669479709015
 20
54.14997177720706
 10
65.56283721095929
 20
54.200760310247084
 10
65.64914844105654
 20
54.25126142028102
 10
65.73562752836914
 20
54.30147454618596
 10
65.82227351201918
 20
54.35139913003879
 10
65.90908542927443
 20
54.40103461712245
 10
65.99606231555892
 20
54.45038045593199
 10
66.08320320446369
 20
54.49943609818086
 10
66.17050712775752
 20
54.548200998806855
 10
66.25797311539772
 20
54.59667461597826
 10
66.34560019554094
 20
54.64485641109983
 10
66.43338739455379
 20
54.69274584881875
 10
66.52133373702388
 20
54.74034239703068
 10
66.60943824577053
 20
54.787645526885576
 10
66.69769994185567
 20
54.83465471279357
 10
66.78611784459471
 20
54.88136943243088
 10
66.87469097156738
 20
54.927789166745505
 10
66.96341833862876
 20
54.97391339996316
 10
67.05229895992012
 20
55.01974161959279
 10
67.1413318478799
 20
55.06527331643245
 10
67.23051601325474
 20
55.11050798457487
 10
67.31985046511035
 20
55.155445121413074
 10
67.40933421084267
 20
55.20008422764601
 10
67.49896625618877
 20
55.24442480728407
 10
67.58874560523792
 20
55.28846636765459
 10
67.67867126044277
 20
55.33220841940737
 10
67.76874222263025
 20
55.37565047652005
 10
67.85895749101284
 20
55.41879205630357
 10
67.94931606319962
 20
55.46163267940747
 10
68.0398169352073
 20
55.504171869825285
 10
68.13045910147166
 20
55.54640915489976
 10
68.22124155485842
 20
55.58834406532819
 10
68.31216328667458
 20
55.62997613516753
 10
68.40322328667962
 20
55.67130490183967
 10
68.4944205430967
 20
55.712329906136496
 10
68.5857540426239
 20
55.753050692225074
 10
68.67722277044554
 20
55.793466807652635
 10
68.76882571024329
 20
55.83357780335163
 10
68.86056184420772
 20
55.87338323364479
 10
68.95243015304935
 20
55.91288265624991
 10
69.04442961601016
 20
55.95207563228496
 10
69.13655921087481
 20
55.99096172627281
 10
69.22881791398213
 20
56.02954050614615
 10
69.32120470023634
 20
56.06781154325229
 10
69.41371854311855
 20
56.105774412357846
 10
69.50635841469813
 20
56.143428691653575
 10
69.59912328564408
 20
56.18077396275897
 10
69.69201212523666
 20
56.217809810726976
 10
69.78502390137852
 20
56.25453582404853
 10
69.87815758060647
 20
56.290951594657216
 10
69.97141212810284
 20
56.32705671793372
 10
70.06478650770687
 20
56.362850792710375
 10
70.15827968192649
 20
56.398333421275616
 10
70.25189061194958
 20
56.433504209378384
 10
70.34561825765566
 20
56.4683627662325
 10
70.43946157762745
 20
56.50290870452103
 10
70.53341952916229
 20
56.53714164040055
 10
70.62749106828399
 20
56.571061193505486
 10
70.72167514975412
 20
56.604666986952246
 10
70.81597072708387
 20
56.637958647343474
 10
70.91037675254559
 20
56.67093580477219
 10
71.00489217718443
 20
56.70359809282585
 10
71.09951595082994
 20
56.73594514859049
 10
71.19424702210786
 20
56.76797661265471
 10
71.2890843384517
 20
56.799692129113666
 10
71.38402684611448
 20
56.83109134557309
 10
71.47907349018038
 20
56.86217391315309
 10
71.5742232145766
 20
56.892939486492146
 10
71.66947496208498
 20
56.923387723750864
 10
71.76482767435368
 20
56.95351828661581
 10
71.86028029190916
 20
56.983330840303275
 10
71.9558317541677
 20
57.01282505356294
 10
72.05148099944743
 20
57.04200059868166
 10
72.14722696497996
 20
57.070857151487
 10
72.24306858692215
 20
57.099394391350884
 10
72.33900480036812
 20
57.127612001193164
 10
72.43503453936088
 20
57.155509667485134
 10
72.53115673690435
 20
57.18308708025301
 10
72.62737032497513
 20
57.210343933081376
 10
72.7236742345343
 20
57.2372799231166
 10
72.82006739553941
 20
57.2638947510702
 10
72.91654873695636
 20
57.29018812122209
 10
73.01311718677123
 20
57.316159741424016
 10
73.10977167200225
 20
57.341809323102694
 10
73.20651111871163
 20
57.367136581263004
 10
73.3033344520177
 20
57.39214123449125
 10
73.40024059610657
 20
57.41682300495821
 10
73.49722847424432
 20
57.44118161842225
 10
73.5942970087889
 20
57.46521680423234
 10
73.69144512120201
 20
57.48892829533112
 10
73.7886717320612
 20
57.512315828257826
 10
73.88597576107176
 20
57.5353791431512
 10
73.98335612707882
 20
57.55811798375243
 10
74.08081174807933
 20
57.58053209740799
 10
74.17834154123402
 20
57.60262123507238
 10
74.27594442287959
 20
57.624385151310975
 10
74.37361930854054
 20
57.645823604302706
 10
74.47136511294137
 20
57.66693635584277
 10
74.5691807500186
 20
57.68772317134524
 10
74.6670651329328
 20
57.708183819845715
 10
74.76501717408078
 20
57.728318074003866
 10
74.86303578510747
 20
57.74812571010597
 10
74.96111987691825
 20
57.76760650806738
 10
75.05926835969089
 20
57.78676025143499
 10
75.15748014288766
 20
57.80558672738964
 10
75.25575413526758
 20
57.82408572674843
 10
75.35408924489836
 20
57.84225704396712
 10
75.45248437916871
 20
57.86010047714239
 10
75.55093844480038
 20
57.87761582801404
 10
75.64945034786028
 20
57.89480290196723
 10
75.74801899377279
 20
57.91166150803466
 10
75.84664328733169
 20
57.92819145889868
 10
75.9453221327125
 20
57.94439257089331
 10
76.04405443348469
 20
57.96026466400637
 10
76.14283909262366
 20
57.975807561881446
 10
76.2416750125231
 20
57.991021091819825
 10
76.34056109500717
 20
58.00590508478243
 10
76.43949624134261
 20
58.0204593753917
 10
76.53847935225107
 20
58.03468380193349
 10
76.63750932792121
 20
58.04857820635874
 10
76.73658506802096
 20
58.062142434285306
 10
76.83570544228351
 20
58.07537655727795
 10
76.93486901105487
 20
58.088283046380575
 10
77.03407417029081
 20
58.100865869774154
 10
77.13331935266946
 20
58.1131290286823
 10
77.23260303041137
 20
58.12507653265016
 10
77.33192371480445
 20
58.13671239922768
 10
77.43127995572648
 20
58.148040653660814
 10
77.53067034116563
 20
58.15906532859065
 10
77.63009349673855
 20
58.169790463760464
 10
77.72954808520664
 20
58.18022010573045
 10
77.82903280599011
 20
58.19035830760014
 10
77.92854639468032
 20
58.20020912873837
 10
78.0280876225502
 20
58.20977663452069
 10
78.1276552960629
 20
58.219064896074144
 10
78.2272482563789
 20
58.22807799002929
 10
78.32686537886133
 20
58.236819998279486
 10
78.42650557257993
 20
58.24529500774717
 10
78.52616777981342
 20
58.253507110157045
 10
78.62585097555045
 20
58.2614604018163
 10
78.72555416698943
 20
58.26915898340142
 10
78.82527639303679
 20
58.27660695975182
 10
78.92501672380433
 20
58.28380843966995
 10
79.02477426010516
 20
58.29076753572789
 10
79.1245481329486
 20
58.297488364080344
 10
79.22433750303419
 20
58.30397504428384
 10
79.3241415602445
 20
58.31023169912211
 10
79.42395952313717
 20
58.316262454437556
 10
79.52379063843598
 20
58.32207143896862
 10
79.62363418052102
 20
58.32766278419301
 10
79.7234894509181
 20
58.3330406241767
 10
79.8233557777875
 20
58.33820909542854
 10
79.92323251541197
 20
58.3431723367604
 10
80.02311904368393
 20
58.34793448915277
 10
80.12301476759217
 20
58.352499695625646
 10
80.22291911670787
 20
58.35687210111463
 10
80.32283154467018
 20
58.36105585235222
 10
80.42275152867118
 20
58.36505509775398
 10
80.52267856894039
 20
58.36887398730969
 10
80.62261218822866
 20
58.372516672479264
 10
80.72255193129195
 20
58.37598730609342
 10
80.8224973643745
 20
58.37929004225877
 10
80.92244807469159
 20
58.382429036267546
 10
81.02240366991212
 20
58.385408444511604
 10
81.12236377764066
 20
58.388232424400705
 10
81.22232804489944
 20
58.39090513428496
 10
81.3222961376098
 20
58.393430733381265
 10
81.42226774007372
 20
58.39581338170377
 10
81.52224255445478
 20
58.398057239998025
 10
81.62222030025907
 20
58.40016646967902
 10
81.72220071381597
 20
58.40214523277271
 10
81.82218354775856
 20
58.403997691861036
 10
81.9221685705041
 20
58.4057280100305
 10
82.0221555657342
 20
58.40734035082381
 10
82.12214433187481
 20
58.40883887819485
 10
82.22213468157634
 20
58.41022775646668
 10
82.32212644119326
 20
58.41151115029252
 10
82.42211945026419
 20
58.41269322461952
 10
82.52211356099137
 20
58.41377814465536
 10
82.62210863772017
 20
58.41477007583743
 10
82.72210455641887
 20
58.41567318380457
 10
82.82210120415783
 20
58.41649163437122
 10
82.92209847858918
 20
58.41722959350389
 10
83.02209628742598
 20
58.41789122729983
 10
83.12209454792169
 20
58.41848070196777
 10
83.22209318634944
 20
58.41900218381072
 10
83.32209213748123
 20
58.41945983921053
 10
83.42209134406731
 20
58.41985783461438
 10
83.52209075631528
 20
58.42020033652278
 10
83.62209033136936
 20
58.4204915114792
 10
83.72209003278962
 20
58.42073552606113
 10
83.82208983003116
 20
58.42093654687254
 10
83.92208969792321
 20
58.42109874053738
 10
84.02208961614848
 20
58.421226273694465
 10
84.12208956872215
 20
58.421323312993145
 10
84.22208954347118
 20
58.421394025089995
 10
84.32208953151346
 20
58.42144257664627
 10
84.4220895267369
 20
58.42147313432604
 10
84.52208952527862
 20
58.42148986479489
 10
84.62208952500417
 20
58.42149693471917
 10
84.72208952498669
 20
58.42149851076546
 10
84.82208952498667
 20
58.42149853538283
 10
84.92208952498666
 20
58.42149853538283
 10
85.02208952498667
 20
58.42149853538283
 10
85.12208952498666
 20
58.42149853538283
 10
85.22208952498667
 20
58.42149853538283
 10
85.32208952498667
 20
58.42149853538283
 10
85.42208952498666
 20
58.42149853538283
 10
85.52208952498667
 20
58.42149853538283
 10
85.62208952498666
 20
58.42149853538283
 10
85.72208952498667
 20
58.42149853538283
 10
85.82208952498667
 20
58.42149853538283
 10
85.92208952498666
 20
58.42149853538283
 10
86.02208952498667
 20
58.42149853538283
 10
86.12208952498666
 20
58.42149853538283
 10
86.22208952498667
 20
58.42149853538283
 10
86.32208952498667
 20
58.42149853538283
 10
86.42208952498666
 20
58.42149853538283
 10
86.52208952498667
 20
58.42149853538283
 10
86.62208952498666
 20
58.42149853538283
 10
86.72208952498667
 20
58.42149853538283
 10
86.82208952498667
 20
58.42149853538283
 10
86.92208952498666
 20
58.42149853538283
 10
87.02208952498667
 20
58.42149853538283
 10
87.12208952498666
 20
58.42149853538283
 10
87.22208952498667
 20
58.42149853538283
 10
87.32208952498667
 20
58.42149853538283
 10
87.42208952498666
 20
58.42149853538283
 10
87.52208952498667
 20
58.42149853538283
 10
87.62208952498666
 20
58.42149853538283
 10
87.72208952498667
 20
58.42149853538283
 10
87.82208952498667
 20
58.42149853538283
 10
87.92208952498666
 20
58.42149853538283
 10
88.02208952498667
 20
58.42149853538283
 10
88.12208952498666
 20
58.42149853538283
 10
88.22208952498667
 20
58.42149853538283
 10
88.32208952498667
 20
58.42149853538283
 10
88.42208952498666
 20
58.42149853538283
 10
88.52208952498667
 20
58.42149853538283
 10
88.62208952498666
 20
58.42149853538283
 10
88.72208952498667
 20
58.42149853538283
 10
88.82208952498667
 20
58.42149853538283
 10
88.92208952498666
 20
58.42149853538283
 10
89.02208952498667
 20
58.42149853538283
 10
89.12208952498666
 20
58.42149853538283
 10
89.22208952498667
 20
58.42149853538283
 10
89.32208952498667
 20
58.42149853538283
 10
89.42208952498666
 20
58.42149853538283
 10
89.52208952498667
 20
58.42149853538283
 10
89.62208952498666
 20
58.42149853538283
 10
89.72208952498667
 20
58.42149853538283
 10
89.82208952498667
 20
58.42149853538283
 10
89.92208952498666
 20
58.42149853538283
 10
90.02208952498667
 20
58.42149853538283
 10
90.12208952498666
 20
58.42149853538283
 10
90.22208952498667
 20
58.42149853538283
 10
90.32208952498667
 20
58.42149853538283
 10
90.42208952498666
 20
58.42149853538283
 10
90.52208952498667
 20
58.42149853538283
 10
90.62208952498666
 20
58.42149853538283
 10
90.72208952498667
 20
58.42149853538283
 10
90.82208952498667
 20
58.42149853538283
 10
90.92208952498666
 20
58.42149853538283
 10
91.02208952498667
 20
58.42149853538283
 10
91.12208952498666
 20
58.42149853538283
 10
91.22208952498667
 20
58.42149853538283
 10
91.32208952498667
 20
58.42149853538283
 10
91.42208952498666
 20
58.42149853538283
 10
91.52208952498667
 20
58.42149853538283
 10
91.62208952498666
 20
58.42149853538283
 10
91.72208952498667
 20
58.42149853538283
 10
91.82208952498667
 20
58.42149853538283
 10
91.92208952498666
 20
58.42149853538283
 10
92.02208952498667
 20
58.42149853538283
 10
92.12208952498666
 20
58.42149853538283
 10
92.22208952498667
 20
58.42149853538283
 10
92.32208952498667
 20
58.42149853538283
 10
92.42208952498666
 20
58.42149853538283
 10
92.52208952498667
 20
58.42149853538283
 10
92.62208952498666
 20
58.42149853538283
 10
92.72208952498667
 20
58.42149853538283
 10
92.82208952498667
 20
58.42149853538283
 10
92.92208952498666
 20
58.42149853538283
 10
93.02208952498667
 20
58.42149853538283
 10
93.12208952498666
 20
58.42149853538283
 10
93.22208952498667
 20
58.42149853538283
 10
93.32208952498667
 20
58.42149853538283
 10
93.42208952498666
 20
58.42149853538283
 10
93.52208952498667
 20
58.42149853538283
 10
93.62208952498666
 20
58.42149853538283
 10
93.72208952498667
 20
58.42149853538283
 10
93.82208952498667
 20
58.42149853538283
 10
93.92208952498666
 20
58.42149853538283
 10
94.02208952498667
 20
58.42149853538283
 10
94.12208952498666
 20
58.42149853538283
 10
94.22208952498667
 20
58.42149853538283
 10
94.32208952498667
 20
58.42149853538283
 10
94.42208952498666
 20
58.42149853538283
 10
94.52208952498667
 20
58.42149853538283
 10
94.62208952498666
 20
58.42149853538283
 10
94.72208952498667
 20
58.42149853538283
 10
94.82208952498667
 20
58.42149853538283
 10
94.92208952498666
 20
58.42149853538283
 10
95.02208952498667
 20
58.42149853538283
 10
95.12208952498666
 20
58.42149853538283
 10
95.22208952498667
 20
58.42149853538283
 10
95.32208952498667
 20
58.42149853538283
 10
95.42208952498666
 20
58.42149853538283
 10
95.52208952498667
 20
58.42149853538283
 10
95.62208952498666
 20
58.42149853538283
 10
95.72208952498667
 20
58.42149853538283
 10
95.82208952498667
 20
58.42149853538283
 10
95.92208952498666
 20
58.42149853538283
 10
96.02208952498667
 20
58.42149853538283
 10
96.12208952498666
 20
58.42149853538283
 10
96.22208952498667
 20
58.42149853538283
 10
96.32208952498667
 20
58.42149853538283
 10
96.42208952498666
 20
58.42149853538283
 10
96.52208952498667
 20
58.42149853538283
 10
96.62208952498666
 20
58.42149853538283
 10
96.72208952498667
 20
58.42149853538283
 10
96.82208952498667
 20
58.42149853538283
 10
96.92208952498666
 20
58.42149853538283
 10
97.02208952498665
 20
58.42149853538283
 10
97.12208952498668
 20
58.42149853538283
 10
97.22208952498667
 20
58.42149853538283
 10
97.32208952498667
 20
58.42149853538283
 10
97.42208952498666
 20
58.42149853538283
 10
97.52208952498665
 20
58.42149853538283
 10
97.62208952498668
 20
58.42149853538283
 10
97.72208952498667
 20
58.42149853538283
 10
97.82208952498667
 20
58.42149853538283
 10
97.92208952498666
 20
58.42149853538283
 10
98.02208952498665
 20
58.42149853538283
 10
98.12208952498668
 20
58.42149853538283
 10
98.22208952498667
 20
58.42149853538283
 10
98.32208952498667
 20
58.42149853538283
 10
98.42208952498666
 20
58.42149853538283
 10
98.52208952498665
 20
58.42149853538283
 10
98.62208952498668
 20
58.42149853538283
 10
98.72208952498667
 20
58.42149853538283
 10
98.82208952498667
 20
58.42149853538283
 10
98.92208952498666
 20
58.42149853538283
 10
99.02208952498665
 20
58.42149853538283
 10
99.12208952498668
 20
58.42149853538283
 10
99.22208952498667
 20
58.42149853538283
 10
99.32208952498667
 20
58.42149853538283
 10
99.42208952498666
 20
58.42149853538283
 10
99.52208952498665
 20
58.42149853538283
 10
99.62208952498668
 20
58.42149853538283
 10
99.72208952498667
 20
58.42149853538283
 10
99.76208952498666
 20
58.42149853538283
  0
ENDSEC
  0
SECTION
  2
OBJECTS
  0
DICTIONARY
  5
A
330
0
100
AcDbDictionary
281
1
  3
ACAD_COLOR
350
B
  3
ACAD_GROUP
350
C
  3
ACAD_LAYOUT
350
D
  3
ACAD_MATERIAL
350
E
  3
ACAD_MLEADERSTYLE
350
F
  3
ACAD_MLINESTYLE
350
10
  3
ACAD_PLOTSETTINGS
350
11
  3
ACAD_PLOTSTYLENAME
350
12
  3
ACAD_SCALELIST
350
14
  3
ACAD_TABLESTYLE
350
15
  3
ACAD_VISUALSTYLE
350
16
  3
EZDXF_META
350
2D
  0
DICTIONARY
  5
B
330
A
100
AcDbDictionary
281
1
  0
DICTIONARY
  5
C
330
A
100
AcDbDictionary
281
1
  0
DICTIONARY
  5
D
330
A
100
AcDbDictionary
281
1
  3
Model
350
1A
  3
Layout1
350
1E
  0
DICTIONARY
  5
E
330
A
100
AcDbDictionary
281
1
  3
ByBlock
350
1F
  3
ByLayer
350
20
  3
Global
350
21
  0
DICTIONARY
  5
F
330
A
100
AcDbDictionary
281
1
  3
Standard
350
2C
  0
DICTIONARY
  5
10
330
A
100
AcDbDictionary
281
1
  3
Standard
350
22
  0
DICTIONARY
  5
11
330
A
100
AcDbDictionary
281
1
  0
ACDBDICTIONARYWDFLT
  5
12
330
A
100
AcDbDictionary
281
1
  3
Normal
350
13
100
AcDbDictionaryWithDefault
340
13
  0
ACDBPLACEHOLDER
  5
13
330
12
  0
DICTIONARY
  5
14
330
A
100
AcDbDictionary
281
1
  0
DICTIONARY
  5
15
330
A
100
AcDbDictionary
281
1
  0
DICTIONARY
  5
16
330
A
100
AcDbDictionary
281
1
  0
LAYOUT
  5
1A
330
D
100
AcDbPlotSettings
  1

  4
A3
  6

 40
7.5
 41
20.0
 42
7.5
 43
20.0
 44
420.0
 45
297.0
 46
0.0
 47
0.0
 48
0.0
 49
0.0
140
0.0
141
0.0
142
1.0
143
1.0
 70
1024
 72
1
 73
0
 74
5
  7

 75
16
 76
0
 77
2
 78
300
147
1.0
148
0.0
149
0.0
100
AcDbLayout
  1
Model
 70
1
 71
0
 10
0.0
 20
0.0
 11
420.0
 21
297.0
 12
0.0
 22
0.0
 32
0.0
 14
1e+20
 24
1e+20
 34
1e+20
 15
-1e+20
 25
-1e+20
 35
-1e+20
146
0.0
 13
0.0
 23
0.0
 33
0.0
 16
1.0
 26
0.0
 36
0.0
 17
0.0
 27
1.0
 37
0.0
 76
1
330
17
  0
LAYOUT
  5
1E
330
D
100
AcDbPlotSettings
  1

  4
A3
  6

 40
7.5
 41
20.0
 42
7.5
 43
20.0
 44
420.0
 45
297.0
 46
0.0
 47
0.0
 48
0.0
 49
0.0
140
0.0
141
0.0
142
1.0
143
1.0
 70
0
 72
1
 73
0
 74
5
  7

 75
16
 76
0
 77
2
 78
300
147
1.0
148
0.0
149
0.0
100
AcDbLayout
  1
Layout1
 70
1
 71
1
 10
0.0
 20
0.0
 11
420.0
 21
297.0
 12
0.0
 22
0.0
 32
0.0
 14
1e+20
 24
1e+20
 34
1e+20
 15
-1e+20
 25
-1e+20
 35
-1e+20
146
0.0
 13
0.0
 23
0.0
 33
0.0
 16
1.0
 26
0.0
 36
0.0
 17
0.0
 27
1.0
 37
0.0
 76
1
330
1B
  0
MATERIAL
  5
1F
102
{ACAD_REACTORS
330
E
102
}
330
E
100
AcDbMaterial
  1
ByBlock
  2

 70
0
 40
1.0
 71
1
 41
1.0
 91
-1023410177
 42
1.0
 72
1
  3

 73
1
 74
1
 75
1
 44
0.5
 73
0
 45
1.0
 46
1.0
 77
1
  4

 78
1
 79
1
170
1
 48
1.0
171
1
  6

172
1
173
1
174
1
140
1.0
141
1.0
175
1
  7

176
1
177
1
178
1
143
1.0
179
1
  8

270
1
271
1
272
1
145
1.0
146
1.0
273
1
  9

274
1
275
1
276
1
 42
1.0
 72
1
  3

 73
1
 74
1
 75
1
 94
63
  0
MATERIAL
  5
20
102
{ACAD_REACTORS
330
E
102
}
330
E
100
AcDbMaterial
  1
ByLayer
  2

 70
0
 40
1.0
 71
1
 41
1.0
 91
-1023410177
 42
1.0
 72
1
  3

 73
1
 74
1
 75
1
 44
0.5
 73
0
 45
1.0
 46
1.0
 77
1
  4

 78
1
 79
1
170
1
 48
1.0
171
1
  6

172
1
173
1
174
1
140
1.0
141
1.0
175
1
  7

176
1
177
1
178
1
143
1.0
179
1
  8

270
1
271
1
272
1
145
1.0
146
1.0
273
1
  9

274
1
275
1
276
1
 42
1.0
 72
1
  3

 73
1
 74
1
 75
1
 94
63
  0
MATERIAL
  5
21
102
{ACAD_REACTORS
330
E
102
}
330
E
100
AcDbMaterial
  1
Global
  2

 70
0
 40
1.0
 71
1
 41
1.0
 91
-1023410177
 42
1.0
 72
1
  3

 73
1
 74
1
 75
1
 44
0.5
 73
0
 45
1.0
 46
1.0
 77
1
  4

 78
1
 79
1
170
1
 48
1.0
171
1
  6

172
1
173
1
174
1
140
1.0
141
1.0
175
1
  7

176
1
177
1
178
1
143
1.0
179
1
  8

270
1
271
1
272
1
145
1.0
146
1.0
273
1
  9

274
1
275
1
276
1
 42
1.0
 72
1
  3

 73
1
 74
1
 75
1
 94
63
  0
MLINESTYLE
  5
22
102
{ACAD_REACTORS
330
10
102
}
330
10
100
AcDbMlineStyle
  2
Standard
 70
0
  3

 62
256
 51
90.0
 52
90.0
 71
2
 49
0.5
 62
256
  6
BYLAYER
 49
-0.5
 62
256
  6
BYLAYER
  0
MLEADERSTYLE
  5
2C
102
{ACAD_REACTORS
330
F
102
}
330
F
100
AcDbMLeaderStyle
179
2
170
2
171
1
172
0
 90
2
 40
0.0
 41
0.0
173
1
 91
-1056964608
 92
-2
290
1
 42
2.0
291
1
 43
8.0
  3
Standard
 44
4.0
300

342
29
174
1
175
1
176
0
178
1
 93
-1056964608
 45
4.0
292
0
297
0
 46
4.0
 94
-1056964608
 47
1.0
 49
1.0
140
1.0
294
1
141
0.0
177
0
142
1.0
295
0
296
0
143
3.75
271
0
272
9
273
9
  0
DICTIONARY
  5
2D
330
A
100
AcDbDictionary
280
1
281
1
  3
CREATED_BY_EZDXF
350
2E
  3
WRITTEN_BY_EZDXF
350
33
  0
DICTIONARYVAR
  5
2E
330
2D
100
DictionaryVariables
280
0
  1
1.4.4 @ 2026-07-07T16:26:25.499451+00:00
  0
DICTIONARYVAR
  5
33
330
2D
100
DictionaryVariables
280
0
  1
1.4.4 @ 2026-07-07T16:26:25.506954+00:00
  0
ENDSEC
  0
EOF
