  0
SECTION
  2
HEADER
  9
$ACADVER
  1
AC1024
  9
$ACADMAINTVER
 70
6
  9
$DWGCODEPAGE
  3
ANSI_1252
  9
$LASTSAVEDBY
  1
ezdxf
  9
$INSBASE
 10
0.0
 20
0.0
 30
0.0
  9
$EXTMIN
 10
1e+20
 20
1e+20
 30
1e+20
  9
$EXTMAX
 10
-1e+20
 20
-1e+20
 30
-1e+20
  9
$LIMMIN
 10
0.0
 20
0.0
  9
$LIMMAX
 10
420.0
 20
297.0
  9
$ORTHOMODE
 70
0
  9
$REGENMODE
 70
1
  9
$FILLMODE
 70
1
  9
$QTEXTMODE
 70
0
  9
$MIRRTEXT
 70
1
  9
$LTSCALE
 40
1.0
  9
$ATTMODE
 70
1
  9
$TEXTSIZE
 40
2.5
  9
$TRACEWID
 40
1.0
  9
$TEXTSTYLE
  7
Standard
  9
$CLAYER
  8
0
  9
$CELTYPE
  6
ByLayer
  9
$CECOLOR
 62
256
  9
$CELTSCALE
 40
1.0
  9
$DISPSILH
 70
0
  9
$DIMSCALE
 40
1.0
  9
$DIMASZ
 40
2.5
  9
$DIMEXO
 40
0.625
  9
$DIMDLI
 40
3.75
  9
$DIMRND
 40
0.0
  9
$DIMDLE
 40
0.0
  9
$DIMEXE
 40
1.25
  9
$DIMTP
 40
0.0
  9
$DIMTM
 40
0.0
  9
$DIMTXT
 40
2.5
  9
$DIMCEN
 40
2.5
  9
$DIMTSZ
 40
0.0
  9
$DIMTOL
 70
0
  9
$DIMLIM
 70
0
  9
$DIMTIH
 70
0
  9
$DIMTOH
 70
0
  9
$DIMSE1
 70
0
  9
$DIMSE2
 70
0
  9
$DIMTAD
 70
1
  9
$DIMZIN
 70
8
  9
$DIMBLK
  1

  9
$DIMASO
 70
1
  9
$DIMSHO
 70
1
  9
$DIMPOST
  1

  9
$DIMAPOST
  1

  9
$DIMALT
 70
0
  9
$DIMALTD
 70
3
  9
$DIMALTF
 40
0.03937007874
  9
$DIMLFAC
 40
1.0
  9
$DIMTOFL
 70
1
  9
$DIMTVP
 40
0.0
  9
$DIMTIX
 70
0
  9
$DIMSOXD
 70
0
  9
$DIMSAH
 70
0
  9
$DIMBLK1
  1

  9
$DIMBLK2
  1

  9
$DIMSTYLE
  2
ISO-25
  9
$DIMCLRD
 70
0
  9
$DIMCLRE
 70
0
  9
$DIMCLRT
 70
0
  9
$DIMTFAC
 40
1.0
  9
$DIMGAP
 40
0.625
  9
$DIMJUST
 70
0
  9
$DIMSD1
 70
0
  9
$DIMSD2
 70
0
  9
$DIMTOLJ
 70
0
  9
$DIMTZIN
 70
8
  9
$DIMALTZ
 70
0
  9
$DIMALTTZ
 70
0
  9
$DIMUPT
 70
0
  9
$DIMDEC
 70
2
  9
$DIMTDEC
 70
2
  9
$DIMALTU
 70
2
  9
$DIMALTTD
 70
3
  9
$DIMTXSTY
  7
Standard
  9
$DIMAUNIT
 70
0
  9
$DIMADEC
 70
0
  9
$DIMALTRND
 40
0.0
  9
$DIMAZIN
 70
0
  9
$DIMDSEP
 70
44
  9
$DIMATFIT
 70
3
  9
$DIMFRAC
 70
0
  9
$DIMLDRBLK
  1

  9
$DIMLUNIT
 70
2
  9
$DIMLWD
 70
-2
  9
$DIMLWE
 70
-2
  9
$DIMTMOVE
 70
0
  9
$DIMFXL
 40
1.0
  9
$DIMFXLON
 70
0
  9
$DIMJOGANG
 40
0.785398163397
  9
$DIMTFILL
 70
0
  9
$DIMTFILLCLR
 70
0
  9
$DIMARCSYM
 70
0
  9
$DIMLTYPE
  6

  9
$DIMLTEX1
  6

  9
$DIMLTEX2
  6

  9
$DIMTXTDIRECTION
 70
0
  9
$LUNITS
 70
2
  9
$LUPREC
 70
4
  9
$SKETCHINC
 40
1.0
  9
$FILLETRAD
 40
10.0
  9
$AUNITS
 70
0
  9
$AUPREC
 70
2
  9
$MENU
  1
.
  9
$ELEVATION
 40
0.0
  9
$PELEVATION
 40
0.0
  9
$THICKNESS
 40
0.0
  9
$LIMCHECK
 70
0
  9
$CHAMFERA
 40
0.0
  9
$CHAMFERB
 40
0.0
  9
$CHAMFERC
 40
0.0
  9
$CHAMFERD
 40
0.0
  9
$SKPOLY
 70
0
  9
$TDCREATE
 40
2461229.685011574
  9
$TDUCREATE
 40
2458532.153996898
  9
$TDUPDATE
 40
2461229.685011574
  9
$TDUUPDATE
 40
2458532.1544311
  9
$TDINDWG
 40
0.0
  9
$TDUSRTIMER
 40
0.0
  9
$USRTIMER
 70
1
  9
$ANGBASE
 50
0.0
  9
$ANGDIR
 70
0
  9
$PDMODE
 70
0
  9
$PDSIZE
 40
0.0
  9
$PLINEWID
 40
0.0
  9
$SPLFRAME
 70
0
  9
$SPLINETYPE
 70
6
  9
$SPLINESEGS
 70
8
  9
$HANDSEED
  5
34
  9
$SURFTAB1
 70
6
  9
$SURFTAB2
 70
6
  9
$SURFTYPE
 70
6
  9
$SURFU
 70
6
  9
$SURFV
 70
6
  9
$UCSBASE
  2

  9
$UCSNAME
  2

  9
$UCSORG
 10
0.0
 20
0.0
 30
0.0
  9
$UCSXDIR
 10
1.0
 20
0.0
 30
0.0
  9
$UCSYDIR
 10
0.0
 20
1.0
 30
0.0
  9
$UCSORTHOREF
  2

  9
$UCSORTHOVIEW
 70
0
  9
$UCSORGTOP
 10
0.0
 20
0.0
 30
0.0
  9
$UCSORGBOTTOM
 10
0.0
 20
0.0
 30
0.0
  9
$UCSORGLEFT
 10
0.0
 20
0.0
 30
0.0
  9
$UCSORGRIGHT
 10
0.0
 20
0.0
 30
0.0
  9
$UCSORGFRONT
 10
0.0
 20
0.0
 30
0.0
  9
$UCSORGBACK
 10
0.0
 20
0.0
 30
0.0
  9
$PUCSBASE
  2

  9
$PUCSNAME
  2

  9
$PUCSORG
 10
0.0
 20
0.0
 30
0.0
  9
$PUCSXDIR
 10
1.0
 20
0.0
 30
0.0
  9
$PUCSYDIR
 10
0.0
 20
1.0
 30
0.0
  9
$PUCSORTHOREF
  2

  9
$PUCSORTHOVIEW
 70
0
  9
$PUCSORGTOP
 10
0.0
 20
0.0
 30
0.0
  9
$PUCSORGBOTTOM
 10
0.0
 20
0.0
 30
0.0
  9
$PUCSORGLEFT
 10
0.0
 20
0.0
 30
0.0
  9
$PUCSORGRIGHT
 10
0.0
 20
0.0
 30
0.0
  9
$PUCSORGFRONT
 10
0.0
 20
0.0
 30
0.0
  9
$PUCSORGBACK
 10
0.0
 20
0.0
 30
0.0
  9
$USERI1
 70
0
  9
$USERI2
 70
0
  9
$USERI3
 70
0
  9
$USERI4
 70
0
  9
$USERI5
 70
0
  9
$USERR1
 40
0.0
  9
$USERR2
 40
0.0
  9
$USERR3
 40
0.0
  9
$USERR4
 40
0.0
  9
$USERR5
 40
0.0
  9
$WORLDVIEW
 70
1
  9
$SHADEDGE
 70
3
  9
$SHADEDIF
 70
70
  9
$TILEMODE
 70
1
  9
$MAXACTVP
 70
64
  9
$PINSBASE
 10
0.0
 20
0.0
 30
0.0
  9
$PLIMCHECK
 70
0
  9
$PEXTMIN
 10
1e+20
 20
1e+20
 30
1e+20
  9
$PEXTMAX
 10
-1e+20
 20
-1e+20
 30
-1e+20
  9
$PLIMMIN
 10
0.0
 20
0.0
  9
$PLIMMAX
 10
420.0
 20
297.0
  9
$UNITMODE
 70
0
  9
$VISRETAIN
 70
1
  9
$PLINEGEN
 70
0
  9
$PSLTSCALE
 70
1
  9
$TREEDEPTH
 70
3020
  9
$CMLSTYLE
  2
Standard
  9
$CMLJUST
 70
0
  9
$CMLSCALE
 40
20.0
  9
$PROXYGRAPHICS
 70
1
  9
$MEASUREMENT
 70
1
  9
$CELWEIGHT
370
-1
  9
$ENDCAPS
280
0
  9
$JOINSTYLE
280
0
  9
$LWDISPLAY
290
0
  9
$INSUNITS
 70
6
  9
$HYPERLINKBASE
  1

  9
$STYLESHEET
  1

  9
$XEDIT
290
1
  9
$CEPSNTYPE
380
0
  9
$PSTYLEMODE
290
1
  9
$FINGERPRINTGUID
  2
{FB08DCFA-A272-4B67-BD68-3999B4B33CE0}
  9
$VERSIONGUID
  2
{C3152BA6-4D4B-41FE-8EC1-5B15D32BAB70}
  9
$EXTNAMES
290
1
  9
$PSVPSCALE
 40
0.0
  9
$OLESTARTUP
290
0
  9
$SORTENTS
280
127
  9
$INDEXCTL
280
0
  9
$HIDETEXT
280
1
  9
$XCLIPFRAME
280
1
  9
$HALOGAP
280
0
  9
$OBSCOLOR
 70
257
  9
$OBSLTYPE
280
0
  9
$INTERSECTIONDISPLAY
280
0
  9
$INTERSECTIONCOLOR
 70
257
  9
$DIMASSOC
280
2
  9
$PROJECTNAME
  1

  9
$CAMERADISPLAY
290
0
  9
$LENSLENGTH
 40
50.0
  9
$CAMERAHEIGHT
 40
0.0
  9
$STEPSPERSEC
 40
24.0
  9
$STEPSIZE
 40
100.0
  9
$3DDWFPREC
 40
2.0
  9
$PSOLWIDTH
 40
0.005
  9
$PSOLHEIGHT
 40
0.08
  9
$LOFTANG1
 40
1.570796326795
  9
$LOFTANG2
 40
1.570796326795
  9
$LOFTMAG1
 40
0.0
  9
$LOFTMAG2
 40
0.0
  9
$LOFTPARAM
 70
7
  9
$LOFTNORMALS
280
1
  9
$LATITUDE
 40
37.795
  9
$LONGITUDE
 40
-122.394
  9
$NORTHDIRECTION
 40
0.0
  9
$TIMEZONE
 70
-8000
  9
$LIGHTGLYPHDISPLAY
280
1
  9
$TILEMODELIGHTSYNCH
280
1
  9
$CMATERIAL
347
20
  9
$SOLIDHIST
280
0
  9
$SHOWHIST
280
1
  9
$DWFFRAME
280
2
  9
$DGNFRAME
280
2
  9
$REALWORLDSCALE
290
1
  9
$INTERFERECOLOR
 62
256
  9
$CSHADOW
280
0
  9
$SHADOWPLANELOCATION
 40
0.0
  0
ENDSEC
  0
SECTION
  2
CLASSES
  0
CLASS
  1
ACDBDICTIONARYWDFLT
  2
AcDbDictionaryWithDefault
  3
ObjectDBX Classes
 90
0
 91
0
280
0
281
0
  0
CLASS
  1
SUN
  2
AcDbSun
  3
SCENEOE
 90
1153
 91
0
280
0
281
0
  0
CLASS
  1
VISUALSTYLE
  2
AcDbVisualStyle
  3
ObjectDBX Classes
 90
4095
 91
0
280
0
281
0
  0
CLASS
  1
MATERIAL
  2
AcDbMaterial
  3
ObjectDBX Classes
 90
1153
 91
0
280
0
281
0
  0
CLASS
  1
SCALE
  2
AcDbScale
  3
ObjectDBX Classes
 90
1153
 91
0
280
0
281
0
  0
CLASS
  1
TABLESTYLE
  2
AcDbTableStyle
  3
ObjectDBX Classes
 90
4095
 91
0
280
0
281
0
  0
CLASS
  1
MLEADERSTYLE
  2
AcDbMLeaderStyle
  3
ACDB_MLEADERSTYLE_CLASS
 90
4095
 91
0
280
0
281
0
  0
CLASS
  1
DICTIONARYVAR
  2
AcDbDictionaryVar
  3
ObjectDBX Classes
 90
0
 91
0
280
0
281
0
  0
CLASS
  1
CELLSTYLEMAP
  2
AcDbCellStyleMap
  3
ObjectDBX Classes
 90
1152
 91
0
280
0
281
0
  0
CLASS
  1
MENTALRAYRENDERSETTINGS
  2
AcDbMentalRayRenderSettings
  3
SCENEOE
 90
1024
 91
0
280
0
281
0
  0
CLASS
  1
ACDBDETAILVIEWSTYLE
  2
AcDbDetailViewStyle
  3
ObjectDBX Classes
 90
1025
 91
0
280
0
281
0
  0
CLASS
  1
ACDBSECTIONVIEWSTYLE
  2
AcDbSectionViewStyle
  3
ObjectDBX Classes
 90
1025
 91
0
280
0
281
0
  0
CLASS
  1
RASTERVARIABLES
  2
AcDbRasterVariables
  3
ISM
 90
0
 91
0
280
0
281
0
  0
CLASS
  1
LAYOUT
  2
AcDbLayout
  3
ObjectDBX Classes
 90
0
 91
0
280
0
281
0
  0
CLASS
  1
ACDBPLACEHOLDER
  2
AcDbPlaceHolder
  3
ObjectDBX Classes
 90
0
 91
0
280
0
281
0
  0
ENDSEC
  0
SECTION
  2
TABLES
  0
TABLE
  2
VPORT
  5
8
330
0
100
AcDbSymbolTable
 70
1
  0
VPORT
  5
23
330
8
100
AcDbSymbolTableRecord
100
AcDbViewportTableRecord
  2
*Active
 70
0
 10
0.0
 20
0.0
 11
1.0
 21
1.0
 12
0.0
 22
0.0
 13
0.0
 23
0.0
 14
0.5
 24
0.5
 15
0.5
 25
0.5
 16
0.0
 26
0.0
 36
1.0
 17
0.0
 27
0.0
 37
0.0
 40
1000.0
 41
1.34
 42
50.0
 43
0.0
 44
0.0
 50
0.0
 51
0.0
 71
0
 72
1000
 73
1
 74
3
 75
0
 76
0
 77
0
 78
0
281
0
 65
0
146
0.0
  0
ENDTAB
  0
TABLE
  2
LTYPE
  5
2
330
0
100
AcDbSymbolTable
 70
3
  0
LTYPE
  5
24
330
2
100
AcDbSymbolTableRecord
100
AcDbLinetypeTableRecord
  2
ByBlock
 70
0
  3

 72
65
 73
0
 40
0.0
  0
LTYPE
  5
25
330
2
100
AcDbSymbolTableRecord
100
AcDbLinetypeTableRecord
  2
ByLayer
 70
0
  3

 72
65
 73
0
 40
0.0
  0
LTYPE
  5
26
330
2
100
AcDbSymbolTableRecord
100
AcDbLinetypeTableRecord
  2
Continuous
 70
0
  3

 72
65
 73
0
 40
0.0
  0
ENDTAB
  0
TABLE
  2
LAYER
  5
1
330
0
100
AcDbSymbolTable
 70
3
  0
LAYER
  5
27
330
1
100
AcDbSymbolTableRecord
100
AcDbLayerTableRecord
  2
0
 70
0
 62
7
  6
Continuous
370
-3
390
13
347
21
  0
LAYER
  5
28
330
1
100
AcDbSymbolTableRecord
100
AcDbLayerTableRecord
  2
Defpoints
 70
0
 62
7
  6
Continuous
290
0
370
-3
390
13
347
21
  0
LAYER
  5
2F
330
1
100
AcDbSymbolTableRecord
100
AcDbLayerTableRecord
  2
EJE_VIA
 70
0
 62
3
  6
Continuous
370
-3
390
13
347
21
  0
ENDTAB
  0
TABLE
  2
STYLE
  5
5
330
0
100
AcDbSymbolTable
 70
1
  0
STYLE
  5
29
330
5
100
AcDbSymbolTableRecord
100
AcDbTextStyleTableRecord
  2
Standard
 70
0
 40
0.0
 41
1.0
 50
0.0
 71
0
 42
2.5
  3
txt
  4

  0
ENDTAB
  0
TABLE
  2
VIEW
  5
7
330
0
100
AcDbSymbolTable
 70
0
  0
ENDTAB
  0
TABLE
  2
UCS
  5
6
330
0
100
AcDbSymbolTable
 70
0
  0
ENDTAB
  0
TABLE
  2
APPID
  5
3
330
0
100
AcDbSymbolTable
 70
3
  0
APPID
  5
2A
330
3
100
AcDbSymbolTableRecord
100
AcDbRegAppTableRecord
  2
ACAD
 70
0
  0
APPID
  5
31
330
3
100
AcDbSymbolTableRecord
100
AcDbRegAppTableRecord
  2
HATCHBACKGROUNDCOLOR
 70
0
  0
APPID
  5
32
330
3
100
AcDbSymbolTableRecord
100
AcDbRegAppTableRecord
  2
EZDXF
 70
0
  0
ENDTAB
  0
TABLE
  2
DIMSTYLE
  5
4
330
0
100
AcDbSymbolTable
 70
1
100
AcDbDimStyleTable
  0
DIMSTYLE
105
2B
330
4
100
AcDbSymbolTableRecord
100
AcDbDimStyleTableRecord
  2
Standard
 70
0
 40
1.0
 41
2.5
 42
0.625
 43
3.75
 44
1.25
 45
0.0
 46
0.0
 47
0.0
 48
0.0
 49
2.5
140
2.5
141
2.5
142
0.0
143
0.03937007874
144
1.0
145
0.0
146
1.0
147
0.625
148
0.0
 69
0
 70
0
 71
0
 72
0
 73
0
 74
0
 75
0
 76
0
 77
1
 78
8
 79
3
170
0
171
3
172
1
173
0
174
0
175
0
176
0
177
0
178
0
179
2
271
2
272
2
273
2
274
3
275
0
276
0
277
2
278
44
279
0
280
0
281
0
282
0
283
0
284
8
285
0
286
0
288
0
289
3
290
0
371
-2
372
-2
  0
ENDTAB
  0
TABLE
  2
BLOCK_RECORD
  5
9
330
0
100
AcDbSymbolTable
 70
2
  0
BLOCK_RECORD
  5
17
330
9
100
AcDbSymbolTableRecord
100
AcDbBlockTableRecord
  2
*Model_Space
340
1A
 70
0
280
1
281
0
  0
BLOCK_RECORD
  5
1B
330
9
100
AcDbSymbolTableRecord
100
AcDbBlockTableRecord
  2
*Paper_Space
340
1E
 70
0
280
1
281
0
  0
ENDTAB
  0
ENDSEC
  0
SECTION
  2
BLOCKS
  0
BLOCK
  5
18
330
17
100
AcDbEntity
  8
0
100
AcDbBlockBegin
  2
*Model_Space
 70
0
 10
0.0
 20
0.0
 30
0.0
  3
*Model_Space
  1

  0
ENDBLK
  5
19
330
17
100
AcDbEntity
  8
0
100
AcDbBlockEnd
  0
BLOCK
  5
1C
330
1B
100
AcDbEntity
  8
0
100
AcDbBlockBegin
  2
*Paper_Space
 70
0
 10
0.0
 20
0.0
 30
0.0
  3
*Paper_Space
  1

  0
ENDBLK
  5
1D
330
1B
100
AcDbEntity
  8
0
100
AcDbBlockEnd
  0
ENDSEC
  0
SECTION
  2
ENTITIES
  0
LWPOLYLINE
  5
30
330
17
100
AcDbEntity
  8
EJE_VIA
100
AcDbPolyline
 90
994
 70
0
 10
0.0
 20
0.0
 10
0.1
 20
0.0
 10
0.2
 20
0.0
 10
0.30000000000000004
 20
0.0
 10
0.4
 20
0.0
 10
0.5
 20
0.0
 10
0.6000000000000001
 20
0.0
 10
0.7000000000000001
 20
0.0
 10
0.8
 20
0.0
 10
0.9
 20
0.0
 10
1.0
 20
0.0
 10
1.1
 20
0.0
 10
1.2000000000000002
 20
0.0
 10
1.3
 20
0.0
 10
1.4000000000000001
 20
0.0
 10
1.5
 20
0.0
 10
1.6
 20
0.0
 10
1.7000000000000002
 20
0.0
 10
1.8
 20
0.0
 10
1.9000000000000001
 20
0.0
 10
2.0
 20
0.0
 10
2.1
 20
0.0
 10
2.2
 20
0.0
 10
2.3000000000000003
 20
0.0
 10
2.4000000000000004
 20
0.0
 10
2.5
 20
0.0
 10
2.6
 20
0.0
 10
2.7
 20
0.0
 10
2.8000000000000003
 20
0.0
 10
2.9000000000000004
 20
0.0
 10
3.0
 20
0.0
 10
3.1
 20
0.0
 10
3.2
 20
0.0
 10
3.3000000000000003
 20
0.0
 10
3.4000000000000004
 20
0.0
 10
3.5
 20
0.0
 10
3.6
 20
0.0
 10
3.7
 20
0.0
 10
3.8000000000000003
 20
0.0
 10
3.9000000000000004
 20
0.0
 10
4.0
 20
0.0
 10
4.1000000000000005
 20
0.0
 10
4.2
 20
0.0
 10
4.3
 20
0.0
 10
4.4
 20
0.0
 10
4.5
 20
0.0
 10
4.6000000000000005
 20
0.0
 10
4.7
 20
0.0
 10
4.800000000000001
 20
0.0
 10
4.9
 20
0.0
 10
5.0
 20
0.0
 10
5.1000000000000005
 20
0.0
 10
5.2
 20
0.0
 10
5.300000000000001
 20
0.0
 10
5.4
 20
0.0
 10
5.5
 20
0.0
 10
5.6000000000000005
 20
0.0
 10
5.7
 20
0.0
 10
5.800000000000001
 20
0.0
 10
5.9
 20
0.0
 10
6.0
 20
0.0
 10
6.1000000000000005
 20
0.0
 10
6.2
 20
0.0
 10
6.300000000000001
 20
0.0
 10
6.4
 20
0.0
 10
6.5
 20
0.0
 10
6.6000000000000005
 20
0.0
 10
6.7
 20
0.0
 10
6.800000000000001
 20
0.0
 10
6.9
 20
0.0
 10
7.0
 20
0.0
 10
7.1000000000000005
 20
0.0
 10
7.2
 20
0.0
 10
7.300000000000001
 20
0.0
 10
7.4
 20
0.0
 10
7.5
 20
0.0
 10
7.6000000000000005
 20
0.0
 10
7.7
 20
0.0
 10
7.800000000000001
 20
0.0
 10
7.9
 20
0.0
 10
8.0
 20
0.0
 10
8.1
 20
0.0
 10
8.200000000000001
 20
0.0
 10
8.3
 20
0.0
 10
8.4
 20
0.0
 10
8.5
 20
0.0
 10
8.6
 20
0.0
 10
8.700000000000001
 20
0.0
 10
8.8
 20
0.0
 10
8.9
 20
0.0
 10
9.0
 20
0.0
 10
9.1
 20
0.0
 10
9.200000000000001
 20
0.0
 10
9.3
 20
0.0
 10
9.4
 20
0.0
 10
9.5
 20
0.0
 10
9.600000000000001
 20
0.0
 10
9.700000000000001
 20
0.0
 10
9.8
 20
0.0
 10
9.9
 20
0.0
 10
10.0
 20
0.0
 10
10.100000000000001
 20
0.0
 10
10.200000000000001
 20
0.0
 10
10.3
 20
0.0
 10
10.4
 20
0.0
 10
10.5
 20
0.0
 10
10.600000000000001
 20
0.0
 10
10.700000000000001
 20
0.0
 10
10.8
 20
0.0
 10
10.9
 20
0.0
 10
11.0
 20
0.0
 10
11.100000000000001
 20
0.0
 10
11.200000000000001
 20
0.0
 10
11.3
 20
0.0
 10
11.4
 20
0.0
 10
11.5
 20
0.0
 10
11.600000000000001
 20
0.0
 10
11.700000000000001
 20
0.0
 10
11.8
 20
0.0
 10
11.9
 20
0.0
 10
12.0
 20
0.0
 10
12.100000000000001
 20
0.0
 10
12.200000000000001
 20
0.0
 10
12.3
 20
0.0
 10
12.4
 20
0.0
 10
12.5
 20
0.0
 10
12.600000000000001
 20
0.0
 10
12.700000000000001
 20
0.0
 10
12.8
 20
0.0
 10
12.9
 20
0.0
 10
13.0
 20
0.0
 10
13.100000000000001
 20
0.0
 10
13.200000000000001
 20
0.0
 10
13.3
 20
0.0
 10
13.4
 20
0.0
 10
13.5
 20
0.0
 10
13.600000000000001
 20
0.0
 10
13.700000000000001
 20
0.0
 10
13.8
 20
0.0
 10
13.9
 20
0.0
 10
14.0
 20
0.0
 10
14.100000000000001
 20
0.0
 10
14.200000000000001
 20
0.0
 10
14.3
 20
0.0
 10
14.4
 20
0.0
 10
14.5
 20
0.0
 10
14.600000000000001
 20
0.0
 10
14.700000000000001
 20
0.0
 10
14.8
 20
0.0
 10
14.9
 20
0.0
 10
15.0
 20
0.0
 10
15.100000000000001
 20
0.0
 10
15.200000000000001
 20
0.0
 10
15.3
 20
0.0
 10
15.4
 20
0.0
 10
15.5
 20
0.0
 10
15.600000000000001
 20
0.0
 10
15.700000000000001
 20
0.0
 10
15.8
 20
0.0
 10
15.9
 20
0.0
 10
16.0
 20
0.0
 10
16.1
 20
0.0
 10
16.2
 20
0.0
 10
16.3
 20
0.0
 10
16.400000000000002
 20
0.0
 10
16.5
 20
0.0
 10
16.6
 20
0.0
 10
16.7
 20
0.0
 10
16.8
 20
0.0
 10
16.900000000000002
 20
0.0
 10
17.0
 20
0.0
 10
17.1
 20
0.0
 10
17.2
 20
0.0
 10
17.3
 20
0.0
 10
17.400000000000002
 20
0.0
 10
17.5
 20
0.0
 10
17.6
 20
0.0
 10
17.7
 20
0.0
 10
17.8
 20
0.0
 10
17.900000000000002
 20
0.0
 10
18.0
 20
0.0
 10
18.1
 20
0.0
 10
18.2
 20
0.0
 10
18.3
 20
0.0
 10
18.400000000000002
 20
0.0
 10
18.5
 20
0.0
 10
18.6
 20
0.0
 10
18.7
 20
0.0
 10
18.8
 20
0.0
 10
18.900000000000002
 20
0.0
 10
19.0
 20
0.0
 10
19.1
 20
0.0
 10
19.200000000000003
 20
0.0
 10
19.3
 20
0.0
 10
19.400000000000002
 20
0.0
 10
19.5
 20
0.0
 10
19.6
 20
0.0
 10
19.700000000000003
 20
0.0
 10
19.8
 20
0.0
 10
19.900000000000002
 20
0.0
 10
20.0
 20
0.0
 10
20.099999999995937
 20
6.699999999803165e-07
 10
20.199999999871466
 20
5.339999997540832e-06
 10
20.299999999026195
 20
1.8009999958181047e-05
 10
20.399999995899734
 20
4.267999968724197e-05
 10
20.499999987491663
 20
8.334999850982173e-05
 10
20.5999999688816
 20
0.00014401999466270334
 10
20.699999932749137
 20
0.00022868998430226604
 10
20.799999868893874
 20
0.00034135996003240634
 10
20.89999976375542
 20
0.00048602990885647507
 10
20.9999995999334
 20
0.0006666998094571692
 10
21.099999355707443
 20
0.0008873696287084985
 10
21.199999004557185
 20
0.001152039317323676
 10
21.29999851468232
 20
0.0014647088045430655
 10
21.3999978485226
 20
0.0018293779917661801
 10
21.49999696227785
 20
0.002250046745031569
 10
21.599995805428033
 20
0.002730714886248926
 10
21.69999432025326
 20
0.0032753821830870428
 10
21.7999924413539
 20
0.0038880483374219466
 10
21.89999009517065
 20
0.004572712972249183
 10
21.99998719950461
 20
0.005333375616963962
 10
22.099983663037452
 20
0.006174035690913833
 10
22.199979384851584
 20
0.007098692485127158
 10
22.29997425395031
 20
0.008111345142122126
 10
22.399968148778118
 20
0.009215992633700133
 10
22.49996093674094
 20
0.010416633736627209
 10
22.5999524737265
 20
0.011717267006108544
 10
22.69994260362472
 20
0.013121890746959049
 10
22.799931157848192
 20
0.014634502982375121
 10
22.899917954852757
 20
0.016259101420211447
 10
22.999902799658102
 20
0.017999683416666377
 10
23.09988548336855
 20
0.019860245937281584
 10
23.19986578269387
 20
0.021844785515158473
 10
23.29984345947027
 20
0.023957298206297172
 10
23.3998182601815
 20
0.026201779541961876
 10
23.499789915480104
 20
0.028582224477976207
 10
23.599758139708833
 20
0.03110262734085485
 10
23.69972263042223
 20
0.03376698177067367
 10
23.79968306790841
 20
0.03657928066058488
 10
23.899639114711086
 20
0.03954351609288124
 10
23.999590415151722
 20
0.04266367927151284
 10
24.099536594852065
 20
0.04594376045096372
 10
24.19947726025682
 20
0.04938774886139033
 10
24.299411998156707
 20
0.0529996326299293
 10
24.399340375211768
 20
0.056783398698078635
 10
24.499261937475023
 20
0.060743032735056206
 10
24.59917620991649
 20
0.0648825190470441
 10
24.699082695947606
 20
0.06920584048222019
 10
24.798980876945965
 20
0.07371697833148615
 10
24.898870211780633
 20
0.07841991222479604
 10
24.99875013633779
 20
0.08331862002298984
 10
25.09862006304699
 20
0.08841707770504213
 10
25.198479380407836
 20
0.09371925925062688
 10
25.298327452517295
 20
0.09922913651790925
 10
25.39816361859757
 20
0.10495067911646962
 10
25.497987192524622
 20
0.11088785427526372
 10
25.59779746235733
 20
0.11704462670553223
 10
25.697593689867382
 20
0.12342495845855982
 10
25.79737511006989
 20
0.13003280877819712
 10
25.897140930754816
 20
0.1368721339480515
 10
25.996890332019216
 20
0.14394688713325132
 10
26.09662246580032
 20
0.15126101821669952
 10
26.196336455409586
 20
0.1588184736297167
 10
26.296031395067704
 20
0.16662319617698962
 10
26.395706349440605
 20
0.17467912485573187
 10
26.495360353176515
 20
0.18299019466896368
 10
26.59499241044416
 20
0.19156033643282797
 10
26.694601494472156
 20
0.20039347657784468
 10
26.79418654708955
 20
0.2094935369440215
 10
26.893746478267733
 20
0.21886443456972968
 10
26.993280165663656
 20
0.22851008147425358
 10
27.09278645416445
 20
0.2384343844339341
 10
27.192264155433474
 20
0.24864124475180924
 10
27.291712047457985
 20
0.2591345580206735
 10
27.391128874098335
 20
0.26991821387946635
 10
27.490513344638828
 20
0.28099609576290185
 10
27.589864133340363
 20
0.2923720806442618
 10
27.689179878994835
 20
0.3040500387712581
 10
27.788459184481408
 20
0.31603383339489044
 10
27.887700616324825
 20
0.32832732049121216
 10
27.98690270425563
 20
0.3409343484759173
 10
28.086063940772604
 20
0.3538587579116786
 10
28.185182780707336
 20
0.36710438120814337
 10
28.284257640791083
 20
0.38067504231451565
 10
28.383286899224025
 20
0.39457455640464506
 10
28.48226889524689
 20
0.4088067295545352
 10
28.581201928715227
 20
0.4233753584122093
 10
28.680084259676214
 20
0.43828422985984006
 10
28.778914107948246
 20
0.4535371206680811
 10
28.877689652703314
 20
0.46913779714252085
 10
28.976409032052334
 20
0.4850900147621795
 10
29.075070342633467
 20
0.5013975178099896
 10
29.173671639203565
 20
0.5180640389951736
 10
29.27221093423286
 20
0.5350932990674598
 10
29.37068619750298
 20
0.5524890064230645
 10
29.469095355708376
 20
0.5702548567023652
 10
29.567436292061352
 20
0.5883945323792124
 10
29.665706845900736
 20
0.6069117023417955
 10
29.763904812304315
 20
0.6258100214650186
 10
29.86202794170522
 20
0.6450931301743115
 10
29.960073939512302
 20
0.6647646540008115
 10
30.058040600826146
 20
0.6848275468885842
 10
30.155926227050195
 20
0.7052821448737063
 10
30.25372925201652
 20
0.7261281206830453
 10
30.351448110878806
 20
0.747365140781435
 10
30.449081240137396
 20
0.7689928653770053
 10
30.54662707766431
 20
0.7910109484266254
 10
30.64408406272823
 20
0.8134190376414356
 10
30.74145063601946
 20
0.8362167744924858
 10
30.83872523967493
 20
0.8594037942164741
 10
30.935906317303026
 20
0.8829797258215779
 10
31.0329923140086
 20
0.9069441920933963
 10
31.129981676417767
 20
0.9312968096009794
 10
31.2268728527028
 20
0.9560371887029656
 10
31.32366429260695
 20
0.9811649335538188
 10
31.420354447469233
 20
1.0066796421101556
 10
31.51694177024924
 20
1.0325809061371853
 10
31.61342471555187
 20
1.0588683112152353
 10
31.709801739652047
 20
1.085541436746384
 10
31.806071300519452
 20
1.112599855961194
 10
31.902231857843162
 20
1.140043135925533
 10
31.99828187305631
 20
1.1678708375475084
 10
32.094219809360695
 20
1.196082515584488
 10
32.19004413175139
 20
1.224677718650225
 10
32.28575330704128
 20
1.2536559892220775
 10
32.381345803885615
 20
1.2830168636483394
 10
32.47682009280647
 20
1.3127598721556435
 10
32.572174646217256
 20
1.342884538856489
 10
32.66740793844716
 20
1.373390381756851
 10
32.76251844576554
 20
1.4042769127638914
 10
32.857504646406305
 20
1.4355436376937774
 10
32.95236502059227
 20
1.467190056279575
 10
33.04709805055947
 20
1.4992156621792625
 10
33.14170222058144
 20
1.5316199429838282
 10
33.23617601699348
 20
1.5644023802254687
 10
33.330517928216885
 20
1.5975624493858915
 10
33.42472644478306
 20
1.6310996199046957
 10
33.51880005935777
 20
1.6650133551878676
 10
33.61273726676518
 20
1.699303112616367
 10
33.70653656401196
 20
1.7339683435548037
 10
33.8001964503114
 20
1.7690084933602273
 10
33.893715427107274
 20
1.8044230013909859
 10
33.98709199809797
 20
1.8402113010157064
 10
34.080324669260335
 20
1.8763728196223588
 10
34.1734119488736
 20
1.912906978627413
 10
34.266352347543304
 20
1.9498131934851108
 10
34.359144378225054
 20
1.9870908736967992
 10
34.45178655624833
 20
2.024739422820389
 10
34.54427739934027
 20
2.062758238479898
 10
34.63661542764933
 20
2.101146712375084
 10
34.72879916376906
 20
2.1399042302911897
 10
34.82082713276162
 20
2.1790301721087513
 10
34.912697862181496
 20
2.2185239118135343
 10
35.00440988209896
 20
2.258384817506548
 10
35.09596172512364
 20
2.298612251414147
 10
35.18735192642801
 20
2.339205569898254
 10
35.27857902377081
 20
2.380164123466635
 10
35.369641557520424
 20
2.4214872567833075
 10
35.46053807067825
 20
2.46317430867902
 10
35.55126710890202
 20
2.5052246121618276
 10
35.64182722052906
 20
2.547637494427778
 10
35.73221695659952
 20
2.590412276871658
 10
35.82243487087955
 20
2.6335482750978607
 10
35.91247951988442
 20
2.6770447989313335
 10
36.0023494629017
 20
2.7209011524286204
 10
36.0920432620142
 20
2.7651166338890074
 10
36.18155948212306
 20
2.809690535865732
 10
36.27089669097066
 20
2.8546221451773115
 10
36.360053459163574
 20
2.8999107429189563
 10
36.44902836019539
 20
2.945555604474067
 10
36.537819970469606
 20
2.991555999525837
 10
36.62642686932236
 20
3.037911192068926
 10
36.71484763904514
 20
3.0846204404212396
 10
36.803080864907535
 20
3.131682997235801
 10
36.8911251351798
 20
3.1790981095127027
 10
36.978979041155505
 20
3.226865018611166
 10
37.06664117717401
 20
3.2749829602616614
 10
37.154110140643034
 20
3.323451164578149
 10
37.241384532061
 20
3.3722688560703933
 10
37.328462955039505
 20
3.4214352536563695
 10
37.41534401632567
 20
3.4709495706747706
 10
37.50202632582434
 20
3.5208110148975775
 10
37.58850849662041
 20
3.5710187885427467
 10
37.67478914500102
 20
3.6215720882869715
 10
37.76086689047762
 20
3.6724701052785336
 10
37.84674035580812
 20
3.723712025150244
 10
37.93240816701892
 20
3.7752970280324845
 10
38.01786895342684
 20
3.8272242885663057
 10
38.103121347661144
 20
3.8794929759166474
 10
38.18816398568533
 20
3.932102253785627
 10
38.272995506819
 20
3.9850512804259175
 10
38.35761455375964
 20
4.03833920865423
 10
38.4420197726043
 20
4.091965185864844
 10
38.52620981287127
 20
4.145928354043268
 10
38.61018332752171
 20
4.2002278497799646
 10
38.693938972981165
 20
4.254862804284158
 10
38.77747540916112
 20
4.309832343397745
 10
38.86079129948036
 20
4.365135587609271
 10
38.943885310886415
 20
4.420771652068007
 10
39.026756113876885
 20
4.47673964659811
 10
39.109402382520685
 20
4.5330386757128585
 10
39.191822794479286
 20
4.589667838628994
 10
39.27401603102785
 20
4.646626229281114
 10
39.35598077707635
 20
4.703912936336182
 10
39.43771572119059
 20
4.76152704320811
 10
39.51921955561321
 20
4.819467628072412
 10
39.600490976284604
 20
4.877733763880975
 10
39.68152868286377
 20
4.936324518376863
 10
39.76233137874912
 20
4.995238954109256
 10
39.84289777109926
 20
5.054476128448438
 10
39.92322657085362
 20
5.114035093600878
 10
40.00331649275313
 20
5.173914896624415
 10
40.083166255360744
 20
5.234114579443472
 10
40.16277458108196
 20
5.2946331788644105
 10
40.24214019618528
 20
5.355469726590928
 10
40.32126183082253
 20
5.416623249239555
 10
40.40013821904927
 20
5.478092768355244
 10
40.478768098844945
 20
5.539877300426995
 10
40.557150212133166
 20
5.601975856903614
 10
40.635283304801796
 20
5.66438744420952
 10
40.71316612672302
 20
5.727111063760645
 10
40.79079743177334
 20
5.790145711980423
 10
40.86817597785353
 20
5.853490380315821
 10
40.945300526908525
 20
5.917144055253498
 10
41.02216984494717
 20
5.981105718336013
 10
41.09878270206202
 20
6.045374346178119
 10
41.175137872448985
 20
6.109948910483148
 10
41.25123413442699
 20
6.174828378059443
 10
41.327070270457455
 20
6.240011710836909
 10
41.40264506716381
 20
6.305497865883613
 10
41.47795731535091
 20
6.371285795422465
 10
41.55300581002442
 20
6.437374446848006
 10
41.62778935041002
 20
6.503762762743217
 10
41.70230673997266
 20
6.570449680896462
 10
41.776556786435705
 20
6.637434134318473
 10
41.850538301799965
 20
6.704715051259419
 10
41.9242501023628
 20
6.772291355226073
 10
41.99769100873696
 20
6.840161964999006
 10
42.0708598458695
 20
6.908325794649915
 10
42.1437554430606
 20
6.976781753558976
 10
42.21637663398226
 20
7.0455287464323035
 10
42.28872225669697
 20
7.114565673319487
 10
42.360791153676324
 20
7.183891429631166
 10
42.432582171819504
 20
7.253504906156716
 10
42.50409416247175
 20
7.323404989082
 10
42.575325981442724
 20
7.393590560007177
 10
42.646276489024864
 20
7.464060495964619
 10
42.71694455001154
 20
7.534813669436847
 10
42.787329033715295
 20
7.605848948374597
 10
42.857428813985884
 20
7.67716519621492
 10
42.92724276922833
 20
7.748761271899369
 10
42.99676978242083
 20
7.820636029892269
 10
43.06600874113264
 20
7.89278832019902
 10
43.134958537541934
 20
7.965216988384516
 10
43.20361806845342
 20
8.037920875591618
 10
43.271986235316064
 20
8.110898818559669
 10
43.34006194424067
 20
8.184149649643146
 10
43.40784410601734
 20
8.257672196830317
 10
43.47533163613293
 20
8.331465283761993
 10
43.542523454788395
 20
8.405527729750355
 10
43.60941848691606
 20
8.479858349797844
 10
43.67601566219687
 20
8.554455954616133
 10
43.74231391507742
 20
8.629319350645131
 10
43.80831218478708
 20
8.704447340072102
 10
43.874009415354934
 20
8.77983872085082
 10
43.9394045556267
 20
8.855492286720795
 10
44.004496559281556
 20
8.93140682722659
 10
44.06928438484878
 20
9.007581127737181
 10
44.13376699572458
 20
9.084013969465374
 10
44.19794336018856
 20
9.16070412948734
 10
44.26181245142024
 20
9.23765038076215
 10
44.32537324751553
 20
9.31485149215143
 10
44.38862473150304
 20
9.392306228439045
 10
44.451565891360396
 20
9.47001335035086
 10
44.51419572003038
 20
9.547971614574587
 10
44.576513215437075
 20
9.626179773779656
 10
44.63851738050186
 20
9.7046365766372
 10
44.70020722315941
 20
9.783340767840038
 10
44.761581756373594
 20
9.862291088122792
 10
44.82263999815317
 20
9.941486274282019
 10
44.883380971567576
 20
10.02092505919643
 10
44.943803704762516
 20
10.100606171847167
 10
45.003907230975585
 20
10.180528337338124
 10
45.06369058855161
 20
10.26069027691636
 10
45.12315282095816
 20
10.341090707992548
 10
45.182292976800774
 20
10.421728344161501
 10
45.24111010983824
 20
10.502601895222774
 10
45.29960327899767
 20
10.583710067201272
 10
45.357771548389614
 20
10.665051562367971
 10
45.415613987323
 20
10.746625079260681
 10
45.47312967032003
 20
10.828429312704872
 10
45.53031767713101
 20
10.910462953834557
 10
45.58717709274906
 20
10.992724690113228
 10
45.64370700742473
 20
11.075213205354858
 10
45.6999065166806
 20
11.157927179744965
 10
45.755774721325714
 20
11.240865289861715
 10
45.811310727469994
 20
11.324026208697127
 10
45.86651364653853
 20
11.407408605678269
 10
45.9213825952858
 20
11.491011146688567
 10
45.975916695809765
 20
11.57483249408915
 10
46.030115075565995
 20
11.658871306740243
 10
46.08397686738159
 20
11.743126240022645
 10
46.137501209469
 20
11.827595945859217
 10
46.19068724543991
 20
11.91227907273647
 10
46.24353412431889
 20
11.997174265726175
 10
46.29604100055698
 20
12.08228016650705
 10
46.348207034045295
 20
12.167595413386515
 10
46.400031390128404
 20
12.25311864132243
 10
46.45151323961772
 20
12.338848481944975
 10
46.502651758804745
 20
12.424783563578524
 10
46.55344612947427
 20
12.510922511263603
 10
46.60389553891744
 20
12.597263946778897
 10
46.653999179944805
 20
12.683806488663274
 10
46.703756250899154
 20
12.77054875223791
 10
46.75316595566841
 20
12.857489349628437
 10
46.80222750369836
 20
12.94462688978715
 10
46.85094011000528
 20
13.03195997851527
 10
46.89930299518852
 20
13.119487218485242
 10
46.94731538544292
 20
13.207207209263089
 10
46.99497651257127
 20
13.295118547330835
 10
47.042285613996576
 20
13.383219826108935
 10
47.08924193277422
 20
13.471509635978821
 10
47.135844717604094
 20
13.559986564305413
 10
47.182093222842624
 20
13.648649195459747
 10
47.22798670851472
 20
13.737496110841617
 10
47.27352444032559
 20
13.826525888902259
 10
47.3187056896725
 20
13.915737105167143
 10
47.36352973365642
 20
14.005128332258698
 10
47.407995855093624
 20
14.094698139919206
 10
47.45210334252708
 20
14.184445095033656
 10
47.49585149023796
 20
14.274367761652663
 10
47.53923959825683
 20
14.364464701015505
 10
47.582266972374875
 20
14.454734471573062
 10
47.62493292415502
 20
14.545175629010929
 10
47.66723677094296
 20
14.635786726272523
 10
47.70917783587805
 20
14.726566313582206
 10
47.75075544790414
 20
14.817512938468536
 10
47.79196894178033
 20
14.908625145787449
 10
47.83281765809161
 20
14.999901477745567
 10
47.87330094325937
 20
15.09134047392353
 10
47.91341814955193
 20
15.182940671299342
 10
47.95316863509482
 20
15.27470060427181
 10
47.992551763881124
 20
15.366618804683963
 10
48.03156690578164
 20
15.458693801846552
 10
48.0702134365549
 20
15.550924122561584
 10
48.108490737857274
 20
15.643308291145894
 10
48.146398197252736
 20
15.735844829454765
 10
48.18393520822275
 20
15.828532256905554
 10
48.221101170175935
 20
15.921369090501395
 10
48.2578954884577
 20
16.014353844854934
 10
48.29431757435973
 20
16.107485032212082
 10
48.33036684512943
 20
16.200761162475835
 10
48.366042723979234
 20
16.294180743230097
 10
48.40134464009586
 20
16.387742279763565
 10
48.43627202864936
 20
16.481444275093647
 10
48.47082433080231
 20
16.575285229990417
 10
48.505000993718596
 20
16.66926364300061
 10
48.53880147057234
 20
16.76337801047162
 10
48.572225220556625
 20
16.85762682657557
 10
48.605271708892175
 20
16.952008583333406
 10
48.63794040683587
 20
17.046521770639036
 10
48.67023079168926
 20
17.141164876283494
 10
48.702142346806845
 20
17.235936385979095
 10
48.73367456160445
 20
17.330834783383715
 10
48.764826931567306
 20
17.425858550125017
 10
48.795598958258154
 20
17.52100616582475
 10
48.82599014932523
 20
17.61627610812311
 10
48.85600001851012
 20
17.711666852703043
 10
48.885628085655554
 20
17.80717687331467
 10
48.91487387671309
 20
17.902804641799698
 10
48.943736923750706
 20
17.99854862811587
 10
48.97221676496026
 20
18.094407300361457
 10
49.00031294466489
 20
18.190379124799744
 10
49.02802501332633
 20
18.286462565883582
 10
49.05535252755206
 20
18.382656086279965
 10
49.08229505010245
 20
18.478958146894616
 10
49.10885214989773
 20
18.57536720689663
 10
49.13502340202483
 20
18.6718817237431
 10
49.160808387744304
 20
18.76850015320381
 10
49.18620669449691
 20
18.865220949385954
 10
49.2112179159103
 20
18.962042564758853
 10
49.23584165180545
 20
19.058963450178737
 10
49.260077508203125
 20
19.15598205491349
 10
49.283925097330126
 20
19.253096826667523
 10
49.30738403762553
 20
19.350306211606547
 10
49.330453953746826
 20
19.44760865438248
 10
49.35313447657583
 20
19.545002598158323
 10
49.37542524322466
 20
19.642486484633043
 10
49.397325897041505
 20
19.740058754066535
 10
49.41883608761639
 20
19.837717845304574
 10
49.43995547078673
 20
19.935462195803776
 10
49.46068370864283
 20
20.03329024165663
 10
49.48102046953335
 20
20.131200417616483
 10
49.50096542807053
 20
20.229191157122607
 10
49.52051826513544
 20
20.327260892325263
 10
49.53967866788315
 20
20.425408054110775
 10
49.5584463297476
 20
20.52363107212666
 10
49.57682095044659
 20
20.621928374806725
 10
49.594802235986606
 20
20.72029838939621
 10
49.61238989866746
 20
20.818739541976985
 10
49.629583657086904
 20
20.917250257492707
 10
49.646383236145184
 20
21.015828959774048
 10
49.662788367049394
 20
21.114474071563848
 10
49.678798787317774
 20
21.213184014542442
 10
49.69441424078397
 20
21.31195720935284
 10
49.709634477601035
 20
21.41079207562603
 10
49.72445925424551
 20
21.509687032006273
 10
49.738888333521295
 20
21.60864049617636
 10
49.75292148456342
 20
21.70765088488298
 10
49.766558482841766
 20
21.80671661396203
 10
49.77979911016465
 20
21.90583609836396
 10
49.79264315468233
 20
22.005007752179125
 10
49.805090410890365
 20
22.10422998866319
 10
49.81714067963292
 20
22.203501220262478
 10
49.828793768105946
 20
22.302819858639406
 10
49.84004948986026
 20
22.402184314697884
 10
49.85090766480459
 20
22.50159299860872
 10
49.86136811920834
 20
22.60104431983511
 10
49.87143068570448
 20
22.70053668715803
 10
49.881095203292155
 20
22.800068508701724
 10
49.89036151733929
 20
22.89963819195916
 10
49.89922947958506
 20
22.99924414381755
 10
49.907698948142254
 20
23.09888477058378
 10
49.915769787499556
 20
23.198558478009943
 10
49.92344186852371
 20
23.298263671318853
 10
49.930715068461595
 20
23.397998755229533
 10
49.93758927094215
 20
23.497762133982782
 10
49.944064365978285
 20
23.597552211366665
 10
49.95014024996861
 20
23.697367390742063
 10
49.955816825699124
 20
23.797206075068246
 10
49.96109400234474
 20
23.89706666692839
 10
49.965971695470735
 20
23.996947568555157
 10
49.970449827034116
 20
24.09684718185625
 10
49.974528325384895
 20
24.19676390843999
 10
49.97820712526716
 20
24.29669614964089
 10
49.98148616782022
 20
24.396642306545203
 10
49.98436540057943
 20
24.496600780016575
 10
49.98684477747717
 20
24.596569970721546
 10
49.98892425884342
 20
24.696548279155202
 10
49.990603811406544
 20
24.796534105666733
 10
49.99188340829374
 20
24.896525850485055
 10
49.99276302903148
 20
24.996521913744402
 10
49.99324265954585
 20
25.096520695509856
 10
49.993322292162766
 20
25.196520595803072
 10
49.99300192560813
 20
25.29652001462778
 10
49.99228156500777
 20
25.396517351995396
 10
49.99116122188747
 20
25.496511007950673
 10
49.989640914172654
 20
25.59649938259722
 10
49.98772066618825
 20
25.696480876123196
 10
49.98540050865818
 20
25.79645388882685
 10
49.9826804787049
 20
25.896416821142083
 10
49.97956061984885
 20
25.996368073664136
 10
49.97604098200769
 20
26.09630604717508
 10
49.972121621495546
 20
26.196229142669477
 10
49.967802601022115
 20
26.296135761379947
 10
49.96308398969163
 20
26.396024304802697
 10
49.95796586300178
 20
26.495893174723186
 10
49.95244830284246
 20
26.595740773241605
 10
49.946531397494546
 20
26.695565502798516
 10
49.94021524162837
 20
26.795365766200387
 10
49.93349993630232
 20
26.89513996664511
 10
49.926385588961104
 20
26.994886507747637
 10
49.91887231343413
 20
27.0946037935654
 10
49.91096022993368
 20
27.194290228623977
 10
49.902649465052896
 20
27.293944217942546
 10
49.89394015176385
 20
27.39356416705937
 10
49.88483242941535
 20
27.493148482057425
 10
49.87532644373076
 20
27.592695569589765
 10
49.86542234680567
 20
27.692203836905126
 10
49.85512029710541
 20
27.79167169187337
 10
49.84442045946257
 20
27.8910975430109
 10
49.833323005074284
 20
27.990479799506257
 10
49.821828111499606
 20
28.089816871245432
 10
49.80993596265661
 20
28.189107168837403
 10
49.79764674881942
 20
28.288349103639547
 10
49.78496066661516
 20
28.387541087782992
 10
49.77187791902091
 20
28.48668153419814
 10
49.75839871536033
 20
28.58576885663993
 10
49.744523271300395
 20
28.68480146971333
 10
49.730251808847925
 20
28.78377778889866
 10
49.715584556346
 20
28.882696230576897
 10
49.700521748470365
 20
28.981555212055117
 10
49.685063626225606
 20
29.080353151591684
 10
49.669210436941356
 20
29.1790884684217
 10
49.6529624342683
 20
29.277759582782213
 10
49.63631987817414
 20
29.37636491593747
 10
49.61928303493943
 20
29.47490289020427
 10
49.6018521771533
 20
29.5733719289771
 10
49.58402758370907
 20
29.671770456753457
 10
49.56580953979987
 20
29.770096899159004
 10
49.54719833691404
 20
29.868349682972735
 10
49.5281942728304
 20
29.96652723615224
 10
49.50879765161357
 20
30.064627987858728
 10
49.48900880245172
 20
30.162650372320467
 10
49.46882942728757
 20
30.260593107808845
 10
49.448263535791604
 20
30.35845541409884
 10
49.42731535973523
 20
30.45623660385984
 10
49.40598912699529
 20
30.55393603687408
 10
49.38428906129509
 20
30.651553119513803
 10
49.362219381954894
 20
30.749087304217877
 10
49.339784303651726
 20
30.846538088968224
 10
49.316988036188576
 20
30.943905016766212
 10
49.293834784272626
 20
31.041187675108823
 10
49.270328747302635
 20
31.13838569546498
 10
49.24647411916522
 20
31.23549875275183
 10
49.22227508804007
 20
31.33252656481125
 10
49.19773583621378
 20
31.4294688918866
 10
49.1728605399025
 20
31.526325536099698
 10
49.14765336908289
 20
31.623096340928257
 10
49.12211848733171
 20
31.719781190683705
 10
49.096260051673625
 20
31.816380009989416
 10
49.07008221243732
 20
31.912892763259656
 10
49.043589113119545
 20
32.00931945417893
 10
49.01678489025738
 20
32.10566012518219
 10
48.98967367330824
 20
32.201914856935616
 10
48.96225958453774
 20
32.29808376781813
 10
48.934546738915245
 20
32.394167013403894
 10
48.90653924401699
 20
32.49016478594541
 10
48.878241199936646
 20
32.58607731385775
 10
48.84965669920332
 20
32.681904861203606
 10
48.82078982670672
 20
32.7776477271792
 10
48.79164465962959
 20
32.87330624560148
 10
48.76222526738711
 20
32.968880784396084
 10
48.732535711573256
 20
33.06437174508659
 10
48.70258004591402
 20
33.159779562284726
 10
48.672362316227364
 20
33.255104703181786
 10
48.64188656038976
 20
33.350347667041234
 10
48.61115680830931
 20
33.44550898469235
 10
48.580177081905326
 20
33.54058921802535
 10
48.548951395094
 20
33.635588959487464
 10
48.51748375378063
 20
33.7305088315804
 10
48.48577815585763
 20
33.82534948635912
 10
48.453838591208786
 20
33.92011160493175
 10
48.42166904171926
 20
34.01479589696095
 10
48.38927348129146
 20
34.109403100166524
 10
48.35665587586657
 20
34.203933979829316
 10
48.32382018345173
 20
34.298389328296494
 10
48.290770354152635
 20
34.39276996448814
 10
48.257510330211595
 20
34.487076733405225
 10
48.224044046050786
 20
34.58131050563891
 10
48.190375428320834
 20
34.67547217688117
 10
48.15650839595431
 20
34.76956266743686
 10
48.122446860224336
 20
34.863582921736985
 10
48.08819472480802
 20
34.95753390785352
 10
48.05375588585473
 20
35.05141661701541
 10
48.01913423205897
 20
35.14523206312603
 10
47.9843336447379
 20
35.238981282281934
 10
47.94935799791335
 20
35.3326653322929
 10
47.914211158398196
 20
35.42628529220342
 10
47.87889698588699
 20
35.51984226181544
 10
47.843419333050896
 20
35.613337361212345
 10
47.80778204563659
 20
35.70677173028438
 10
47.77198896256925
 20
35.800146528255205
 10
47.736043916059394
 20
35.89346293320989
 10
47.69995073171358
 20
35.98672214162398
 10
47.66371322864873
 20
36.07992536789395
 10
47.62733521961016
 20
36.1730738438688
 10
47.59082051109305
 20
36.26616881838287
 10
47.55417290346732
 20
36.3592115567899
 10
47.51739619110597
 20
36.45220334049815
 10
47.48049416251654
 20
36.54514546650674
 10
47.443470600475656
 20
36.63803924694311
 10
47.406329282166766
 20
36.7308860086015
 10
47.3690739793207
 20
36.823687092482686
 10
47.331708458359145
 20
36.91644385333457
 10
47.29423648054094
 20
37.00915765919384
 10
47.25666180211083
 20
37.1018298909288
 10
47.21898817445111
 20
37.19446194178291
 10
47.181219344235465
 20
37.28705521691954
 10
47.14335905358538
 20
37.37961113296738
 10
47.105411040228745
 20
37.47213111756698
 10
47.06737903766079
 20
37.564616608918
 10
47.02926677530704
 20
37.65706905532733
 10
46.991077978688296
 20
37.74948991475801
 10
46.95281636958761
 20
37.841880654378926
 10
46.91448566621906
 20
37.934242750115246
 10
46.87608958339832
 20
38.0265776861996
 10
46.83763183271486
 20
38.11888695472376
 10
46.79911612270571
 20
38.21117205519123
 10
46.7605461590308
 20
38.303434494070196
 10
46.72192564464954
 20
38.395675784347205
 10
46.68325827999882
 20
38.487897445081295
 10
46.64454776317222
 20
38.580101000958614
 10
46.605797790100304
 20
38.672287981847646
 10
46.56701205473201
 20
38.76445992235465
 10
46.52819424921687
 20
38.85661836137972
 10
46.4893480640882
 20
38.94876484167302
 10
46.45047718844708
 20
39.0409009093914
 10
46.41158531014693
 20
39.13302811365541
 10
46.37267611597866
 20
39.22514800610633
 10
46.33375329185645
 20
39.317262140463704
 10
46.29482052300384
 20
39.409372072082775
 10
46.25588149414018
 20
39.50147935751219
 10
46.216939871955745
 20
39.59358554656352
 10
46.1779980377249
 20
39.6856916459638
 10
46.13905620349404
 20
39.77779774536408
 10
46.10011436926319
 20
39.86990384476438
 10
46.061172535032334
 20
39.96200994416466
 10
46.02223070080147
 20
40.05411604356496
 10
45.983288866570625
 20
40.14622214296524
 10
45.94434703233977
 20
40.238328242365526
 10
45.905405198108916
 20
40.33043434176582
 10
45.86646336387806
 20
40.422540441166106
 10
45.8275215296472
 20
40.5146465405664
 10
45.78857969541635
 20
40.606752639966686
 10
45.7496378611855
 20
40.69885873936697
 10
45.71069602695464
 20
40.790964838767266
 10
45.67175419272379
 20
40.88307093816755
 10
45.63281235849293
 20
40.975177037567846
 10
45.59387052426208
 20
41.06728313696813
 10
45.554928690031225
 20
41.15938923636841
 10
45.51598685580037
 20
41.25149533576871
 10
45.477045021569516
 20
41.34360143516899
 10
45.438103187338655
 20
41.43570753456929
 10
45.39916135310781
 20
41.52781363396957
 10
45.36021951887695
 20
41.619919733369855
 10
45.3212776846461
 20
41.71202583277015
 10
45.282335850415244
 20
41.804131932170435
 10
45.24339401618438
 20
41.89623803157073
 10
45.204452181953535
 20
41.988344130971015
 10
45.16551034772268
 20
42.0804502303713
 10
45.126568513491826
 20
42.172556329771595
 10
45.08762667926097
 20
42.26466242917188
 10
45.04868484503011
 20
42.356768528572175
 10
45.00974301079926
 20
42.44887462797246
 10
44.97080117656841
 20
42.54098072737274
 10
44.93185934233755
 20
42.63308682677304
 10
44.8929175081067
 20
42.72519292617332
 10
44.85397567387584
 20
42.81729902557362
 10
44.81503383964499
 20
42.9094051249739
 10
44.776092005414135
 20
43.001511224374184
 10
44.73715017118328
 20
43.09361732377448
 10
44.698208336952426
 20
43.185723423174764
 10
44.659266502721565
 20
43.27782952257506
 10
44.62032466849072
 20
43.369935621975344
 10
44.58138283425986
 20
43.46204172137563
 10
44.54244100002901
 20
43.554147820775924
 10
44.503499165798154
 20
43.64625392017621
 10
44.46455733156729
 20
43.738360019576504
 10
44.425615497336445
 20
43.83046611897679
 10
44.38667366310559
 20
43.92257221837707
 10
44.347731828874736
 20
44.01467831777737
 10
44.30878999464388
 20
44.10678441717765
 10
44.26984816041302
 20
44.19889051657795
 10
44.23090632618217
 20
44.29099661597823
 10
44.19196449195132
 20
44.38310271537851
 10
44.15302265772046
 20
44.47520881477881
 10
44.11408082348961
 20
44.56731491417909
 10
44.07513898925875
 20
44.65942101357939
 10
44.0361971550279
 20
44.75152711297967
 10
43.997255320797045
 20
44.843633212379956
 10
43.95831348656619
 20
44.93573931178025
 10
43.919371652335336
 20
45.027845411180536
 10
43.880429818104474
 20
45.11995151058083
 10
43.84148798387363
 20
45.212057609981116
 10
43.80254614964277
 20
45.3041637093814
 10
43.76360431541192
 20
45.396269808781696
 10
43.72466248118106
 20
45.48837590818198
 10
43.6857206469502
 20
45.580482007582276
 10
43.646778812719354
 20
45.67258810698256
 10
43.6078369784885
 20
45.76469420638284
 10
43.568895144257645
 20
45.85680030578314
 10
43.52995331002679
 20
45.94890640518342
 10
43.49101147579593
 20
46.04101250458372
 10
43.45206964156508
 20
46.133118603984
 10
43.41312780733423
 20
46.225224703384285
 10
43.37418597310337
 20
46.31733080278458
 10
43.33524413887252
 20
46.409436902184865
 10
43.29630230464166
 20
46.50154300158516
 10
43.25736047041081
 20
46.593649100985445
 10
43.218418636179955
 20
46.68575520038573
 10
43.1794768019491
 20
46.777861299786025
 10
43.140534967718246
 20
46.86996739918631
 10
43.101593133487384
 20
46.962073498586605
 10
43.06265129925654
 20
47.05417959798689
 10
43.02370946502568
 20
47.14628569738717
 10
42.98476763079483
 20
47.23839179678747
 10
42.94582579656397
 20
47.33049789618775
 10
42.90688396233311
 20
47.42260399558805
 10
42.867942128102264
 20
47.51471009498833
 10
42.82900029387141
 20
47.606816194388614
 10
42.790058459640555
 20
47.69892229378891
 10
42.7511166254097
 20
47.791028393189194
 10
42.71217479117884
 20
47.88313449258949
 10
42.67323295694799
 20
47.975240591989774
 10
42.63429112271714
 20
48.06734669139006
 10
42.59534928848628
 20
48.159452790790354
 10
42.55640745425543
 20
48.25155889019064
 10
42.517465620024566
 20
48.343664989590934
 10
42.47852378579372
 20
48.43577108899122
 10
42.439581951562865
 20
48.5278771883915
 10
42.40064011733201
 20
48.6199832877918
 10
42.361698283101155
 20
48.71208938719208
 10
42.322756448870294
 20
48.80419548659238
 10
42.28381461463945
 20
48.89630158599266
 10
42.24487278040859
 20
48.98840768539294
 10
42.20593094617774
 20
49.08051378479324
 10
42.16698911194688
 20
49.17261988419352
 10
42.12804727771602
 20
49.26472598359382
 10
42.089105443485174
 20
49.3568320829941
 10
42.05016360925432
 20
49.448938182394386
 10
42.011221775023465
 20
49.54104428179468
 10
41.97227994079261
 20
49.633150381194966
 10
41.93333810656175
 20
49.72525648059526
 10
41.8943962723309
 20
49.817362579995546
 10
41.85545443810005
 20
49.90946867939583
 10
41.81651260386919
 20
50.001574778796126
 10
41.77757076963834
 20
50.09368087819641
 10
41.738628935407476
 20
50.185786977596706
 10
41.69968710117663
 20
50.27789307699699
 10
41.660745266945774
 20
50.36999917639727
 10
41.62180343271492
 20
50.46210527579757
 10
41.582861598484065
 20
50.55421137519785
 10
41.543919764253204
 20
50.64631747459815
 10
41.504977930022356
 20
50.73842357399843
 10
41.4660360957915
 20
50.830529673398715
 10
41.42709426156065
 20
50.92263577279901
 10
41.38815242732979
 20
51.014741872199295
 10
41.34921059309893
 20
51.10684797159959
 10
41.310268758868084
 20
51.198954070999875
 10
41.27132692463723
 20
51.29106017040016
 10
41.232385090406375
 20
51.383166269800455
 10
41.19344325617552
 20
51.47527236920074
 10
41.15450142194466
 20
51.567378468601035
 10
41.11555958771381
 20
51.65948456800132
 10
41.07661775348296
 20
51.7515906674016
 10
41.0376759192521
 20
51.8436967668019
 10
40.99873408502125
 20
51.93580286620218
 10
40.959792250790386
 20
52.02790896560248
 10
40.92085041655954
 20
52.12001506500276
 10
40.881908582328684
 20
52.212121164403044
 10
40.84296674809783
 20
52.30422726380334
 10
40.804024913866975
 20
52.396333363203624
 10
40.76508307963611
 20
52.48843946260392
 10
40.726141245405266
 20
52.580545562004204
 10
40.68719941117441
 20
52.67265166140449
 10
40.64825757694356
 20
52.764757760804784
 10
40.6093157427127
 20
52.85686386020507
 10
40.57037390848184
 20
52.948969959605364
 10
40.53143207425099
 20
53.04107605900565
 10
40.49249024002014
 20
53.13318215840593
 10
40.453548405789284
 20
53.22528825780623
 10
40.41460657155843
 20
53.31739435720651
 10
40.37566473732757
 20
53.40950045660681
 10
40.33672290309672
 20
53.50160655600709
 10
40.297781068865866
 20
53.59371265540737
 10
40.25883923463501
 20
53.68581875480767
 10
40.21989740040416
 20
53.77792485420795
 10
40.180955566173296
 20
53.87003095360825
 10
40.14201373194245
 20
53.96213705300853
 10
40.103071897711594
 20
54.054243152408816
 10
40.06413006348074
 20
54.14634925180911
 10
40.025188229249885
 20
54.238455351209396
 10
39.98624639501902
 20
54.33056145060969
 10
39.947304560788176
 20
54.422667550009976
 10
39.90836272655732
 20
54.51477364941026
 10
39.86942089232647
 20
54.606879748810556
 10
39.83047905809561
 20
54.69898584821084
 10
39.79153722386475
 20
54.791091947611136
 10
39.7525953896339
 20
54.88319804701142
 10
39.71365355540305
 20
54.9753041464117
 10
39.674711721172194
 20
55.067410245812
 10
39.63576988694134
 20
55.15951634521228
 10
39.59682805271048
 20
55.25162244461258
 10
39.55788621847963
 20
55.34372854401286
 10
39.518944384248776
 20
55.435834643413145
 10
39.48000255001792
 20
55.52794074281344
 10
39.44106071578707
 20
55.620046842213725
 10
39.402118881556206
 20
55.71215294161402
 10
39.36317704732536
 20
55.804259041014305
 10
39.324235213094504
 20
55.89636514041459
 10
39.28529337886365
 20
55.988471239814885
 10
39.246351544632795
 20
56.08057733921517
 10
39.20740971040193
 20
56.172683438615465
 10
39.168467876171086
 20
56.26478953801575
 10
39.12952604194023
 20
56.35689563741603
 10
39.09058420770938
 20
56.44900173681633
 10
39.05164237347852
 20
56.54110783621661
 10
39.01270053924766
 20
56.63321393561691
 10
38.97375870501681
 20
56.72532003501719
 10
38.93481687078596
 20
56.817426134417474
 10
38.895875036555104
 20
56.90953223381777
 10
38.85693320232425
 20
57.001638333218054
 10
38.81799136809339
 20
57.09374443261835
 10
38.77904953386254
 20
57.185850532018634
 10
38.740107699631686
 20
57.27795663141892
 10
38.70116586540083
 20
57.370062730819214
 10
38.66222403116998
 20
57.4621688302195
 10
38.623282196939115
 20
57.554274929619794
 10
38.58434036270827
 20
57.64638102902008
 10
38.54539852847741
 20
57.73848712842036
 10
38.50645669424656
 20
57.83059322782066
 10
38.467514860015704
 20
57.92269932722094
 10
38.440255576054106
 20
57.987173596801135
  0
ENDSEC
  0
SECTION
  2
OBJECTS
  0
DICTIONARY
  5
A
330
0
100
AcDbDictionary
281
1
  3
ACAD_COLOR
350
B
  3
ACAD_GROUP
350
C
  3
ACAD_LAYOUT
350
D
  3
ACAD_MATERIAL
350
E
  3
ACAD_MLEADERSTYLE
350
F
  3
ACAD_MLINESTYLE
350
10
  3
ACAD_PLOTSETTINGS
350
11
  3
ACAD_PLOTSTYLENAME
350
12
  3
ACAD_SCALELIST
350
14
  3
ACAD_TABLESTYLE
350
15
  3
ACAD_VISUALSTYLE
350
16
  3
EZDXF_META
350
2D
  0
DICTIONARY
  5
B
330
A
100
AcDbDictionary
281
1
  0
DICTIONARY
  5
C
330
A
100
AcDbDictionary
281
1
  0
DICTIONARY
  5
D
330
A
100
AcDbDictionary
281
1
  3
Model
350
1A
  3
Layout1
350
1E
  0
DICTIONARY
  5
E
330
A
100
AcDbDictionary
281
1
  3
ByBlock
350
1F
  3
ByLayer
350
20
  3
Global
350
21
  0
DICTIONARY
  5
F
330
A
100
AcDbDictionary
281
1
  3
Standard
350
2C
  0
DICTIONARY
  5
10
330
A
100
AcDbDictionary
281
1
  3
Standard
350
22
  0
DICTIONARY
  5
11
330
A
100
AcDbDictionary
281
1
  0
ACDBDICTIONARYWDFLT
  5
12
330
A
100
AcDbDictionary
281
1
  3
Normal
350
13
100
AcDbDictionaryWithDefault
340
13
  0
ACDBPLACEHOLDER
  5
13
330
12
  0
DICTIONARY
  5
14
330
A
100
AcDbDictionary
281
1
  0
DICTIONARY
  5
15
330
A
100
AcDbDictionary
281
1
  0
DICTIONARY
  5
16
330
A
100
AcDbDictionary
281
1
  0
LAYOUT
  5
1A
330
D
100
AcDbPlotSettings
  1

  4
A3
  6

 40
7.5
 41
20.0
 42
7.5
 43
20.0
 44
420.0
 45
297.0
 46
0.0
 47
0.0
 48
0.0
 49
0.0
140
0.0
141
0.0
142
1.0
143
1.0
 70
1024
 72
1
 73
0
 74
5
  7

 75
16
 76
0
 77
2
 78
300
147
1.0
148
0.0
149
0.0
100
AcDbLayout
  1
Model
 70
1
 71
0
 10
0.0
 20
0.0
 11
420.0
 21
297.0
 12
0.0
 22
0.0
 32
0.0
 14
1e+20
 24
1e+20
 34
1e+20
 15
-1e+20
 25
-1e+20
 35
-1e+20
146
0.0
 13
0.0
 23
0.0
 33
0.0
 16
1.0
 26
0.0
 36
0.0
 17
0.0
 27
1.0
 37
0.0
 76
1
330
17
  0
LAYOUT
  5
1E
330
D
100
AcDbPlotSettings
  1

  4
A3
  6

 40
7.5
 41
20.0
 42
7.5
 43
20.0
 44
420.0
 45
297.0
 46
0.0
 47
0.0
 48
0.0
 49
0.0
140
0.0
141
0.0
142
1.0
143
1.0
 70
0
 72
1
 73
0
 74
5
  7

 75
16
 76
0
 77
2
 78
300
147
1.0
148
0.0
149
0.0
100
AcDbLayout
  1
Layout1
 70
1
 71
1
 10
0.0
 20
0.0
 11
420.0
 21
297.0
 12
0.0
 22
0.0
 32
0.0
 14
1e+20
 24
1e+20
 34
1e+20
 15
-1e+20
 25
-1e+20
 35
-1e+20
146
0.0
 13
0.0
 23
0.0
 33
0.0
 16
1.0
 26
0.0
 36
0.0
 17
0.0
 27
1.0
 37
0.0
 76
1
330
1B
  0
MATERIAL
  5
1F
102
{ACAD_REACTORS
330
E
102
}
330
E
100
AcDbMaterial
  1
ByBlock
  2

 70
0
 40
1.0
 71
1
 41
1.0
 91
-1023410177
 42
1.0
 72
1
  3

 73
1
 74
1
 75
1
 44
0.5
 73
0
 45
1.0
 46
1.0
 77
1
  4

 78
1
 79
1
170
1
 48
1.0
171
1
  6

172
1
173
1
174
1
140
1.0
141
1.0
175
1
  7

176
1
177
1
178
1
143
1.0
179
1
  8

270
1
271
1
272
1
145
1.0
146
1.0
273
1
  9

274
1
275
1
276
1
 42
1.0
 72
1
  3

 73
1
 74
1
 75
1
 94
63
  0
MATERIAL
  5
20
102
{ACAD_REACTORS
330
E
102
}
330
E
100
AcDbMaterial
  1
ByLayer
  2

 70
0
 40
1.0
 71
1
 41
1.0
 91
-1023410177
 42
1.0
 72
1
  3

 73
1
 74
1
 75
1
 44
0.5
 73
0
 45
1.0
 46
1.0
 77
1
  4

 78
1
 79
1
170
1
 48
1.0
171
1
  6

172
1
173
1
174
1
140
1.0
141
1.0
175
1
  7

176
1
177
1
178
1
143
1.0
179
1
  8

270
1
271
1
272
1
145
1.0
146
1.0
273
1
  9

274
1
275
1
276
1
 42
1.0
 72
1
  3

 73
1
 74
1
 75
1
 94
63
  0
MATERIAL
  5
21
102
{ACAD_REACTORS
330
E
102
}
330
E
100
AcDbMaterial
  1
Global
  2

 70
0
 40
1.0
 71
1
 41
1.0
 91
-1023410177
 42
1.0
 72
1
  3

 73
1
 74
1
 75
1
 44
0.5
 73
0
 45
1.0
 46
1.0
 77
1
  4

 78
1
 79
1
170
1
 48
1.0
171
1
  6

172
1
173
1
174
1
140
1.0
141
1.0
175
1
  7

176
1
177
1
178
1
143
1.0
179
1
  8

270
1
271
1
272
1
145
1.0
146
1.0
273
1
  9

274
1
275
1
276
1
 42
1.0
 72
1
  3

 73
1
 74
1
 75
1
 94
63
  0
MLINESTYLE
  5
22
102
{ACAD_REACTORS
330
10
102
}
330
10
100
AcDbMlineStyle
  2
Standard
 70
0
  3

 62
256
 51
90.0
 52
90.0
 71
2
 49
0.5
 62
256
  6
BYLAYER
 49
-0.5
 62
256
  6
BYLAYER
  0
MLEADERSTYLE
  5
2C
102
{ACAD_REACTORS
330
F
102
}
330
F
100
AcDbMLeaderStyle
179
2
170
2
171
1
172
0
 90
2
 40
0.0
 41
0.0
173
1
 91
-1056964608
 92
-2
290
1
 42
2.0
291
1
 43
8.0
  3
Standard
 44
4.0
300

342
29
174
1
175
1
176
0
178
1
 93
-1056964608
 45
4.0
292
0
297
0
 46
4.0
 94
-1056964608
 47
1.0
 49
1.0
140
1.0
294
1
141
0.0
177
0
142
1.0
295
0
296
0
143
3.75
271
0
272
9
273
9
  0
DICTIONARY
  5
2D
330
A
100
AcDbDictionary
280
1
281
1
  3
CREATED_BY_EZDXF
350
2E
  3
WRITTEN_BY_EZDXF
350
33
  0
DICTIONARYVAR
  5
2E
330
2D
100
DictionaryVariables
280
0
  1
1.4.4 @ 2026-07-07T16:26:25.448615+00:00
  0
DICTIONARYVAR
  5
33
330
2D
100
DictionaryVariables
280
0
  1
1.4.4 @ 2026-07-07T16:26:25.455250+00:00
  0
ENDSEC
  0
EOF
