  0
SECTION
  2
HEADER
  9
$ACADVER
  1
AC1024
  9
$ACADMAINTVER
 70
6
  9
$DWGCODEPAGE
  3
ANSI_1252
  9
$LASTSAVEDBY
  1
ezdxf
  9
$INSBASE
 10
0.0
 20
0.0
 30
0.0
  9
$EXTMIN
 10
1e+20
 20
1e+20
 30
1e+20
  9
$EXTMAX
 10
-1e+20
 20
-1e+20
 30
-1e+20
  9
$LIMMIN
 10
0.0
 20
0.0
  9
$LIMMAX
 10
420.0
 20
297.0
  9
$ORTHOMODE
 70
0
  9
$REGENMODE
 70
1
  9
$FILLMODE
 70
1
  9
$QTEXTMODE
 70
0
  9
$MIRRTEXT
 70
1
  9
$LTSCALE
 40
1.0
  9
$ATTMODE
 70
1
  9
$TEXTSIZE
 40
2.5
  9
$TRACEWID
 40
1.0
  9
$TEXTSTYLE
  7
Standard
  9
$CLAYER
  8
0
  9
$CELTYPE
  6
ByLayer
  9
$CECOLOR
 62
256
  9
$CELTSCALE
 40
1.0
  9
$DISPSILH
 70
0
  9
$DIMSCALE
 40
1.0
  9
$DIMASZ
 40
2.5
  9
$DIMEXO
 40
0.625
  9
$DIMDLI
 40
3.75
  9
$DIMRND
 40
0.0
  9
$DIMDLE
 40
0.0
  9
$DIMEXE
 40
1.25
  9
$DIMTP
 40
0.0
  9
$DIMTM
 40
0.0
  9
$DIMTXT
 40
2.5
  9
$DIMCEN
 40
2.5
  9
$DIMTSZ
 40
0.0
  9
$DIMTOL
 70
0
  9
$DIMLIM
 70
0
  9
$DIMTIH
 70
0
  9
$DIMTOH
 70
0
  9
$DIMSE1
 70
0
  9
$DIMSE2
 70
0
  9
$DIMTAD
 70
1
  9
$DIMZIN
 70
8
  9
$DIMBLK
  1

  9
$DIMASO
 70
1
  9
$DIMSHO
 70
1
  9
$DIMPOST
  1

  9
$DIMAPOST
  1

  9
$DIMALT
 70
0
  9
$DIMALTD
 70
3
  9
$DIMALTF
 40
0.03937007874
  9
$DIMLFAC
 40
1.0
  9
$DIMTOFL
 70
1
  9
$DIMTVP
 40
0.0
  9
$DIMTIX
 70
0
  9
$DIMSOXD
 70
0
  9
$DIMSAH
 70
0
  9
$DIMBLK1
  1

  9
$DIMBLK2
  1

  9
$DIMSTYLE
  2
ISO-25
  9
$DIMCLRD
 70
0
  9
$DIMCLRE
 70
0
  9
$DIMCLRT
 70
0
  9
$DIMTFAC
 40
1.0
  9
$DIMGAP
 40
0.625
  9
$DIMJUST
 70
0
  9
$DIMSD1
 70
0
  9
$DIMSD2
 70
0
  9
$DIMTOLJ
 70
0
  9
$DIMTZIN
 70
8
  9
$DIMALTZ
 70
0
  9
$DIMALTTZ
 70
0
  9
$DIMUPT
 70
0
  9
$DIMDEC
 70
2
  9
$DIMTDEC
 70
2
  9
$DIMALTU
 70
2
  9
$DIMALTTD
 70
3
  9
$DIMTXSTY
  7
Standard
  9
$DIMAUNIT
 70
0
  9
$DIMADEC
 70
0
  9
$DIMALTRND
 40
0.0
  9
$DIMAZIN
 70
0
  9
$DIMDSEP
 70
44
  9
$DIMATFIT
 70
3
  9
$DIMFRAC
 70
0
  9
$DIMLDRBLK
  1

  9
$DIMLUNIT
 70
2
  9
$DIMLWD
 70
-2
  9
$DIMLWE
 70
-2
  9
$DIMTMOVE
 70
0
  9
$DIMFXL
 40
1.0
  9
$DIMFXLON
 70
0
  9
$DIMJOGANG
 40
0.785398163397
  9
$DIMTFILL
 70
0
  9
$DIMTFILLCLR
 70
0
  9
$DIMARCSYM
 70
0
  9
$DIMLTYPE
  6

  9
$DIMLTEX1
  6

  9
$DIMLTEX2
  6

  9
$DIMTXTDIRECTION
 70
0
  9
$LUNITS
 70
2
  9
$LUPREC
 70
4
  9
$SKETCHINC
 40
1.0
  9
$FILLETRAD
 40
10.0
  9
$AUNITS
 70
0
  9
$AUPREC
 70
2
  9
$MENU
  1
.
  9
$ELEVATION
 40
0.0
  9
$PELEVATION
 40
0.0
  9
$THICKNESS
 40
0.0
  9
$LIMCHECK
 70
0
  9
$CHAMFERA
 40
0.0
  9
$CHAMFERB
 40
0.0
  9
$CHAMFERC
 40
0.0
  9
$CHAMFERD
 40
0.0
  9
$SKPOLY
 70
0
  9
$TDCREATE
 40
2461229.685011574
  9
$TDUCREATE
 40
2458532.153996898
  9
$TDUPDATE
 40
2461229.685011574
  9
$TDUUPDATE
 40
2458532.1544311
  9
$TDINDWG
 40
0.0
  9
$TDUSRTIMER
 40
0.0
  9
$USRTIMER
 70
1
  9
$ANGBASE
 50
0.0
  9
$ANGDIR
 70
0
  9
$PDMODE
 70
0
  9
$PDSIZE
 40
0.0
  9
$PLINEWID
 40
0.0
  9
$SPLFRAME
 70
0
  9
$SPLINETYPE
 70
6
  9
$SPLINESEGS
 70
8
  9
$HANDSEED
  5
34
  9
$SURFTAB1
 70
6
  9
$SURFTAB2
 70
6
  9
$SURFTYPE
 70
6
  9
$SURFU
 70
6
  9
$SURFV
 70
6
  9
$UCSBASE
  2

  9
$UCSNAME
  2

  9
$UCSORG
 10
0.0
 20
0.0
 30
0.0
  9
$UCSXDIR
 10
1.0
 20
0.0
 30
0.0
  9
$UCSYDIR
 10
0.0
 20
1.0
 30
0.0
  9
$UCSORTHOREF
  2

  9
$UCSORTHOVIEW
 70
0
  9
$UCSORGTOP
 10
0.0
 20
0.0
 30
0.0
  9
$UCSORGBOTTOM
 10
0.0
 20
0.0
 30
0.0
  9
$UCSORGLEFT
 10
0.0
 20
0.0
 30
0.0
  9
$UCSORGRIGHT
 10
0.0
 20
0.0
 30
0.0
  9
$UCSORGFRONT
 10
0.0
 20
0.0
 30
0.0
  9
$UCSORGBACK
 10
0.0
 20
0.0
 30
0.0
  9
$PUCSBASE
  2

  9
$PUCSNAME
  2

  9
$PUCSORG
 10
0.0
 20
0.0
 30
0.0
  9
$PUCSXDIR
 10
1.0
 20
0.0
 30
0.0
  9
$PUCSYDIR
 10
0.0
 20
1.0
 30
0.0
  9
$PUCSORTHOREF
  2

  9
$PUCSORTHOVIEW
 70
0
  9
$PUCSORGTOP
 10
0.0
 20
0.0
 30
0.0
  9
$PUCSORGBOTTOM
 10
0.0
 20
0.0
 30
0.0
  9
$PUCSORGLEFT
 10
0.0
 20
0.0
 30
0.0
  9
$PUCSORGRIGHT
 10
0.0
 20
0.0
 30
0.0
  9
$PUCSORGFRONT
 10
0.0
 20
0.0
 30
0.0
  9
$PUCSORGBACK
 10
0.0
 20
0.0
 30
0.0
  9
$USERI1
 70
0
  9
$USERI2
 70
0
  9
$USERI3
 70
0
  9
$USERI4
 70
0
  9
$USERI5
 70
0
  9
$USERR1
 40
0.0
  9
$USERR2
 40
0.0
  9
$USERR3
 40
0.0
  9
$USERR4
 40
0.0
  9
$USERR5
 40
0.0
  9
$WORLDVIEW
 70
1
  9
$SHADEDGE
 70
3
  9
$SHADEDIF
 70
70
  9
$TILEMODE
 70
1
  9
$MAXACTVP
 70
64
  9
$PINSBASE
 10
0.0
 20
0.0
 30
0.0
  9
$PLIMCHECK
 70
0
  9
$PEXTMIN
 10
1e+20
 20
1e+20
 30
1e+20
  9
$PEXTMAX
 10
-1e+20
 20
-1e+20
 30
-1e+20
  9
$PLIMMIN
 10
0.0
 20
0.0
  9
$PLIMMAX
 10
420.0
 20
297.0
  9
$UNITMODE
 70
0
  9
$VISRETAIN
 70
1
  9
$PLINEGEN
 70
0
  9
$PSLTSCALE
 70
1
  9
$TREEDEPTH
 70
3020
  9
$CMLSTYLE
  2
Standard
  9
$CMLJUST
 70
0
  9
$CMLSCALE
 40
20.0
  9
$PROXYGRAPHICS
 70
1
  9
$MEASUREMENT
 70
1
  9
$CELWEIGHT
370
-1
  9
$ENDCAPS
280
0
  9
$JOINSTYLE
280
0
  9
$LWDISPLAY
290
0
  9
$INSUNITS
 70
6
  9
$HYPERLINKBASE
  1

  9
$STYLESHEET
  1

  9
$XEDIT
290
1
  9
$CEPSNTYPE
380
0
  9
$PSTYLEMODE
290
1
  9
$FINGERPRINTGUID
  2
{352C4587-9C3B-4870-AEE4-A80A70204C0A}
  9
$VERSIONGUID
  2
{82B67738-9084-4530-96C0-E66EEB2CED61}
  9
$EXTNAMES
290
1
  9
$PSVPSCALE
 40
0.0
  9
$OLESTARTUP
290
0
  9
$SORTENTS
280
127
  9
$INDEXCTL
280
0
  9
$HIDETEXT
280
1
  9
$XCLIPFRAME
280
1
  9
$HALOGAP
280
0
  9
$OBSCOLOR
 70
257
  9
$OBSLTYPE
280
0
  9
$INTERSECTIONDISPLAY
280
0
  9
$INTERSECTIONCOLOR
 70
257
  9
$DIMASSOC
280
2
  9
$PROJECTNAME
  1

  9
$CAMERADISPLAY
290
0
  9
$LENSLENGTH
 40
50.0
  9
$CAMERAHEIGHT
 40
0.0
  9
$STEPSPERSEC
 40
24.0
  9
$STEPSIZE
 40
100.0
  9
$3DDWFPREC
 40
2.0
  9
$PSOLWIDTH
 40
0.005
  9
$PSOLHEIGHT
 40
0.08
  9
$LOFTANG1
 40
1.570796326795
  9
$LOFTANG2
 40
1.570796326795
  9
$LOFTMAG1
 40
0.0
  9
$LOFTMAG2
 40
0.0
  9
$LOFTPARAM
 70
7
  9
$LOFTNORMALS
280
1
  9
$LATITUDE
 40
37.795
  9
$LONGITUDE
 40
-122.394
  9
$NORTHDIRECTION
 40
0.0
  9
$TIMEZONE
 70
-8000
  9
$LIGHTGLYPHDISPLAY
280
1
  9
$TILEMODELIGHTSYNCH
280
1
  9
$CMATERIAL
347
20
  9
$SOLIDHIST
280
0
  9
$SHOWHIST
280
1
  9
$DWFFRAME
280
2
  9
$DGNFRAME
280
2
  9
$REALWORLDSCALE
290
1
  9
$INTERFERECOLOR
 62
256
  9
$CSHADOW
280
0
  9
$SHADOWPLANELOCATION
 40
0.0
  0
ENDSEC
  0
SECTION
  2
CLASSES
  0
CLASS
  1
ACDBDICTIONARYWDFLT
  2
AcDbDictionaryWithDefault
  3
ObjectDBX Classes
 90
0
 91
0
280
0
281
0
  0
CLASS
  1
SUN
  2
AcDbSun
  3
SCENEOE
 90
1153
 91
0
280
0
281
0
  0
CLASS
  1
VISUALSTYLE
  2
AcDbVisualStyle
  3
ObjectDBX Classes
 90
4095
 91
0
280
0
281
0
  0
CLASS
  1
MATERIAL
  2
AcDbMaterial
  3
ObjectDBX Classes
 90
1153
 91
0
280
0
281
0
  0
CLASS
  1
SCALE
  2
AcDbScale
  3
ObjectDBX Classes
 90
1153
 91
0
280
0
281
0
  0
CLASS
  1
TABLESTYLE
  2
AcDbTableStyle
  3
ObjectDBX Classes
 90
4095
 91
0
280
0
281
0
  0
CLASS
  1
MLEADERSTYLE
  2
AcDbMLeaderStyle
  3
ACDB_MLEADERSTYLE_CLASS
 90
4095
 91
0
280
0
281
0
  0
CLASS
  1
DICTIONARYVAR
  2
AcDbDictionaryVar
  3
ObjectDBX Classes
 90
0
 91
0
280
0
281
0
  0
CLASS
  1
CELLSTYLEMAP
  2
AcDbCellStyleMap
  3
ObjectDBX Classes
 90
1152
 91
0
280
0
281
0
  0
CLASS
  1
MENTALRAYRENDERSETTINGS
  2
AcDbMentalRayRenderSettings
  3
SCENEOE
 90
1024
 91
0
280
0
281
0
  0
CLASS
  1
ACDBDETAILVIEWSTYLE
  2
AcDbDetailViewStyle
  3
ObjectDBX Classes
 90
1025
 91
0
280
0
281
0
  0
CLASS
  1
ACDBSECTIONVIEWSTYLE
  2
AcDbSectionViewStyle
  3
ObjectDBX Classes
 90
1025
 91
0
280
0
281
0
  0
CLASS
  1
RASTERVARIABLES
  2
AcDbRasterVariables
  3
ISM
 90
0
 91
0
280
0
281
0
  0
CLASS
  1
LAYOUT
  2
AcDbLayout
  3
ObjectDBX Classes
 90
0
 91
0
280
0
281
0
  0
CLASS
  1
ACDBPLACEHOLDER
  2
AcDbPlaceHolder
  3
ObjectDBX Classes
 90
0
 91
0
280
0
281
0
  0
ENDSEC
  0
SECTION
  2
TABLES
  0
TABLE
  2
VPORT
  5
8
330
0
100
AcDbSymbolTable
 70
1
  0
VPORT
  5
23
330
8
100
AcDbSymbolTableRecord
100
AcDbViewportTableRecord
  2
*Active
 70
0
 10
0.0
 20
0.0
 11
1.0
 21
1.0
 12
0.0
 22
0.0
 13
0.0
 23
0.0
 14
0.5
 24
0.5
 15
0.5
 25
0.5
 16
0.0
 26
0.0
 36
1.0
 17
0.0
 27
0.0
 37
0.0
 40
1000.0
 41
1.34
 42
50.0
 43
0.0
 44
0.0
 50
0.0
 51
0.0
 71
0
 72
1000
 73
1
 74
3
 75
0
 76
0
 77
0
 78
0
281
0
 65
0
146
0.0
  0
ENDTAB
  0
TABLE
  2
LTYPE
  5
2
330
0
100
AcDbSymbolTable
 70
3
  0
LTYPE
  5
24
330
2
100
AcDbSymbolTableRecord
100
AcDbLinetypeTableRecord
  2
ByBlock
 70
0
  3

 72
65
 73
0
 40
0.0
  0
LTYPE
  5
25
330
2
100
AcDbSymbolTableRecord
100
AcDbLinetypeTableRecord
  2
ByLayer
 70
0
  3

 72
65
 73
0
 40
0.0
  0
LTYPE
  5
26
330
2
100
AcDbSymbolTableRecord
100
AcDbLinetypeTableRecord
  2
Continuous
 70
0
  3

 72
65
 73
0
 40
0.0
  0
ENDTAB
  0
TABLE
  2
LAYER
  5
1
330
0
100
AcDbSymbolTable
 70
3
  0
LAYER
  5
27
330
1
100
AcDbSymbolTableRecord
100
AcDbLayerTableRecord
  2
0
 70
0
 62
7
  6
Continuous
370
-3
390
13
347
21
  0
LAYER
  5
28
330
1
100
AcDbSymbolTableRecord
100
AcDbLayerTableRecord
  2
Defpoints
 70
0
 62
7
  6
Continuous
290
0
370
-3
390
13
347
21
  0
LAYER
  5
2F
330
1
100
AcDbSymbolTableRecord
100
AcDbLayerTableRecord
  2
EJE_VIA
 70
0
 62
3
  6
Continuous
370
-3
390
13
347
21
  0
ENDTAB
  0
TABLE
  2
STYLE
  5
5
330
0
100
AcDbSymbolTable
 70
1
  0
STYLE
  5
29
330
5
100
AcDbSymbolTableRecord
100
AcDbTextStyleTableRecord
  2
Standard
 70
0
 40
0.0
 41
1.0
 50
0.0
 71
0
 42
2.5
  3
txt
  4

  0
ENDTAB
  0
TABLE
  2
VIEW
  5
7
330
0
100
AcDbSymbolTable
 70
0
  0
ENDTAB
  0
TABLE
  2
UCS
  5
6
330
0
100
AcDbSymbolTable
 70
0
  0
ENDTAB
  0
TABLE
  2
APPID
  5
3
330
0
100
AcDbSymbolTable
 70
3
  0
APPID
  5
2A
330
3
100
AcDbSymbolTableRecord
100
AcDbRegAppTableRecord
  2
ACAD
 70
0
  0
APPID
  5
31
330
3
100
AcDbSymbolTableRecord
100
AcDbRegAppTableRecord
  2
HATCHBACKGROUNDCOLOR
 70
0
  0
APPID
  5
32
330
3
100
AcDbSymbolTableRecord
100
AcDbRegAppTableRecord
  2
EZDXF
 70
0
  0
ENDTAB
  0
TABLE
  2
DIMSTYLE
  5
4
330
0
100
AcDbSymbolTable
 70
1
100
AcDbDimStyleTable
  0
DIMSTYLE
105
2B
330
4
100
AcDbSymbolTableRecord
100
AcDbDimStyleTableRecord
  2
Standard
 70
0
 40
1.0
 41
2.5
 42
0.625
 43
3.75
 44
1.25
 45
0.0
 46
0.0
 47
0.0
 48
0.0
 49
2.5
140
2.5
141
2.5
142
0.0
143
0.03937007874
144
1.0
145
0.0
146
1.0
147
0.625
148
0.0
 69
0
 70
0
 71
0
 72
0
 73
0
 74
0
 75
0
 76
0
 77
1
 78
8
 79
3
170
0
171
3
172
1
173
0
174
0
175
0
176
0
177
0
178
0
179
2
271
2
272
2
273
2
274
3
275
0
276
0
277
2
278
44
279
0
280
0
281
0
282
0
283
0
284
8
285
0
286
0
288
0
289
3
290
0
371
-2
372
-2
  0
ENDTAB
  0
TABLE
  2
BLOCK_RECORD
  5
9
330
0
100
AcDbSymbolTable
 70
2
  0
BLOCK_RECORD
  5
17
330
9
100
AcDbSymbolTableRecord
100
AcDbBlockTableRecord
  2
*Model_Space
340
1A
 70
0
280
1
281
0
  0
BLOCK_RECORD
  5
1B
330
9
100
AcDbSymbolTableRecord
100
AcDbBlockTableRecord
  2
*Paper_Space
340
1E
 70
0
280
1
281
0
  0
ENDTAB
  0
ENDSEC
  0
SECTION
  2
BLOCKS
  0
BLOCK
  5
18
330
17
100
AcDbEntity
  8
0
100
AcDbBlockBegin
  2
*Model_Space
 70
0
 10
0.0
 20
0.0
 30
0.0
  3
*Model_Space
  1

  0
ENDBLK
  5
19
330
17
100
AcDbEntity
  8
0
100
AcDbBlockEnd
  0
BLOCK
  5
1C
330
1B
100
AcDbEntity
  8
0
100
AcDbBlockBegin
  2
*Paper_Space
 70
0
 10
0.0
 20
0.0
 30
0.0
  3
*Paper_Space
  1

  0
ENDBLK
  5
1D
330
1B
100
AcDbEntity
  8
0
100
AcDbBlockEnd
  0
ENDSEC
  0
SECTION
  2
ENTITIES
  0
LWPOLYLINE
  5
30
330
17
100
AcDbEntity
  8
EJE_VIA
100
AcDbPolyline
 90
1787
 70
0
 10
0.0
 20
0.0
 10
0.1
 20
0.0
 10
0.2
 20
0.0
 10
0.30000000000000004
 20
0.0
 10
0.4
 20
0.0
 10
0.5
 20
0.0
 10
0.6000000000000001
 20
0.0
 10
0.7000000000000001
 20
0.0
 10
0.8
 20
0.0
 10
0.9
 20
0.0
 10
1.0
 20
0.0
 10
1.1
 20
0.0
 10
1.2000000000000002
 20
0.0
 10
1.3
 20
0.0
 10
1.4000000000000001
 20
0.0
 10
1.5
 20
0.0
 10
1.6
 20
0.0
 10
1.7000000000000002
 20
0.0
 10
1.8
 20
0.0
 10
1.9000000000000001
 20
0.0
 10
2.0
 20
0.0
 10
2.1
 20
0.0
 10
2.2
 20
0.0
 10
2.3000000000000003
 20
0.0
 10
2.4000000000000004
 20
0.0
 10
2.5
 20
0.0
 10
2.6
 20
0.0
 10
2.7
 20
0.0
 10
2.8000000000000003
 20
0.0
 10
2.9000000000000004
 20
0.0
 10
3.0
 20
0.0
 10
3.1
 20
0.0
 10
3.2
 20
0.0
 10
3.3000000000000003
 20
0.0
 10
3.4000000000000004
 20
0.0
 10
3.5
 20
0.0
 10
3.6
 20
0.0
 10
3.7
 20
0.0
 10
3.8000000000000003
 20
0.0
 10
3.9000000000000004
 20
0.0
 10
4.0
 20
0.0
 10
4.1000000000000005
 20
0.0
 10
4.2
 20
0.0
 10
4.3
 20
0.0
 10
4.4
 20
0.0
 10
4.5
 20
0.0
 10
4.6000000000000005
 20
0.0
 10
4.7
 20
0.0
 10
4.800000000000001
 20
0.0
 10
4.9
 20
0.0
 10
5.0
 20
0.0
 10
5.1000000000000005
 20
0.0
 10
5.2
 20
0.0
 10
5.300000000000001
 20
0.0
 10
5.4
 20
0.0
 10
5.5
 20
0.0
 10
5.6000000000000005
 20
0.0
 10
5.7
 20
0.0
 10
5.800000000000001
 20
0.0
 10
5.9
 20
0.0
 10
6.0
 20
0.0
 10
6.1000000000000005
 20
0.0
 10
6.2
 20
0.0
 10
6.300000000000001
 20
0.0
 10
6.4
 20
0.0
 10
6.5
 20
0.0
 10
6.6000000000000005
 20
0.0
 10
6.7
 20
0.0
 10
6.800000000000001
 20
0.0
 10
6.9
 20
0.0
 10
7.0
 20
0.0
 10
7.1000000000000005
 20
0.0
 10
7.2
 20
0.0
 10
7.300000000000001
 20
0.0
 10
7.4
 20
0.0
 10
7.5
 20
0.0
 10
7.6000000000000005
 20
0.0
 10
7.7
 20
0.0
 10
7.800000000000001
 20
0.0
 10
7.9
 20
0.0
 10
8.0
 20
0.0
 10
8.1
 20
0.0
 10
8.200000000000001
 20
0.0
 10
8.3
 20
0.0
 10
8.4
 20
0.0
 10
8.5
 20
0.0
 10
8.6
 20
0.0
 10
8.700000000000001
 20
0.0
 10
8.8
 20
0.0
 10
8.9
 20
0.0
 10
9.0
 20
0.0
 10
9.1
 20
0.0
 10
9.200000000000001
 20
0.0
 10
9.3
 20
0.0
 10
9.4
 20
0.0
 10
9.5
 20
0.0
 10
9.600000000000001
 20
0.0
 10
9.700000000000001
 20
0.0
 10
9.8
 20
0.0
 10
9.9
 20
0.0
 10
10.0
 20
0.0
 10
10.100000000000001
 20
0.0
 10
10.200000000000001
 20
0.0
 10
10.3
 20
0.0
 10
10.4
 20
0.0
 10
10.5
 20
0.0
 10
10.600000000000001
 20
0.0
 10
10.700000000000001
 20
0.0
 10
10.8
 20
0.0
 10
10.9
 20
0.0
 10
11.0
 20
0.0
 10
11.100000000000001
 20
0.0
 10
11.200000000000001
 20
0.0
 10
11.3
 20
0.0
 10
11.4
 20
0.0
 10
11.5
 20
0.0
 10
11.600000000000001
 20
0.0
 10
11.700000000000001
 20
0.0
 10
11.8
 20
0.0
 10
11.9
 20
0.0
 10
12.0
 20
0.0
 10
12.100000000000001
 20
0.0
 10
12.200000000000001
 20
0.0
 10
12.3
 20
0.0
 10
12.4
 20
0.0
 10
12.5
 20
0.0
 10
12.600000000000001
 20
0.0
 10
12.700000000000001
 20
0.0
 10
12.8
 20
0.0
 10
12.9
 20
0.0
 10
13.0
 20
0.0
 10
13.100000000000001
 20
0.0
 10
13.200000000000001
 20
0.0
 10
13.3
 20
0.0
 10
13.4
 20
0.0
 10
13.5
 20
0.0
 10
13.600000000000001
 20
0.0
 10
13.700000000000001
 20
0.0
 10
13.8
 20
0.0
 10
13.9
 20
0.0
 10
14.0
 20
0.0
 10
14.100000000000001
 20
0.0
 10
14.200000000000001
 20
0.0
 10
14.3
 20
0.0
 10
14.4
 20
0.0
 10
14.5
 20
0.0
 10
14.600000000000001
 20
0.0
 10
14.700000000000001
 20
0.0
 10
14.8
 20
0.0
 10
14.9
 20
0.0
 10
15.0
 20
0.0
 10
15.100000000000001
 20
0.0
 10
15.200000000000001
 20
0.0
 10
15.3
 20
0.0
 10
15.4
 20
0.0
 10
15.5
 20
0.0
 10
15.600000000000001
 20
0.0
 10
15.700000000000001
 20
0.0
 10
15.8
 20
0.0
 10
15.9
 20
0.0
 10
16.0
 20
0.0
 10
16.1
 20
0.0
 10
16.2
 20
0.0
 10
16.3
 20
0.0
 10
16.400000000000002
 20
0.0
 10
16.5
 20
0.0
 10
16.6
 20
0.0
 10
16.7
 20
0.0
 10
16.8
 20
0.0
 10
16.900000000000002
 20
0.0
 10
17.0
 20
0.0
 10
17.1
 20
0.0
 10
17.2
 20
0.0
 10
17.3
 20
0.0
 10
17.400000000000002
 20
0.0
 10
17.5
 20
0.0
 10
17.6
 20
0.0
 10
17.7
 20
0.0
 10
17.8
 20
0.0
 10
17.900000000000002
 20
0.0
 10
18.0
 20
0.0
 10
18.1
 20
0.0
 10
18.2
 20
0.0
 10
18.3
 20
0.0
 10
18.400000000000002
 20
0.0
 10
18.5
 20
0.0
 10
18.6
 20
0.0
 10
18.7
 20
0.0
 10
18.8
 20
0.0
 10
18.900000000000002
 20
0.0
 10
19.0
 20
0.0
 10
19.1
 20
0.0
 10
19.200000000000003
 20
0.0
 10
19.3
 20
0.0
 10
19.400000000000002
 20
0.0
 10
19.5
 20
0.0
 10
19.6
 20
0.0
 10
19.700000000000003
 20
0.0
 10
19.8
 20
0.0
 10
19.900000000000002
 20
0.0
 10
20.0
 20
0.0
 10
20.1
 20
0.0
 10
20.200000000000003
 20
0.0
 10
20.3
 20
0.0
 10
20.400000000000002
 20
0.0
 10
20.5
 20
0.0
 10
20.6
 20
0.0
 10
20.700000000000003
 20
0.0
 10
20.8
 20
0.0
 10
20.900000000000002
 20
0.0
 10
21.0
 20
0.0
 10
21.1
 20
0.0
 10
21.200000000000003
 20
0.0
 10
21.3
 20
0.0
 10
21.400000000000002
 20
0.0
 10
21.5
 20
0.0
 10
21.6
 20
0.0
 10
21.700000000000003
 20
0.0
 10
21.8
 20
0.0
 10
21.900000000000002
 20
0.0
 10
22.0
 20
0.0
 10
22.1
 20
0.0
 10
22.200000000000003
 20
0.0
 10
22.3
 20
0.0
 10
22.400000000000002
 20
0.0
 10
22.5
 20
0.0
 10
22.6
 20
0.0
 10
22.700000000000003
 20
0.0
 10
22.8
 20
0.0
 10
22.900000000000002
 20
0.0
 10
23.0
 20
0.0
 10
23.1
 20
0.0
 10
23.200000000000003
 20
0.0
 10
23.3
 20
0.0
 10
23.400000000000002
 20
0.0
 10
23.5
 20
0.0
 10
23.6
 20
0.0
 10
23.700000000000003
 20
0.0
 10
23.8
 20
0.0
 10
23.900000000000002
 20
0.0
 10
24.0
 20
0.0
 10
24.1
 20
0.0
 10
24.200000000000003
 20
0.0
 10
24.3
 20
0.0
 10
24.400000000000002
 20
0.0
 10
24.5
 20
0.0
 10
24.6
 20
0.0
 10
24.700000000000003
 20
0.0
 10
24.8
 20
0.0
 10
24.900000000000002
 20
0.0
 10
25.0
 20
0.0
 10
25.1
 20
0.0
 10
25.200000000000003
 20
0.0
 10
25.3
 20
0.0
 10
25.400000000000002
 20
0.0
 10
25.5
 20
0.0
 10
25.6
 20
0.0
 10
25.700000000000003
 20
0.0
 10
25.8
 20
0.0
 10
25.900000000000002
 20
0.0
 10
26.0
 20
0.0
 10
26.1
 20
0.0
 10
26.200000000000003
 20
0.0
 10
26.3
 20
0.0
 10
26.400000000000002
 20
0.0
 10
26.5
 20
0.0
 10
26.6
 20
0.0
 10
26.700000000000003
 20
0.0
 10
26.8
 20
0.0
 10
26.900000000000002
 20
0.0
 10
27.0
 20
0.0
 10
27.1
 20
0.0
 10
27.200000000000003
 20
0.0
 10
27.3
 20
0.0
 10
27.400000000000002
 20
0.0
 10
27.5
 20
0.0
 10
27.6
 20
0.0
 10
27.700000000000003
 20
0.0
 10
27.8
 20
0.0
 10
27.900000000000002
 20
0.0
 10
28.0
 20
0.0
 10
28.1
 20
0.0
 10
28.200000000000003
 20
0.0
 10
28.3
 20
0.0
 10
28.400000000000002
 20
0.0
 10
28.5
 20
0.0
 10
28.6
 20
0.0
 10
28.700000000000003
 20
0.0
 10
28.8
 20
0.0
 10
28.900000000000002
 20
0.0
 10
29.0
 20
0.0
 10
29.1
 20
0.0
 10
29.200000000000003
 20
0.0
 10
29.3
 20
0.0
 10
29.400000000000002
 20
0.0
 10
29.5
 20
0.0
 10
29.6
 20
0.0
 10
29.700000000000003
 20
0.0
 10
29.8
 20
0.0
 10
29.900000000000002
 20
0.0
 10
30.0
 20
0.0
 10
30.099999999999937
 20
8.374999999996508e-08
 10
30.199999999997992
 20
6.674999999952266e-07
 10
30.29999999998478
 20
2.2512499999183382e-06
 10
30.399999999935932
 20
5.334999999389228e-06
 10
30.499999999804555
 20
1.0418749997089496e-05
 10
30.599999999513773
 20
1.8002499989575717e-05
 10
30.699999998949206
 20
2.8586249969340708e-05
 10
30.799999997951463
 20
4.26699999219384e-05
 10
30.899999996308672
 20
6.075374982198572e-05
 10
30.99999999374895
 20
8.333749962784599e-05
 10
31.099999989932922
 20
0.00011092124927482157
 10
31.199999984446197
 20
0.00014400499866664847
 10
31.299999976791895
 20
0.00018308874766512264
 10
31.399999966383145
 20
0.00022867249607766744
 10
31.49999995253555
 20
0.0002812562436426357
 10
31.59999993445974
 20
0.0003413399900121976
 10
31.699999911253826
 20
0.00040942373473257796
 10
31.79999988189593
 20
0.00048600747722149783
 10
31.89999984523668
 20
0.0005715912167426218
 10
31.999999799991684
 20
0.0006666749523767874
 10
32.09999974473407
 20
0.0007717586829899045
 10
32.19999967788694
 20
0.0008873424071972453
 10
32.29999959771594
 20
0.0010139261233240192
 10
32.39999950232166
 20
0.0011520098293619843
 10
32.49999938963226
 20
0.001302093522921989
 10
32.59999925739582
 20
0.0014646772011820974
 10
32.699999103172985
 20
0.001640260860831318
 10
32.79999892432937
 20
0.0018293444980085939
 10
32.89999871802808
 20
0.002032428108236911
 10
32.99999848122227
 20
0.002250011686352419
 10
33.09999821064754
 20
0.0024825952264281624
 10
33.199997902814545
 20
0.002730678721692507
 10
33.29999755400138
 20
0.002994762164441877
 10
33.39999716024619
 20
0.003275345545947674
 10
33.499996717339606
 20
0.0035729288563572945
 10
33.59999622081727
 20
0.003888012084588761
 10
33.69999566595231
 20
0.0042210952182191765
 10
33.79999504774786
 20
0.00457267824336652
 10
33.899994360929576
 20
0.004943261144564677
 10
33.9999935999381
 20
0.005333343904631677
 10
34.099992758921594
 20
0.0057434265045305365
 10
34.199991831728205
 20
0.006174008923223052
 10
34.2999908118986
 20
0.00662559113751596
 10
34.39998969265846
 20
0.00709867312189941
 10
34.49998846691096
 20
0.007593754848377721
 10
34.5999871272293
 20
0.008111336286291754
 10
34.69998566584917
 20
0.008651917402133351
 10
34.79998407466128
 20
0.009215998159351188
 10
34.899982345203846
 20
0.00980407851814798
 10
34.999980468655124
 20
0.010416658435269099
 10
35.09997843582586
 20
0.011054237863781763
 10
35.19997623715182
 20
0.011717316752845448
 10
35.2999738626863
 20
0.012406395047472745
 10
35.3999713020926
 20
0.013121972688280619
 10
35.49996854463656
 20
0.013864549611232183
 10
35.599965579179035
 20
0.01463462574736804
 10
35.69996239416841
 20
0.015432701022527978
 10
35.7999589776331
 20
0.016259275357062127
 10
35.899955317174054
 20
0.0171148486655316
 10
35.99995139995727
 20
0.01799992085639876
 10
36.09994721270626
 20
0.018914991831705984
 10
36.19994274169459
 20
0.01986056148674398
 10
36.299937972738356
 20
0.020837129709708576
 10
36.39993289118873
 20
0.021845196381346035
 10
36.49992748192446
 20
0.02288526137458712
 10
36.59992172934428
 20
0.02395782455416862
 10
36.699915617359565
 20
0.025063385776243636
 10
36.799909129386705
 20
0.026202444887979234
 10
36.89990224833967
 20
0.02737550172714182
 10
36.99989495662252
 20
0.028583056121670312
 10
37.09988723612194
 20
0.029825607889235738
 10
37.19987906819963
 20
0.03110365683678874
 10
37.29987043368494
 20
0.03241770276009355
 10
37.3998613128673
 20
0.033768245443248635
 10
37.49985168548879
 20
0.03515578465819431
 10
37.599841530736576
 20
0.03658082016420575
 10
37.69983082723546
 20
0.038043851707373066
 10
37.79981955304039
 20
0.039545379020066836
 10
37.89980768562898
 20
0.041085901820389376
 10
37.999795201893974
 20
0.04266591981161221
 10
38.09978207813578
 20
0.04428593268159767
 10
38.19976829005503
 20
0.04594644010220691
 10
38.29975381274498
 20
0.047647941728692376
 10
38.399738620684126
 20
0.049390937199075134
 10
38.49972268772869
 20
0.05117592613350677
 10
38.59970598710511
 20
0.05300340813361636
 10
38.69968849140259
 20
0.054873882781840376
 10
38.799670172565534
 20
0.05678784964073801
 10
38.89965100188616
 20
0.058745808252289755
 10
38.99963094999697
 20
0.06074825813717953
 10
39.09960998686328
 20
0.06279569879406126
 10
39.1995880817757
 20
0.0648886296988071
 10
39.299565203342716
 20
0.06702755030374051
 10
39.399541319483156
 20
0.06921296003685126
 10
39.4995163974187
 20
0.0714453583009935
 10
39.59949040366652
 20
0.07372524447306684
 10
39.69946330403162
 20
0.07605311790317863
 10
39.79943506359947
 20
0.07842947791378975
 10
39.899405646728525
 20
0.08085482379884176
 10
39.99937501704273
 20
0.08332965482286582
 10
40.099343137424086
 20
0.08585447022007407
 10
40.19930997000507
 20
0.08842976919343089
 10
40.2992754761613
 20
0.09105605091370698
 10
40.39923961650394
 20
0.09373381451851395
 10
40.49920235087232
 20
0.09646355911131935
 10
40.599163638326424
 20
0.0992457837604438
 10
40.69912343713948
 20
0.10208098749803653
 10
40.799081704790375
 20
0.10496966931903319
 10
40.8990383979563
 20
0.10791232818009289
 10
40.998993472505255
 20
0.11090946299851516
 10
41.09894688348858
 20
0.11396157265113784
 10
41.19889858513347
 20
0.11706915597321231
 10
41.298848530835585
 20
0.12023271175726043
 10
41.398796673151516
 20
0.12345273875190944
 10
41.498742963791365
 20
0.12672973566070617
 10
41.5986873536113
 20
0.13006420114091086
 10
41.698629792606106
 20
0.13345663380226774
 10
41.798570229901664
 20
0.13690753220575616
 10
41.89850861374759
 20
0.14041739486231913
 10
41.998444891509735
 20
0.1439867202315694
 10
42.09837900966278
 20
0.14761600672047548
 10
42.198310913782734
 20
0.15130575268202232
 10
42.29824054853956
 20
0.15505645641385224
 10
42.39816785768968
 20
0.15886861615688222
 10
42.49809278406854
 20
0.16274273009389784
 10
42.598015269583236
 20
0.16667929634812612
 10
42.69793525520499
 20
0.17067881298178197
 10
42.79785268096175
 20
0.17474177799459462
 10
42.89776748593083
 20
0.17886868932230837
 10
42.99767960823136
 20
0.18306004483516033
 10
43.097588985016955
 20
0.18731634233633532
 10
43.197495552468276
 20
0.19163807956039353
 10
43.29739924578556
 20
0.1960257541716774
 10
43.39729999918126
 20
0.2004798637626921
 10
43.49719774587257
 20
0.2050009058524617
 10
43.59709241807411
 20
0.20958937788486146
 10
43.6969839469904
 20
0.2142457772269229
 10
43.7968722628085
 20
0.21897060116711584
 10
43.89675729469064
 20
0.22376434691360417
 10
43.99663897076675
 20
0.2286275115924757
 10
44.09651721812717
 20
0.23356059224594805
 10
44.19639196281508
 20
0.2385640858305452
 10
44.29626312981929
 20
0.24363848921525133
 10
44.396130643066705
 20
0.2487842991796367
 10
44.49599442541506
 20
0.25400201241195686
 10
44.59585439864544
 20
0.259292125507227
 10
44.69571048345493
 20
0.2646551349652663
 10
44.795562599449255
 20
0.2700915371887183
 10
44.8954106651354
 20
0.27560182848104253
 10
44.9952545979142
 20
0.28118650504447856
 10
45.095094314073044
 20
0.2868460629779846
 10
45.194929728778455
 20
0.2925809982751444
 10
45.29476075606875
 20
0.2983918068220498
 10
45.39458730884668
 20
0.3042789843951542
 10
45.49440929887207
 20
0.3102430266590961
 10
45.5942266367545
 20
0.31628442916449756
 10
45.694039231945936
 20
0.3224036873457294
 10
45.79384699273339
 20
0.32860129651865194
 10
45.893649826231595
 20
0.33487775187832375
 10
45.99344763837565
 20
0.34123354849668275
 10
46.09324033391373
 20
0.3476691813201984
 10
46.193027816399734
 20
0.3541851451674912
 10
46.29280998818595
 20
0.3607819347269264
 10
46.39258675041581
 20
0.36746004455417536
 10
46.49235800301651
 20
0.37421996906974714
 10
46.592123644691746
 20
0.38106220255649204
 10
46.69188357291437
 20
0.38798723915707
 10
46.791637683919134
 20
0.39499557287139286
 10
46.891385872695416
 20
0.40208769755403373
 10
46.9911280329799
 20
0.4092641069116053
 10
47.09086405724926
 20
0.4165252945001093
 10
47.19059383671301
 20
0.4238717537222497
 10
47.290317261306086
 20
0.43130397782471985
 10
47.390034219681674
 20
0.43882245989545404
 10
47.48974459920393
 20
0.4464276928608491
 10
47.58944828594075
 20
0.45412016948295497
 10
47.68914516465645
 20
0.4619003823566285
 10
47.78883511880463
 20
0.46976882390665975
 10
47.88851803052085
 20
0.4777259863848641
 10
47.988193780615426
 20
0.48577236186713973
 10
48.08786224856625
 20
0.49390844225049646
 10
48.18752331251153
 20
0.5021347192500457
 10
48.287176849242556
 20
0.5104516843959619
 10
48.38682273419659
 20
0.5188598290304083
 10
48.48646084144954
 20
0.5273596443044297
 10
48.58609104370889
 20
0.5359516211748127
 10
48.68571321230647
 20
0.5446362504009079
 10
48.785327217191224
 20
0.5534140225414222
 10
48.88493292692211
 20
0.562285427951175
 10
48.98453020866094
 20
0.5712509567778191
 10
49.084118928165196
 20
0.5803110989585312
 10
49.18369894978088
 20
0.5894663442166597
 10
49.28327013643536
 20
0.5987171820583442
 10
49.38283234963029
 20
0.6080641017690986
 10
49.48238544943444
 20
0.6175075924103558
 10
49.5819292944766
 20
0.6270481428159818
 10
49.681463741938444
 20
0.6366862415887481
 10
49.780988647547474
 20
0.6464223770967729
 10
49.88050386556988
 20
0.6562570374699249
 10
49.980009248803476
 20
0.6661907105961902
 10
50.07950465699454
 20
0.67622380079274
 10
50.17898998234938
 20
0.6863563813643537
 10
50.27846512538269
 20
0.6965884421784514
 10
50.37792998661933
 20
0.7069199730029733
 10
50.47738446659443
 20
0.7173509635063886
 10
50.576828465853545
 20
0.7278814032577092
 10
50.67626188495266
 20
0.7385112817264956
 10
50.77568462445838
 20
0.7492405882828701
 10
50.875096584947954
 20
0.7600693121975269
 10
50.974497667009445
 20
0.7709974426417425
 10
51.07388777124177
 20
0.7820249686873885
 10
51.17326679825484
 20
0.7931518793069393
 10
51.27263464866964
 20
0.8043781633734852
 10
51.37199122311832
 20
0.815703809660743
 10
51.47133642224431
 20
0.8271288068430664
 10
51.570670146702426
 20
0.838653143495461
 10
51.66999229715896
 20
0.8502768080935905
 10
51.76930277429177
 20
0.861999789013791
 10
51.86860147879037
 20
0.8738220745330826
 10
51.96788831135606
 20
0.8857436528291794
 10
52.067163172702045
 20
0.8977645119805069
 10
52.16642596355346
 20
0.9098846399662053
 10
52.26567658464751
 20
0.9221040246661476
 10
52.36491493673359
 20
0.9344226538609506
 10
52.46414092057336
 20
0.9468405152319849
 10
52.56335443694083
 20
0.959357596361392
 10
52.66255538662251
 20
0.9719738847320908
 10
52.761743670417445
 20
0.9846893677277943
 10
52.86091918913738
 20
0.9975040326330202
 10
52.960081843606766
 20
1.0104178666331043
 10
53.059231534663
 20
1.0234308568142152
 10
53.15836816315638
 20
1.0365429901633625
 10
53.25749162995028
 20
1.0497542535684146
 10
53.356601835921246
 20
1.0630646338181085
 10
53.45569868195909
 20
1.0764741176020645
 10
53.55478206896697
 20
1.0899826915108017
 10
53.65385189786151
 20
1.103590342035747
 10
53.75290806957287
 20
1.1172970555692503
 10
53.85195048504491
 20
1.1311028184045993
 10
53.95097904523519
 20
1.145007616736032
 10
54.049993651115194
 20
1.159011436658752
 10
54.14899420367032
 20
1.1731142641689405
 10
54.24798060390002
 20
1.1873160851637707
 10
54.34695275281788
 20
1.2016168854414224
 10
54.44591055145177
 20
1.2160166507010963
 10
54.54485390084391
 20
1.2305153665430304
 10
54.643782702050956
 20
1.2451130184685086
 10
54.74269685614411
 20
1.2598095918798808
 10
54.84159626420924
 20
1.2746050720805742
 10
54.940480827346924
 20
1.2894994442751087
 10
55.039350446672614
 20
1.3044926935691161
 10
55.1382050233167
 20
1.319584804969347
 10
55.23704445842463
 20
1.334775763383691
 10
55.335868653156965
 20
1.3500655536211912
 10
55.434677508689504
 20
1.3654541603920571
 10
55.53347092621342
 20
1.3809415683076858
 10
55.63224880693531
 20
1.3965277618806697
 10
55.731011052077285
 20
1.4122127255248167
 10
55.8297575628771
 20
1.4279964435551635
 10
55.928488240588266
 20
1.443878900187993
 10
56.02720298648012
 20
1.459860079540852
 10
56.12590170183791
 20
1.4759399656325618
 10
56.224584287962934
 20
1.4921185423832373
 10
56.32325064617261
 20
1.508395793614303
 10
56.421900677800586
 20
1.5247717030485077
 10
56.520534284196856
 20
1.5412462543099459
 10
56.61915136672783
 20
1.5578194309240663
 10
56.71775182677639
 20
1.5744912163176938
 10
56.816335565742115
 20
1.5912615938190446
 10
56.91490248504127
 20
1.6081305466577416
 10
57.013452486106935
 20
1.6250980579648346
 10
57.11198547038912
 20
1.642164110772814
 10
57.21050133935486
 20
1.6593286880156277
 10
57.30899999448829
 20
1.6765917725286998
 10
57.40748133729075
 20
1.693953347048946
 10
57.50594526928093
 20
1.7114133942147962
 10
57.604391691994884
 20
1.7289718965662029
 10
57.702820506986214
 20
1.7466288365446652
 10
57.80123161582611
 20
1.764384196493245
 10
57.899624920103456
 20
1.782237958656582
 10
57.99800032142495
 20
1.8001901051809186
 10
58.096357721415245
 20
1.818240618114108
 10
58.19469702171691
 20
1.8363894794056397
 10
58.29301812399067
 20
1.854636670906653
 10
58.391320929915416
 20
1.8729821743699568
 10
58.489605341188366
 20
1.8914259714500519
 10
58.58787125952511
 20
1.9099680437031414
 10
58.68611858665972
 20
1.9286083725871548
 10
58.7843472243449
 20
1.9473469394617644
 10
58.882557074352015
 20
1.9661837255884038
 10
58.98074803847122
 20
1.9851187121302911
 10
59.07892001851155
 20
2.00415188015244
 10
59.177072916301064
 20
2.023283210621684
 10
59.27520663368685
 20
2.0425126844066943
 10
59.373321072535184
 20
2.061840282277997
 10
59.47141613473167
 20
2.0812659849079997
 10
59.569491722181226
 20
2.100789772870999
 10
59.667547736808295
 20
2.120411626643209
 10
59.76558408055685
 20
2.1401315266027776
 10
59.863600655390556
 20
2.159949453029804
 10
59.961597363292874
 20
2.1798653861063664
 10
60.05957410626707
 20
2.1998793059165327
 10
60.15753078633644
 20
2.2199911924463853
 10
60.25546730554427
 20
2.2402010255840383
 10
60.35338356595409
 20
2.2605087851196597
 10
60.451279469649634
 20
2.2809144507454944
 10
60.54915491873501
 20
2.3014180020558763
 10
60.64700981533476
 20
2.3220194185472565
 10
60.74484406159402
 20
2.3427186796182196
 10
60.84265755967852
 20
2.3635157645695046
 10
60.94045021177481
 20
2.384410652604032
 10
61.03822192009021
 20
2.4054033228269147
 10
61.13597258685304
 20
2.4264937542454827
 10
61.233702114312635
 20
2.4476819257693068
 10
61.33141040473947
 20
2.4689678162102164
 10
61.429097360425295
 20
2.4903514042823245
 10
61.52676288368314
 20
2.5118326686020445
 10
61.62440687684748
 20
2.5334115876881134
 10
61.722029242274346
 20
2.5550881399616134
 10
61.81962988234135
 20
2.5768623037459943
 10
61.91720869944789
 20
2.598734057267095
 10
62.01476559601516
 20
2.6207033786531637
 10
62.112300474486254
 20
2.6427702459348805
 10
62.2098132373263
 20
2.6649346370453793
 10
62.30730378702256
 20
2.68719652982027
 10
62.404772026084494
 20
2.709555901997665
 10
62.502217857043846
 20
2.7320127312181928
 10
62.599641182454825
 20
2.7545669950250247
 10
62.69704190489409
 20
2.777218670863899
 10
62.79441992696093
 20
2.7999677360831403
 10
62.891775151277336
 20
2.8228141679336893
 10
62.989107480488094
 20
2.8457579435691143
 10
63.08641681726089
 20
2.8687990400456402
 10
63.18370306428638
 20
2.8919374343221738
 10
63.280966124278315
 20
2.91517310326032
 10
63.37820589997367
 20
2.938506023624417
 10
63.47542229413267
 20
2.9619361720815425
 10
63.572615209538924
 20
2.985463525201552
 10
63.66978454899952
 20
3.009088059457092
 10
63.76693021534514
 20
3.032809751223631
 10
63.86405211143012
 20
3.056628576779483
 10
63.96115014013257
 20
3.080544512305818
 10
64.05822420435446
 20
3.1045575338867057
 10
64.15527420702173
 20
3.1286676175091293
 10
64.25230005108443
 20
3.1528747390630008
 10
64.3493016395167
 20
3.1771788743412084
 10
64.44627887531695
 20
3.2015799990396108
 10
64.54323166150792
 20
3.22607808875709
 10
64.64015990113687
 20
3.2506731189955604
 10
64.73706349727559
 20
3.2753650651599875
 10
64.83394235302046
 20
3.300153902558434
 10
64.93079637149262
 20
3.325039606402058
 10
65.02762545583808
 20
3.350022151805161
 10
65.12442950922778
 20
3.375101513785203
 10
65.22120843485764
 20
3.400277667262818
 10
65.31796213594878
 20
3.4255505870618603
 10
65.41469051574745
 20
3.450920247909405
 10
65.51139347752536
 20
3.4763866244357984
 10
65.6080709245795
 20
3.5019496911746693
 10
65.70472276023241
 20
3.527609422562945
 10
65.80134888783233
 20
3.553365792940904
 10
65.89794921075307
 20
3.5792187765521706
 10
65.99452363239438
 20
3.6051683475437675
 10
66.0910720561818
 20
3.631214479966129
 10
66.18759438556694
 20
3.657357147773118
 10
66.28409052402749
 20
3.683596324822075
 10
66.38056037506726
 20
3.7099319848738195
 10
66.47700384221646
 20
3.736364101592696
 10
66.57342082903163
 20
3.7628926485465946
 10
66.66981123909578
 20
3.7895175992069627
 10
66.76617497601849
 20
3.81623892694886
 10
66.86251194343608
 20
3.8430566050509527
 10
66.9588220450115
 20
3.869970606695568
 10
67.05510518443477
 20
3.896980904968712
 10
67.15136126542265
 20
3.9240874728600805
 10
67.24759019171915
 20
3.9512902832631154
 10
67.3437918670953
 20
3.9785893089750006
 10
67.43996619534948
 20
4.005984522696717
 10
67.53611308030733
 20
4.033475897033057
 10
67.63223242582198
 20
4.0610634044926375
 10
67.72832413577413
 20
4.088747017487965
 10
67.82438811407204
 20
4.116526708335421
 10
67.92042426465173
 20
4.1444024492553195
 10
68.01643249147708
 20
4.172374212371927
 10
68.11241269853987
 20
4.200441969713474
 10
68.2083647898599
 20
4.228605693212212
 10
68.30428866948508
 20
4.2568653547044155
 10
68.40018424149154
 20
4.285220925930427
 10
68.49605140998374
 20
4.313672378534681
 10
68.59189007909447
 20
4.3422196840657215
 10
68.6877001529851
 20
4.370862813976253
 10
68.78348153584557
 20
4.399601739623139
 10
68.87923413189448
 20
4.428436432267458
 10
68.9749578453793
 20
4.457366863074528
 10
69.07065258057624
 20
4.48639300311391
 10
69.1663182417906
 20
4.5155148233594735
 10
69.26195473335675
 20
4.544732294689395
 10
69.35756195963819
 20
4.574045387886209
 10
69.45313982502773
 20
4.6034540736368275
 10
69.54868823394749
 20
4.632958322532562
 10
69.64420709084908
 20
4.662558105069171
 10
69.73969630021362
 20
4.692253391646868
 10
69.83515576655195
 20
4.722044152570373
 10
69.9305853944046
 20
4.751930358048931
 10
70.02598508834193
 20
4.781911978196332
 10
70.12135475296427
 20
4.8119889830309654
 10
70.21669429290196
 20
4.84216134247582
 10
70.31200361281547
 20
4.872429026358545
 10
70.4072826173955
 20
4.902792004411461
 10
70.50253121136302
 20
4.9332502462715855
 10
70.59774929946948
 20
4.963803721480685
 10
70.69293678649679
 20
4.994452399485285
 10
70.78809357725746
 20
5.025196249636709
 10
70.88321957659473
 20
5.056035241191114
 10
70.97831468938254
 20
5.0869693433095025
 10
71.07337882052586
 20
5.117998525057783
 10
71.16841187496054
 20
5.149122755406771
 10
71.26341375765354
 20
5.18034200323224
 10
71.35838437360296
 20
5.211656237314951
 10
71.45332362783824
 20
5.243065426340663
 10
71.5482314254201
 20
5.274569538900198
 10
71.64310767144075
 20
5.306168543489436
 10
71.73795227102393
 20
5.337862408509384
 10
71.83276512932511
 20
5.36965110226618
 10
71.92754615153139
 20
5.401534592971123
 10
72.02229524286177
 20
5.433512848740737
 10
72.11701230856714
 20
5.46558583759676
 10
72.21169725393048
 20
5.497753527466209
 10
72.30634998426686
 20
5.5300158861814
 10
72.40097040492354
 20
5.562372881479971
 10
72.49555842128011
 20
5.594824481004936
 10
72.59011393874854
 20
5.627370652304689
 10
72.68463686277336
 20
5.6600113628330675
 10
72.77912709883162
 20
5.692746579949367
 10
72.87358455243312
 20
5.725576270918366
 10
72.9680091291204
 20
5.758500402910385
 10
73.06240073446888
 20
5.791518943001284
 10
73.15675927408698
 20
5.824631858172529
 10
73.25108465361616
 20
5.857839115311214
 10
73.34537677873104
 20
5.891140681210078
 10
73.43963555513952
 20
5.924536522567563
 10
73.53386088858282
 20
5.958026605987824
 10
73.62805268483564
 20
5.991610897980782
 10
73.72221084970617
 20
6.0252893649621555
 10
73.81633528903626
 20
6.05906197325347
 10
73.91042590870148
 20
6.092928689082129
 10
74.00448261461119
 20
6.126889478581409
 10
74.0985053127087
 20
6.160944307790531
 10
74.19249390897136
 20
6.19509314265467
 10
74.28644830941052
 20
6.229335949024988
 10
74.38036842007185
 20
6.263672692658688
 10
74.47425414703518
 20
6.29810333921902
 10
74.56810539641486
 20
6.332627854275347
 10
74.66192207435961
 20
6.367246203303162
 10
74.75570408705278
 20
6.401958351684105
 10
74.84945134071235
 20
6.436764264706045
 10
74.94316374159106
 20
6.47166390756306
 10
75.03684119597655
 20
6.5066572453555125
 10
75.13048361019138
 20
6.5417442430900765
 10
75.22409089059308
 20
6.576924865679746
 10
75.31766294357443
 20
6.612199077943911
 10
75.41119967556337
 20
6.6475668446083525
 10
75.50470099302316
 20
6.683028130305311
 10
75.59816680245252
 20
6.7185828995735095
 10
75.69159701038566
 20
6.754231116858173
 10
75.78499152339235
 20
6.789972746511094
 10
75.87835024807805
 20
6.825807752790639
 10
75.97167309108411
 20
6.8617360998618135
 10
76.06495995908767
 20
6.897757751796261
 10
76.15821075880189
 20
6.933872672572341
 10
76.25142539697593
 20
6.97008082607514
 10
76.34460378039519
 20
7.006382176096497
 10
76.4377458158813
 20
7.042776686335075
 10
76.53085141029221
 20
7.079264320396357
 10
76.62392047052235
 20
7.115845041792715
 10
76.71695290350267
 20
7.152518813943439
 10
76.80994861620073
 20
7.189285600174748
 10
76.90290751562084
 20
7.226145363719869
 10
76.99582950880409
 20
7.263098067719032
 10
77.0887145028285
 20
7.300143675219542
 10
77.18156240480913
 20
7.337282149175797
 10
77.27437312189801
 20
7.374513452449318
 10
77.3671465612845
 20
7.4118375478088145
 10
77.45988263019512
 20
7.449254397930184
 10
77.55258123589383
 20
7.486763965396585
 10
77.64524228568203
 20
7.524366212698458
 10
77.73786568689866
 20
7.562061102233548
 10
77.83045134692034
 20
7.599848596306979
 10
77.9229991731614
 20
7.63772865713125
 10
78.01550907307406
 20
7.675701246826308
 10
78.10798095414842
 20
7.713766327419572
 10
78.20041472391257
 20
7.751923860845956
 10
78.29281028993279
 20
7.790173808947938
 10
78.3851675598135
 20
7.828516133475563
 10
78.47748644119744
 20
7.866950796086516
 10
78.56976684176574
 20
7.905477758346142
 10
78.662008669238
 20
7.944096981727471
 10
78.75421183137243
 20
7.982808427611293
 10
78.8463762359658
 20
8.021612057286156
 10
78.93850179085378
 20
8.060507831948438
 10
79.03058840391083
 20
8.099495712702373
 10
79.1226359830503
 20
8.138575660560074
 10
79.21464443622467
 20
8.177747636441605
 10
79.30661367142545
 20
8.217011601174987
 10
79.39854359668341
 20
8.256367515496258
 10
79.49043412006866
 20
8.295815340049515
 10
79.58228514969066
 20
8.335355035386929
 10
79.67409659369844
 20
8.37498656196881
 10
79.76586836028049
 20
8.414709880163636
 10
79.8576003576651
 20
8.454524950248093
 10
79.94929249412029
 20
8.494431732407113
 10
80.04094467795389
 20
8.534430186733914
 10
80.13255681751374
 20
8.574520273230053
 10
80.22412882118769
 20
8.614701951805435
 10
80.31566059740379
 20
8.654975182278392
 10
80.40715205463025
 20
8.695339924375702
 10
80.49860310137561
 20
8.735796137732613
 10
80.59001364618885
 20
8.776343781892928
 10
80.68138359765939
 20
8.816982816308995
 10
80.77271286441731
 20
8.857713200341792
 10
80.86400135513338
 20
8.898534893260939
 10
80.95524897851907
 20
8.93944785424474
 10
81.0464556433268
 20
8.980452042380241
 10
81.13762125834988
 20
9.021547416663253
 10
81.22874573242272
 20
9.062733935998411
 10
81.31982897442089
 20
9.104011559199199
 10
81.41087089326109
 20
9.145380244987987
 10
81.50187139790145
 20
9.186839951996108
 10
81.59283039734147
 20
9.228390638763845
 10
81.68374780062214
 20
9.27003226374052
 10
81.77462351682608
 20
9.311764785284518
 10
81.86545745507757
 20
9.35358816166331
 10
81.9562495245427
 20
9.395502351053533
 10
82.04699963442938
 20
9.437507311540994
 10
82.13770769398755
 20
9.479603001120735
 10
82.22837361250912
 20
9.521789377697077
 10
82.31899729932817
 20
9.564066399083641
 10
82.40957866382105
 20
9.606434023003414
 10
82.5001176154064
 20
9.648892207088771
 10
82.59061406354526
 20
9.691440908881528
 10
82.6810679177412
 20
9.734080085833002
 10
82.77147908754038
 20
9.776809695304001
 10
82.86184748253164
 20
9.819629694564936
 10
82.95217301234658
 20
9.862540040795796
 10
83.04245558665967
 20
9.905540691086244
 10
83.13269511518837
 20
9.948631602435643
 10
83.22289150769312
 20
9.991812731753068
 10
83.31304467397756
 20
10.035084035857407
 10
83.40315452388853
 20
10.078445471477352
 10
83.49322096731618
 20
10.12189699525147
 10
83.5832439141941
 20
10.165438563728253
 10
83.67322327449929
 20
10.209070133366122
 10
83.76315895825248
 20
10.252791660533523
 10
83.85305087551792
 20
10.29660310150892
 10
83.94289893640374
 20
10.34050441248088
 10
84.03270305106189
 20
10.384495549548106
 10
84.12246312968824
 20
10.428576468719452
 10
84.21217908252277
 20
10.47274712591401
 10
84.30185081984945
 20
10.517007476961117
 10
84.39147825199659
 20
10.561357477600431
 10
84.4810612893368
 20
10.605797083481965
 10
84.570599842287
 20
10.650326250166097
 10
84.66009382130868
 20
10.694944933123685
 10
84.74954313690785
 20
10.73965308773603
 10
84.8389476996352
 20
10.784450669294992
 10
84.9283074200862
 20
10.829337633002998
 10
85.01762220890107
 20
10.874313933973077
 10
85.10689197676513
 20
10.919379527228944
 10
85.19611663440853
 20
10.964534367704992
 10
85.28529609260666
 20
11.009778410246398
 10
85.37443026218008
 20
11.05511160960912
 10
85.46351905399457
 20
11.100533920459958
 10
85.55256237896143
 20
11.146045297376615
 10
85.64156014803726
 20
11.191645694847702
 10
85.73051227222436
 20
11.23733506727284
 10
85.8194186625706
 20
11.283113368962661
 10
85.9082792301696
 20
11.328980554138857
 10
85.99709388616078
 20
11.374936576934255
 10
86.08586254172948
 20
11.420981391392829
 10
86.1745851081071
 20
11.467114951469767
 10
86.26326149657105
 20
11.513337211031526
 10
86.35189161844492
 20
11.559648123855837
 10
86.44047538509865
 20
11.6060476436318
 10
86.52901270794845
 20
11.652535723959888
 10
86.61750349845701
 20
11.699112318352032
 10
86.70594766813356
 20
11.74577738023165
 10
86.79434512853393
 20
11.792530862933662
 10
86.88269579126066
 20
11.839372719704615
 10
86.97099956796308
 20
11.886302903702633
 10
87.05925637033744
 20
11.933321367997548
 10
87.14746611012694
 20
11.980428065570905
 10
87.23562869912186
 20
12.027622949315994
 10
87.32374404915959
 20
12.074905972037953
 10
87.41181207212483
 20
12.122277086453748
 10
87.49983267994955
 20
12.169736245192272
 10
87.58780578461311
 20
12.217283400794381
 10
87.67573129814247
 20
12.264918505712911
 10
87.7636091326121
 20
12.312641512312773
 10
87.85143920014416
 20
12.360452372870947
 10
87.9392214129086
 20
12.408351039576587
 10
88.02695568312322
 20
12.456337464531037
 10
88.11464192305374
 20
12.504411599747861
 10
88.20228004501395
 20
12.552573397152944
 10
88.28986996136572
 20
12.60082280858448
 10
88.37741158451915
 20
12.649159785793065
 10
88.46490482693261
 20
12.69758428044173
 10
88.55234960111288
 20
12.746096244105972
 10
88.6397458196152
 20
12.794695628273852
 10
88.72709339504333
 20
12.843382384345967
 10
88.81439224004971
 20
12.892156463635578
 10
88.90164226733555
 20
12.941017817368614
 10
88.98884338965077
 20
12.989966396683714
 10
89.0759955197943
 20
13.039002152632312
 10
89.16309857061395
 20
13.088125036178647
 10
89.25015245500671
 20
13.137334998199846
 10
89.33715708591875
 20
13.186631989485955
 10
89.42411237634536
 20
13.236015960739975
 10
89.51101823933134
 20
13.285486862577953
 10
89.59787458797078
 20
13.335044645528976
 10
89.68468133540738
 20
13.384689260035273
 10
89.77143839483435
 20
13.434420656452243
 10
89.85814567949468
 20
13.484238785048476
 10
89.94480310268109
 20
13.534143596005864
 10
90.03141057773612
 20
13.584135039419584
 10
90.11796801805234
 20
13.634213065298207
 10
90.20447533707231
 20
13.684377623563716
 10
90.29093244828874
 20
13.734628664051542
 10
90.37733926524452
 20
13.784966136510665
 10
90.46369570153281
 20
13.8353899906036
 10
90.5500016707972
 20
13.885900175906507
 10
90.63625708673175
 20
13.93649664190921
 10
90.722461863081
 20
13.987179338015235
 10
90.8086159136402
 20
14.037948213541902
 10
90.8947191522553
 20
14.088803217720326
 10
90.98077149282311
 20
14.139744299695517
 10
91.06677284929125
 20
14.190771408526402
 10
91.15272313565838
 20
14.241884493185859
 10
91.23862226597426
 20
14.293083502560828
 10
91.32447015433972
 20
14.344368385452286
 10
91.41026671490688
 20
14.39573909057536
 10
91.49601186187925
 20
14.44719556655936
 10
91.58170550951164
 20
14.498737761947798
 10
91.66734757211037
 20
14.550365625198497
 10
91.75293796403344
 20
14.602079104683586
 10
91.83847659969045
 20
14.653878148689595
 10
91.92396339354279
 20
14.70576270541749
 10
92.00939826010365
 20
14.757732722982709
 10
92.09478111393817
 20
14.809788149415247
 10
92.18011186966349
 20
14.861928932659673
 10
92.26539044194891
 20
14.914155020575214
 10
92.35061674551585
 20
14.96646636093579
 10
92.43579069513797
 20
15.018862901430055
 10
92.5209122056414
 20
15.071344589661484
 10
92.60598119190455
 20
15.123911373148381
 10
92.69099756885848
 20
15.176563199323978
 10
92.77596125148683
 20
15.22930001553645
 10
92.86087215482591
 20
15.282121769048983
 10
92.94573019396486
 20
15.33502840703983
 10
93.0305352840456
 20
15.388019876602351
 10
93.11528734026307
 20
15.441096124745085
 10
93.19998627786522
 20
15.494257098391795
 10
93.28463201215311
 20
15.5475027443815
 10
93.36922445848104
 20
15.600833009468573
 10
93.45376353225654
 20
15.654247840322737
 10
93.53824914894058
 20
15.707747183529174
 10
93.62268122404751
 20
15.76133098558855
 10
93.70705967314527
 20
15.814999192917055
 10
93.79138441185543
 20
15.868751751846501
 10
93.87565535585327
 20
15.922588608624322
 10
93.9598724208678
 20
15.976509709413667
 10
94.04403552268202
 20
16.030515000293452
 10
94.1281445771328
 20
16.084604427258373
 10
94.21219950011113
 20
16.138777936219018
 10
94.29620020756205
 20
16.193035473001878
 10
94.38014661548489
 20
16.24737698334942
 10
94.46403863993325
 20
16.301802412920146
 10
94.54787619701506
 20
16.356311707288626
 10
94.63165920289283
 20
16.410904811945578
 10
94.71538757378356
 20
16.46558167229788
 10
94.79906122595884
 20
16.52034223366869
 10
94.88268007574507
 20
16.575186441297458
 10
94.9662440395234
 20
16.630114240339967
 10
95.04975303372989
 20
16.68512557586844
 10
95.1332069748555
 20
16.740220392871528
 10
95.21660577944628
 20
16.79539863625442
 10
95.29994936410354
 20
16.85066025083889
 10
95.3832376454836
 20
16.906005181363312
 10
95.46647054029823
 20
16.96143337248278
 10
95.54964796531453
 20
17.016944768769093
 10
95.63276983735508
 20
17.072539314710866
 10
95.71583607329805
 20
17.128216954713558
 10
95.79884659007716
 20
17.183977633099527
 10
95.88180130468196
 20
17.239821294108115
 10
95.96470013415768
 20
17.29574788189564
 10
96.0475429956055
 20
17.351757340535535
 10
96.13032980618259
 20
17.407849614018353
 10
96.21306048310217
 20
17.46402464625181
 10
96.29573494363356
 20
17.52028238106089
 10
96.37835310510225
 20
17.57662276218785
 10
96.46091488489013
 20
17.63304573329232
 10
96.54342020043543
 20
17.689551237951346
 10
96.62586896923283
 20
17.746139219659405
 10
96.70826110883358
 20
17.802809621828537
 10
96.79059653684553
 20
17.859562387788337
 10
96.87287517093328
 20
17.916397460786044
 10
96.95509692881818
 20
17.9733147839866
 10
97.03726172827848
 20
18.030314300472664
 10
97.11936948714944
 20
18.087395953244744
 10
97.20142012332325
 20
18.14455968522119
 10
97.28341355474926
 20
18.20180543923826
 10
97.36534969943412
 20
18.25913315805023
 10
97.44722847544165
 20
18.316542784329364
 10
97.52904980089308
 20
18.374034260666054
 10
97.61081359396707
 20
18.43160752956882
 10
97.69251977289986
 20
18.48926253346439
 10
97.77416825598529
 20
18.546999214697788
 10
97.85575896157486
 20
18.604817515532318
 10
97.93729180807792
 20
18.662717378149697
 10
98.01876671396155
 20
18.720698744650054
 10
98.10018359775093
 20
18.77876155705204
 10
98.18154237802915
 20
18.83690575729285
 10
98.2628429734374
 20
18.89513128722827
 10
98.34408530267517
 20
18.953438088632797
 10
98.42526928450009
 20
19.011826103199613
 10
98.50639483772815
 20
19.07029527254072
 10
98.58746188123388
 20
19.128845538186958
 10
98.66847033395018
 20
19.187476841588055
 10
98.74942011486863
 20
19.24618912411272
 10
98.83031114303942
 20
19.304982327048666
 10
98.9111433375716
 20
19.363856391602702
 10
98.99191661763295
 20
19.422811258900783
 10
99.07263090245017
 20
19.48184686998802
 10
99.15328611130903
 20
19.540963165828824
 10
99.23388216355428
 20
19.600160087306897
 10
99.31441897858991
 20
19.65943757522532
 10
99.39489647587911
 20
19.71879557030662
 10
99.47531457494435
 20
19.778234013192794
 10
99.55567319536758
 20
19.83775284444542
 10
99.63597225679017
 20
19.897352004545652
 10
99.71621167891304
 20
19.957031433894347
 10
99.7963913814968
 20
20.016791072812087
 10
99.87651128436175
 20
20.076630861539225
 10
99.95657130738803
 20
20.13655074023599
 10
100.03657137051556
 20
20.196550648982495
 10
100.11651139374435
 20
20.256630527778835
 10
100.19639129713433
 20
20.316790316545163
 10
100.2762110008056
 20
20.377029955121664
 10
100.35597042493849
 20
20.43734938326872
 10
100.4356694897736
 20
20.4977485406669
 10
100.51530811561183
 20
20.55822736691705
 10
100.59488622281461
 20
20.618785801540366
 10
100.67440373180378
 20
20.679423783978397
 10
100.75386056306189
 20
20.740141253593183
 10
100.83325663713208
 20
20.80093814966725
 10
100.91259187461831
 20
20.861814411403707
 10
100.99186619618534
 20
20.92276997792631
 10
101.07107952255882
 20
20.983804788279475
 10
101.15023177452548
 20
21.044918781428418
 10
101.22932287293305
 20
21.106111896259137
 10
101.30835273869044
 20
21.16738407157852
 10
101.38732129276777
 20
21.228735246114418
 10
101.46622845619652
 20
21.290165358515633
 10
101.54507415006954
 20
21.351674347352084
 10
101.62385829554113
 20
21.413262151114765
 10
101.70258081382717
 20
21.474928708215884
 10
101.78124162620512
 20
21.536673956988906
 10
101.85984065401418
 20
21.598497835688566
 10
101.93837781865535
 20
21.660400282491
 10
102.01685304159143
 20
21.722381235493767
 10
102.09526624434723
 20
21.784440632715913
 10
102.17361734850954
 20
21.846578412098058
 10
102.2519062757273
 20
21.908794511502414
 10
102.33013294771158
 20
21.971088868712897
 10
102.40829728623567
 20
22.03346142143515
 10
102.4863992131353
 20
22.095912107296623
 10
102.56443865030849
 20
22.158440863846643
 10
102.64241551971584
 20
22.221047628556448
 10
102.7203297433805
 20
22.28373233881929
 10
102.79818124338823
 20
22.346494931950453
 10
102.87596994188753
 20
22.40933534518735
 10
102.95369576108972
 20
22.47225351568959
 10
103.03135862326899
 20
22.535249380538982
 10
103.10895845076249
 20
22.59832287673969
 10
103.18649516597037
 20
22.66147394121821
 10
103.26396869135594
 20
22.724702510823477
 10
103.34137894944573
 20
22.788008522326948
 10
103.41872586282939
 20
22.851391912422596
 10
103.49600935416011
 20
22.914852617727057
 10
103.57322934615432
 20
22.978390574779606
 10
103.65038576159209
 20
23.0420057200423
 10
103.727478523317
 20
23.105697989900015
 10
103.80450755423627
 20
23.169467320660456
 10
103.88147277732092
 20
23.23331364855433
 10
103.9583741156057
 20
23.297236909735293
 10
104.03521149218925
 20
23.361237040280095
 10
104.11198483023428
 20
23.425313976188622
 10
104.1886940529674
 20
23.489467653383922
 10
104.26533908367941
 20
23.55369800771235
 10
104.34191984572527
 20
23.618004974943524
 10
104.41843626252425
 20
23.682388490770503
 10
104.49488825755994
 20
23.74684849080978
 10
104.57127575438032
 20
23.811384910601344
 10
104.64759867659795
 20
23.875997685608812
 10
104.72385694788987
 20
23.940686751219374
 10
104.80005049199784
 20
24.005452042743993
 10
104.8761792327283
 20
24.070293495417378
 10
104.95224309395256
 20
24.135211044398076
 10
105.0282419996067
 20
24.200204624768563
 10
105.10417587369184
 20
24.265274171535236
 10
105.18004464027412
 20
24.330419619628568
 10
105.25584822348482
 20
24.39564090390313
 10
105.3315865475203
 20
24.46093795913762
 10
105.40725953664227
 20
24.526310720035003
 10
105.48286711517775
 20
24.5917591212225
 10
105.55840920751918
 20
24.65728309725174
 10
105.63388573812443
 20
24.722882582598753
 10
105.70929663151702
 20
24.788557511664045
 10
105.78464181228604
 20
24.854307818772703
 10
105.85992120508631
 20
24.920133438174418
 10
105.93513473463847
 20
24.986034304043578
 10
106.01028232572898
 20
25.052010350479332
 10
106.08536390321025
 20
25.118061511505626
 10
106.16037939200075
 20
25.18418772107132
 10
106.23532871708495
 20
25.250388913050188
 10
106.31021180351354
 20
25.316665021241047
 10
106.38502857640344
 20
25.383015979367826
 10
106.4597789609379
 20
25.449441721079538
 10
106.53446288236653
 20
25.515942179950468
 10
106.60908026600538
 20
25.582517289480144
 10
106.6836310372371
 20
25.649166983093465
 10
106.75811512151098
 20
25.715891194140763
 10
106.83253244434287
 20
25.782689855897804
 10
106.90688293131552
 20
25.849562901565957
 10
106.98116650807836
 20
25.916510264272162
 10
107.05538310034788
 20
25.983531877069076
 10
107.1295326339075
 20
26.050627672935093
 10
107.20361503460765
 20
26.117797584774404
 10
107.27763022836598
 20
26.18504154541713
 10
107.35157814116725
 20
26.252359487619284
 10
107.4254586990636
 20
26.31975134406295
 10
107.49927182817446
 20
26.387217047356284
 10
107.57301745468669
 20
26.45475653003357
 10
107.64669550485473
 20
26.52236972455535
 10
107.72030590500049
 20
26.590056563308412
 10
107.79384858151353
 20
26.657816978605926
 10
107.86732346085128
 20
26.72565090268751
 10
107.9407304695388
 20
26.793558267719213
 10
108.01406953416914
 20
26.861539005793702
 10
108.08734058140315
 20
26.929593048930222
 10
108.16054353796986
 20
26.997720329074742
 10
108.23367833066632
 20
27.0659207781
 10
108.30674488635772
 20
27.134194327805535
 10
108.37974313197753
 20
27.202540909917825
 10
108.45267299452748
 20
27.270960456090265
 10
108.52553440107775
 20
27.33945289790333
 10
108.59832727876694
 20
27.408018166864593
 10
108.67105155480213
 20
27.476656194408775
 10
108.74370715645912
 20
27.545366911897872
 10
108.81629401108226
 20
27.614150250621147
 10
108.8888120460847
 20
27.683006141795282
 10
108.96126118894844
 20
27.7519345165644
 10
109.03364136722432
 20
27.82093530600011
 10
109.10595250853218
 20
27.89000844110165
 10
109.17819454056088
 20
27.959153852795875
 10
109.2503673910684
 20
28.028371471937383
 10
109.32247098788189
 20
28.097661229308574
 10
109.39450525889774
 20
28.167023055619673
 10
109.46647013208174
 20
28.236456881508886
 10
109.53836553546896
 20
28.30596263754237
 10
109.61019139716402
 20
28.37554025421438
 10
109.68194764534113
 20
28.445189661947317
 10
109.75363420824397
 20
28.514910791091758
 10
109.82525101418602
 20
28.58470357192661
 10
109.89679799155044
 20
28.654567934659074
 10
109.96827506879032
 20
28.724503809424792
 10
110.03968217442853
 20
28.794511126287915
 10
110.111019237058
 20
28.864589815241118
 10
110.18228618534168
 20
28.934739806205716
 10
110.25348294801259
 20
29.004961029031723
 10
110.324609453874
 20
29.075253413497922
 10
110.39566563179945
 20
29.145616889311956
 10
110.46665141073267
 20
29.21605138611033
 10
110.537566719688
 20
29.28655683345857
 10
110.60841148775003
 20
29.357133160851205
 10
110.67918564407408
 20
29.427780297711944
 10
110.74988911788597
 20
29.498498173393653
 10
110.82052183848224
 20
29.56928671717844
 10
110.89108373523014
 20
29.640145858277798
 10
110.96157473756782
 20
29.711075525832563
 10
111.03199477500426
 20
29.782075648913093
 10
111.10234377711946
 20
29.853146156519266
 10
111.17262167356436
 20
29.924286977580568
 10
111.24282839406114
 20
29.995498040956214
 10
111.31296386840305
 20
30.066779275435103
 10
111.38302802645461
 20
30.138130609736034
 10
111.45302079815171
 20
30.20955197250769
 10
111.52294211350153
 20
30.281043292328686
 10
111.59279190258285
 20
30.352604497707738
 10
111.66257009554577
 20
30.42423551708361
 10
111.73227662261218
 20
30.495936278825315
 10
111.80191141407553
 20
30.5677067112321
 10
111.87147440030107
 20
30.639546742533522
 10
111.94096551172578
 20
30.711456300889573
 10
112.01038467885854
 20
30.783435314390676
 10
112.07973183228023
 20
30.85548371105784
 10
112.14900690264369
 20
30.927601418842684
 10
112.21820982067383
 20
30.999788365627484
 10
112.28734051716782
 20
31.07204447922532
 10
112.35639892299484
 20
31.14436968738006
 10
112.42538496909658
 20
31.216763917766528
 10
112.49429858648698
 20
31.28922709799049
 10
112.56313970625243
 20
31.361759155588768
 10
112.6319082595518
 20
31.434360018029313
 10
112.70060417761657
 20
31.50702961271126
 10
112.76922739175079
 20
31.579767866965025
 10
112.83777783333129
 20
31.652574708052377
 10
112.9062554338076
 20
31.72545006316646
 10
112.97466012470217
 20
31.798393859431936
 10
113.04299183761029
 20
31.871406023905006
 10
113.11125050420024
 20
31.944486483573517
 10
113.17943605621338
 20
32.017635165357014
 10
113.24754842546416
 20
32.090851996106814
 10
113.31558754384021
 20
32.16413690260611
 10
113.3835533433024
 20
32.237489811569986
 10
113.45144575588496
 20
32.31091064964554
 10
113.51926471369549
 20
32.384399343411964
 10
113.58701014891504
 20
32.457955819380544
 10
113.65468199379816
 20
32.531580003994826
 10
113.72228018067302
 20
32.605271823630616
 10
113.78980464194143
 20
32.6790312045961
 10
113.85725531007893
 20
32.75285807313192
 10
113.92463211763484
 20
32.8267523554112
 10
113.99193499723242
 20
32.90071397753966
 10
114.05916388156875
 20
32.9747428655557
 10
114.12631870341494
 20
33.04883894543042
 10
114.19339939561625
 20
33.12300214306777
 10
114.26040589109193
 20
33.19723238430455
 10
114.32733812283551
 20
33.27152959491052
 10
114.39419602391472
 20
33.34589370058847
 10
114.4609795274717
 20
33.4203246269743
 10
114.52768856672296
 20
33.49482229963711
 10
114.59432307495946
 20
33.5693866440792
 10
114.6608829855467
 20
33.64401758573627
 10
114.72736823192477
 20
33.718715049977355
 10
114.79377874760841
 20
33.79347896210501
 10
114.86011446618713
 20
33.86830924735535
 10
114.9263753213252
 20
33.943205830898044
 10
114.9925612467618
 20
34.01816863783655
 10
115.05867217631099
 20
34.09319759320806
 10
115.12470804386187
 20
34.16829262198362
 10
115.19066878337856
 20
34.243453649068236
 10
115.25655432890031
 20
34.318680599300855
 10
115.32236461454163
 20
34.39397339745456
 10
115.38809957449216
 20
34.469331968236524
 10
115.453759143017
 20
34.5447562362882
 10
115.51934325445657
 20
34.62024612618535
 10
115.58485184322677
 20
34.69580156243804
 10
115.65028484381905
 20
34.771422469490886
 10
115.71564219080037
 20
34.847108771722944
 10
115.7809238188134
 20
34.922860393447955
 10
115.84612966257652
 20
34.99867725891429
 10
115.91125965688389
 20
35.07455929230508
 10
115.97631373660553
 20
35.15050641773834
 10
116.04129183668734
 20
35.2265185592669
 10
116.10619389215125
 20
35.30259564087863
 10
116.17101983809519
 20
35.378737586496484
 10
116.23576960969326
 20
35.454944319978495
 10
116.30044314219566
 20
35.53121576511796
 10
116.36504037092885
 20
35.60755184564343
 10
116.42956123129564
 20
35.68395248521882
 10
116.49400565877515
 20
35.76041760744352
 10
116.55837358892296
 20
35.83694713585239
 10
116.62266495737116
 20
35.91354099391594
 10
116.68687969982837
 20
35.99019910504028
 10
116.75101775207987
 20
36.066921392567316
 10
116.81507904998762
 20
36.143707779774786
 10
116.87906352949031
 20
36.220558189876286
 10
116.94297112660348
 20
36.29747254602144
 10
117.00680177741951
 20
36.374450771295855
 10
117.07055541810777
 20
36.451492788721346
 10
117.13423198491463
 20
36.52859852125591
 10
117.19783141416357
 20
36.6057678917938
 10
117.26135364225507
 20
36.683000823165656
 10
117.32479860566697
 20
36.76029723813855
 10
117.38816624095432
 20
36.83765705941607
 10
117.45145649903442
 20
36.91508019796951
 10
117.51466953975684
 20
36.99256639443037
 10
117.57780568382086
 20
37.070115259544544
 10
117.64086525715396
 20
37.14772640170342
 10
117.70384858669235
 20
37.22539943038627
 10
117.76675600037404
 20
37.303133956156294
 10
117.82958782713197
 20
37.3809295906568
 10
117.89234439688715
 20
37.45878594660707
 10
117.95502604054177
 20
37.53670263779855
 10
118.01763308997235
 20
37.61467927909069
 10
118.08016587802302
 20
37.69271548640694
 10
118.14262473849875
 20
37.77081087673072
 10
118.20501000615845
 20
37.84896506810124
 10
118.26732201670842
 20
37.927177679609464
 10
118.32956110679557
 20
38.00544833139391
 10
118.39172761400077
 20
38.08377664463646
 10
118.45382187683217
 20
38.16216224155823
 10
118.5158442347186
 20
38.240604745415254
 10
118.57779502800294
 20
38.31910378049432
 10
118.63967459793554
 20
38.39765897210866
 10
118.7014832866678
 20
38.476269946593646
 10
118.76322143724542
 20
38.55493633130251
 10
118.82488939360202
 20
38.633657754601906
 10
118.88648750055273
 20
38.71243384586767
 10
118.9480161037876
 20
38.791264235480355
 10
119.00947554986523
 20
38.870148554820815
 10
119.07086618620637
 20
38.949086436265794
 10
119.1321883610875
 20
39.028077513183405
 10
119.19344242363454
 20
39.10712141992877
 10
119.2546287238164
 20
39.186217791839375
 10
119.31574761243883
 20
39.265366265230654
 10
119.37679944113799
 20
39.34456647739139
 10
119.43778456237418
 20
39.423818066579074
 10
119.49870332942571
 20
39.503120672015456
 10
119.55955609638264
 20
39.58247393388184
 10
119.62034321814052
 20
39.66187749331448
 10
119.68106505039432
 20
39.74133099239987
 10
119.74172194963215
 20
39.8208340741701
 10
119.80231427312923
 20
39.9003863825982
 10
119.86284237894178
 20
39.97998756259335
 10
119.92330662590089
 20
40.05963725999616
 10
119.9837073736065
 20
40.139335121573936
 10
120.04404498242134
 20
40.21908079501586
 10
120.10431981346495
 20
40.298873928928195
 10
120.16453222860763
 20
40.3787141728295
 10
120.22468259046451
 20
40.45860117714574
 10
120.28477126238964
 20
40.53853459320549
 10
120.3447986084699
 20
40.618514073234934
 10
120.40476499351931
 20
40.6985392703531
 10
120.464670783073
 20
40.77860983856688
 10
120.52451634338142
 20
40.85872543276609
 10
120.5843020414045
 20
40.93888570871855
 10
120.64402824480568
 20
41.019090323065
 10
120.70369532194633
 20
41.09933893331425
 10
120.76330364187987
 20
41.179631197838084
 10
120.82285357434598
 20
41.25996677586628
 10
120.88234548976496
 20
41.34034532748152
 10
120.94177975923192
 20
41.42076651361431
 10
121.00115675451114
 20
41.50122999603796
 10
121.06047684803039
 20
41.58173543736343
 10
121.11974041287519
 20
41.66228250103423
 10
121.17894782278339
 20
41.74287085132133
 10
121.2380994521393
 20
41.82350015331789
 10
121.29719567596827
 20
41.90417007293422
 10
121.35623686993108
 20
41.98488027689254
 10
121.41522341031833
 20
42.065630432721775
 10
121.474155674045
 20
42.14642020875235
 10
121.5330340386448
 20
42.22724927411089
 10
121.59185888226487
 20
42.30811729871507
 10
121.65063058366016
 20
42.38902395326832
 10
121.70934952218795
 20
42.469968909254504
 10
121.76801607780254
 20
42.55095183893268
 10
121.82663063104974
 20
42.63197241533169
 10
121.88519356306146
 20
42.71303031224492
 10
121.94370525555044
 20
42.79412520422496
 10
122.00216609080478
 20
42.875256766578175
 10
122.06057645168259
 20
42.95642467535942
 10
122.11893672160676
 20
43.03762860736652
 10
122.17724728455961
 20
43.11886824013502
 10
122.23550852507758
 20
43.20014325193269
 10
122.2937208282459
 20
43.28145332175407
 10
122.35188457969346
 20
43.3627981293151
 10
122.41000016558753
 20
43.44417735504755
 10
122.46806797262853
 20
43.52559068009366
 10
122.52608838804481
 20
43.60703778630056
 10
122.58406179958756
 20
43.688518356214864
 10
122.64198859552549
 20
43.7700320730771
 10
122.69986916463982
 20
43.851578620816085
 10
122.75770389621906
 20
43.9331576840436
 10
122.81549318005399
 20
44.01476894804867
 10
122.87323740643241
 20
44.096412098792044
 10
122.93093696613427
 20
44.17808682290064
 10
122.98859225042636
 20
44.25979280766187
 10
123.04620365105751
 20
44.34152974101814
 10
123.10377156025334
 20
44.4232973115612
 10
123.16129637071138
 20
44.50509520852645
 10
123.21877847559605
 20
44.5869231217874
 10
123.2762182685336
 20
44.6687807418499
 10
123.33361614360722
 20
44.7506677598466
 10
123.39097249535205
 20
44.83258386753117
 10
123.44828771875022
 20
44.91452875727266
 10
123.5055622092261
 20
44.99650212204983
 10
123.56279636264107
 20
45.07850365544533
 10
123.61999057528887
 20
45.16053305164008
 10
123.67714524389068
 20
45.242590005407514
 10
123.73426076559018
 20
45.32467421210782
 10
123.79133753794886
 20
45.40678536768221
 10
123.84837595894095
 20
45.488923168647055
 10
123.90537642694879
 20
45.57108731208823
 10
123.96233934075796
 20
45.65327749565531
 10
124.01926509955248
 20
45.7354934175557
 10
124.07615410291005
 20
45.817734776548924
 10
124.13300675079722
 20
45.90000127194065
 10
124.18982344356473
 20
45.98229260357708
 10
124.24660458194273
 20
46.064608471838945
 10
124.30335056703605
 20
46.14694857763571
 10
124.36006180031951
 20
46.22931262239978
 10
124.41673868363318
 20
46.311700308080454
 10
124.47338161917773
 20
46.394111337138256
 10
124.52999100950973
 20
46.47654541253895
 10
124.58656725753703
 20
46.559002237747656
 10
124.64311076651407
 20
46.64148151672296
 10
124.69962194003725
 20
46.723982953910955
 10
124.75610118204033
 20
46.80650625423939
 10
124.81254889678978
 20
46.88905112311172
 10
124.8689654888802
 20
46.97161726640116
 10
124.9253513632298
 20
47.05420439044475
 10
124.98170692507563
 20
47.13681220203732
 10
125.03803257996924
 20
47.21944040842567
 10
125.094328733772
 20
47.302088717302524
 10
125.1505957926505
 20
47.384756836800534
 10
125.20683416307223
 20
47.46744447548638
 10
125.26304425180079
 20
47.55015134235461
 10
125.31922646589159
 20
47.632877146821855
 10
125.37538121268726
 20
47.71562159872066
 10
125.43150889981318
 20
47.79838440829352
 10
125.48760993517298
 20
47.881165286186906
 10
125.54368472694406
 20
47.963963943445115
 10
125.59973368357313
 20
48.04678009150439
 10
125.65575721377182
 20
48.12961344218675
 10
125.71175572651222
 20
48.212463707694
 10
125.76772963102239
 20
48.29533060060169
 10
125.82367933678195
 20
48.37821383385295
 10
125.8796052535177
 20
48.46111312075259
 10
125.93550779119924
 20
48.54402817496089
 10
125.99138736003455
 20
48.62695871048755
 10
126.04724437046552
 20
48.70990444168566
 10
126.10307923316367
 20
48.79286508324547
 10
126.15889235902578
 20
48.87584035018846
 10
126.21468415916954
 20
48.95882995786116
 10
126.27045504492907
 20
49.04183362192901
 10
126.32620542785074
 20
49.1248510583703
 10
126.38193571968868
 20
49.207881983469946
 10
126.43764633240062
 20
49.29092611381352
 10
126.4933376781434
 20
49.37398316628102
 10
126.54901016926878
 20
49.45705285804077
 10
126.60466421831909
 20
49.54013490654321
 10
126.66030023802284
 20
49.62322902951481
 10
126.71591864129054
 20
49.706334944951955
 10
126.77151984121046
 20
49.78945237111472
 10
126.82710425104416
 20
49.87258102652073
 10
126.8826722842224
 20
49.95572062993904
 10
126.93822435434075
 20
50.03887090038384
 10
126.9937608751554
 20
50.12203155710849
 10
127.04928226057886
 20
50.20520231959914
 10
127.10478892467572
 20
50.28838290756867
 10
127.1602812816585
 20
50.37157304095048
 10
127.21575974588319
 20
50.45477243989224
 10
127.27122473184524
 20
50.537980824749816
 10
127.32667665417523
 20
50.62119791608098
 10
127.38211592763464
 20
50.70442343463926
 10
127.43754296711168
 20
50.787657101367735
 10
127.492958187617
 20
50.870898637392756
 10
127.54836200427958
 20
50.954147764017854
 10
127.60375483234247
 20
51.037404202717454
 10
127.65913708715857
 20
51.12066767513069
 10
127.71450918418645
 20
51.20393790305521
 10
127.76987153898618
 20
51.28721460844087
 10
127.8252245672151
 20
51.370497513383576
 10
127.8805686846237
 20
51.453786340119116
 10
127.93590430705135
 20
51.537080811016814
 10
127.99123185042227
 20
51.62038064857341
 10
128.04655173074116
 20
51.70368557540669
 10
128.10186436408918
 20
51.78699531424942
 10
128.15717016661964
 20
51.87030958794301
 10
128.21246955455396
 20
51.95362811943133
 10
128.26776294417755
 20
52.03695063175443
 10
128.3230507518355
 20
52.12027684804225
 10
128.37833339392841
 20
52.203606491508516
 10
128.43361128690847
 20
52.28693928544442
 10
128.48888484727502
 20
52.370274953212366
 10
128.5441544915705
 20
52.453613218239745
 10
128.59942063637644
 20
52.536953804012626
 10
128.65468369830901
 20
52.62029643406965
 10
128.70994409401524
 20
52.70364083199566
 10
128.7652022401686
 20
52.786986721415495
 10
128.82045855346493
 20
52.87033382598776
 10
128.87571345061826
 20
52.95368186939849
 10
128.93096734835677
 20
53.037030575355004
 10
128.98622066341852
 20
53.12037966757962
 10
129.04147379717358
 20
53.2037288799949
 10
129.0967269263923
 20
53.287078095417414
 10
129.151980055611
 20
53.37042731083991
 10
129.2072331848297
 20
53.4537765262624
 10
129.2624863140484
 20
53.537125741684896
 10
129.3177394432671
 20
53.62047495710739
 10
129.37299257248583
 20
53.703824172529906
 10
129.42824570170453
 20
53.7871733879524
 10
129.48349883092322
 20
53.870522603374894
 10
129.53875196014192
 20
53.95387181879739
 10
129.59400508936062
 20
54.03722103421988
 10
129.64925821857935
 20
54.1205702496424
 10
129.70451134779805
 20
54.20391946506489
 10
129.75976447701674
 20
54.28726868048739
 10
129.81501760623544
 20
54.37061789590988
 10
129.87027073545414
 20
54.453967111332375
 10
129.92552386467287
 20
54.53731632675489
 10
129.98077699389157
 20
54.620665542177385
 10
130.03603012311027
 20
54.70401475759988
 10
130.09128325232896
 20
54.78736397302237
 10
130.14653638154766
 20
54.87071318844487
 10
130.2017895107664
 20
54.95406240386738
 10
130.2570426399851
 20
55.03741161928988
 10
130.31229576920379
 20
55.12076083471237
 10
130.36754889842248
 20
55.204110050134865
 10
130.42280202764118
 20
55.28745926555736
 10
130.4780551568599
 20
55.370808480979875
 10
130.5333082860786
 20
55.45415769640237
 10
130.5885614152973
 20
55.53750691182486
 10
130.643814544516
 20
55.62085612724736
 10
130.6990676737347
 20
55.70420534266985
 10
130.75432080295343
 20
55.78755455809237
 10
130.80957393217213
 20
55.87090377351486
 10
130.86482706139083
 20
55.954252988937355
 10
130.92008019060953
 20
56.03760220435985
 10
130.97533331982822
 20
56.120951419782344
 10
131.03058644904695
 20
56.20430063520486
 10
131.08583957826565
 20
56.28764985062735
 10
131.14109270748435
 20
56.37099906604985
 10
131.19634583670305
 20
56.45434828147234
 10
131.25159896592174
 20
56.537697496894836
 10
131.30685209514047
 20
56.62104671231735
 10
131.36210522435917
 20
56.704395927739846
 10
131.41735835357787
 20
56.78774514316234
 10
131.47261148279657
 20
56.871094358584834
 10
131.52786461201526
 20
56.95444357400733
 10
131.583117741234
 20
57.037792789429844
 10
131.6383708704527
 20
57.12114200485234
 10
131.6936239996714
 20
57.20449122027483
 10
131.7488771288901
 20
57.287840435697326
 10
131.8041302581088
 20
57.37118965111984
 10
131.8593833873275
 20
57.454538866542336
 10
131.9146365165462
 20
57.53788808196483
 10
131.9698896457649
 20
57.621237297387324
 10
132.0251427749836
 20
57.70458651280982
 10
132.08039590420233
 20
57.787935728232334
 10
132.13564903342103
 20
57.87128494365483
 10
132.19090216263973
 20
57.95463415907732
 10
132.24615529185843
 20
58.03798337449982
 10
132.30140842107713
 20
58.12133258992231
 10
132.35666155029585
 20
58.204681805344826
 10
132.41191467951455
 20
58.28803102076732
 10
132.46716780873325
 20
58.371380236189815
 10
132.52242093795195
 20
58.45472945161231
 10
132.57767406717065
 20
58.5380786670348
 10
132.63292719638937
 20
58.62142788245732
 10
132.68818032560807
 20
58.70477709787981
 10
132.74343345482677
 20
58.78812631330231
 10
132.79868658404547
 20
58.8714755287248
 10
132.85393971326417
 20
58.954824744147295
 10
132.9091928424829
 20
59.03817395956981
 10
132.9644459717016
 20
59.121523174992305
 10
133.0196991009203
 20
59.2048723904148
 10
133.074952230139
 20
59.28822160583729
 10
133.1302053593577
 20
59.37157082125979
 10
133.18545848857642
 20
59.4549200366823
 10
133.2407116177951
 20
59.5382692521048
 10
133.2959647470138
 20
59.62161846752729
 10
133.3512178762325
 20
59.704967682949786
 10
133.4064710054512
 20
59.78831689837228
 10
133.46172413466994
 20
59.871666113794795
 10
133.51697726388863
 20
59.95501532921729
 10
133.57223039310733
 20
60.038364544639784
 10
133.62748352232603
 20
60.12171376006228
 10
133.68273665154473
 20
60.20506297548477
 10
133.73798978076346
 20
60.28841219090729
 10
133.79324290998215
 20
60.37176140632978
 10
133.84849603920085
 20
60.455110621752276
 10
133.90374916841955
 20
60.53845983717477
 10
133.95900229763825
 20
60.621809052597264
 10
134.01425542685698
 20
60.70515826801978
 10
134.06950855607568
 20
60.788507483442274
 10
134.12476168529437
 20
60.87185669886477
 10
134.18001481451307
 20
60.95520591428726
 10
134.23526794373177
 20
61.038555129709756
 10
134.2905210729505
 20
61.12190434513227
 10
134.3457742021692
 20
61.205253560554766
 10
134.4010273313879
 20
61.28860277597726
 10
134.4562804606066
 20
61.371951991399754
 10
134.5115335898253
 20
61.45530120682225
 10
134.56678671904402
 20
61.538650422244764
 10
134.62203984826272
 20
61.62199963766726
 10
134.67729297748141
 20
61.70534885308975
 10
134.7325461067001
 20
61.78869806851225
 10
134.7877992359188
 20
61.87204728393474
 10
134.84305236513754
 20
61.955396499357256
 10
134.89830549435624
 20
62.03874571477975
 10
134.95355862357493
 20
62.122094930202245
 10
135.00881175279363
 20
62.20544414562474
 10
135.06406488201233
 20
62.28879336104723
 10
135.11931801123106
 20
62.37214257646975
 10
135.17457114044976
 20
62.45549179189224
 10
135.22982426966846
 20
62.53884100731474
 10
135.28507739888715
 20
62.62219022273723
 10
135.34033052810585
 20
62.705539438159725
 10
135.39558365732458
 20
62.78888865358224
 10
135.45083678654328
 20
62.872237869004735
 10
135.50608991576198
 20
62.95558708442723
 10
135.56134304498067
 20
63.03893629984972
 10
135.61659617419937
 20
63.12228551527222
 10
135.6718493034181
 20
63.20563473069473
 10
135.7271024326368
 20
63.28898394611723
 10
135.7823555618555
 20
63.37233316153972
 10
135.8376086910742
 20
63.455682376962216
 10
135.8928618202929
 20
63.53903159238471
 10
135.94811494951162
 20
63.622380807807225
 10
136.00336807873032
 20
63.70573002322972
 10
136.05862120794902
 20
63.789079238652214
 10
136.11387433716772
 20
63.87242845407471
 10
136.1691274663864
 20
63.9557776694972
 10
136.22438059560514
 20
64.03912688491972
 10
136.27963372482384
 20
64.12247610034224
 10
136.33488685404254
 20
64.20582531576476
 10
136.39013998326124
 20
64.28917453118727
 10
136.44539311247993
 20
64.37252374660979
 10
136.50064624169866
 20
64.45587296203233
 10
136.55589937091736
 20
64.53922217745485
 10
136.61115250013606
 20
64.62257139287736
 10
136.66640562935476
 20
64.70592060829988
 10
136.72165875857345
 20
64.78926982372239
 10
136.77691188779218
 20
64.87261903914494
 10
136.83216501701088
 20
64.95596825456745
 10
136.88741814622958
 20
65.03931746998997
 10
136.94267127544828
 20
65.12266668541248
 10
136.99792440466697
 20
65.206015900835
 10
137.0531775338857
 20
65.28936511625754
 10
137.1084306631044
 20
65.37271433168006
 10
137.1636837923231
 20
65.45606354710257
 10
137.2189369215418
 20
65.53941276252509
 10
137.2741900507605
 20
65.6227619779476
 10
137.32944317997922
 20
65.70611119337015
 10
137.38469630919792
 20
65.78946040879266
 10
137.43994943841662
 20
65.87280962421518
 10
137.49520256763532
 20
65.9561588396377
 10
137.55045569685402
 20
66.03950805506021
 10
137.60570882607274
 20
66.12285727048275
 10
137.66096195529144
 20
66.20620648590527
 10
137.71621508451014
 20
66.28955570132779
 10
137.77146821372884
 20
66.3729049167503
 10
137.82672134294754
 20
66.45625413217282
 10
137.88197447216626
 20
66.53960334759536
 10
137.93722760138496
 20
66.62295256301788
 10
137.99248073060366
 20
66.70630177844039
 10
138.04773385982236
 20
66.7896509938629
 10
138.10298698904106
 20
66.87300020928542
 10
138.15824011825978
 20
66.95634942470797
 10
138.21349324747848
 20
67.03969864013048
 10
138.26874637669718
 20
67.123047855553
 10
138.32399950591588
 20
67.20639707097551
 10
138.37925263513458
 20
67.28974628639803
 10
138.4345057643533
 20
67.37309550182057
 10
138.489758893572
 20
67.45644471724309
 10
138.5450120227907
 20
67.5397939326656
 10
138.6002651520094
 20
67.62314314808812
 10
138.6555182812281
 20
67.70649236351063
 10
138.71077141044682
 20
67.78984157893318
 10
138.76602453966552
 20
67.8731907943557
 10
138.82127766888422
 20
67.95654000977821
 10
138.87653079810292
 20
68.03988922520072
 10
138.93178392732162
 20
68.12323844062324
 10
138.98703705654034
 20
68.20658765604578
 10
139.04229018575904
 20
68.2899368714683
 10
139.09754331497774
 20
68.37328608689081
 10
139.15279644419644
 20
68.45663530231333
 10
139.20804957341514
 20
68.53998451773585
 10
139.26330270263387
 20
68.62333373315839
 10
139.31855583185256
 20
68.7066829485809
 10
139.37380896107126
 20
68.79003216400342
 10
139.42906209028996
 20
68.87338137942594
 10
139.48431521950866
 20
68.95673059484845
 10
139.53956834872739
 20
69.040079810271
 10
139.59482147794608
 20
69.12342902569351
 10
139.65007460716478
 20
69.20677824111603
 10
139.70532773638348
 20
69.29012745653854
 10
139.76058086560218
 20
69.37347667196106
 10
139.8158339948209
 20
69.4568258873836
 10
139.8710871240396
 20
69.54017510280612
 10
139.9263402532583
 20
69.62352431822863
 10
139.981593382477
 20
69.70687353365115
 10
140.0368465116957
 20
69.79022274907366
 10
140.09209964091443
 20
69.87357196449621
 10
140.14735277013312
 20
69.95692117991872
 10
140.20260589935182
 20
70.04027039534124
 10
140.25785902857052
 20
70.12361961076375
 10
140.31311215778922
 20
70.20696882618627
 10
140.36836528700795
 20
70.29031804160881
 10
140.42361841622665
 20
70.37366725703133
 10
140.47887154544534
 20
70.45701647245384
 10
140.53412467466404
 20
70.54036568787636
 10
140.58937780388274
 20
70.62371490329888
 10
140.64463093310147
 20
70.70706411872142
 10
140.69988406232017
 20
70.79041333414393
 10
140.75513719153886
 20
70.87376254956645
 10
140.81039032075756
 20
70.95711176498897
 10
140.86564344997626
 20
71.04046098041148
 10
140.920896579195
 20
71.12381019583403
 10
140.9761497084137
 20
71.20715941125654
 10
141.03140283763238
 20
71.29050862667906
 10
141.08665596685108
 20
71.37385784210157
 10
141.14190909606978
 20
71.45720705752409
 10
141.1971622252885
 20
71.54055627294663
 10
141.2524153545072
 20
71.62390548836915
 10
141.3076684837259
 20
71.70725470379166
 10
141.3629216129446
 20
71.79060391921418
 10
141.4181747421633
 20
71.8739531346367
 10
141.47342787138203
 20
71.95730235005924
 10
141.52868100060073
 20
72.04065156548175
 10
141.58393412981943
 20
72.12400078090427
 10
141.63918725903812
 20
72.20734999632678
 10
141.69444038825682
 20
72.2906992117493
 10
141.74969351747555
 20
72.37404842717184
 10
141.80494664669425
 20
72.45739764259436
 10
141.86019977591295
 20
72.54074685801687
 10
141.91545290513164
 20
72.62409607343939
 10
141.97070603435034
 20
72.7074452888619
 10
142.02595916356907
 20
72.79079450428445
 10
142.08121229278777
 20
72.87414371970696
 10
142.13646542200647
 20
72.95749293512948
 10
142.19171855122516
 20
73.040842150552
 10
142.24697168044386
 20
73.12419136597451
 10
142.3022248096626
 20
73.20754058139705
 10
142.3574779388813
 20
73.29088979681957
 10
142.4127310681
 20
73.37423901224209
 10
142.46798419731869
 20
73.4575882276646
 10
142.52323732653738
 20
73.54093744308712
 10
142.5784904557561
 20
73.62428665850966
 10
142.6337435849748
 20
73.70763587393218
 10
142.6889967141935
 20
73.79098508935469
 10
142.7442498434122
 20
73.87433430477721
 10
142.7995029726309
 20
73.95768352019972
 10
142.85475610184963
 20
74.04103273562227
 10
142.91000923106833
 20
74.12438195104478
 10
142.96526236028703
 20
74.2077311664673
 10
143.02051548950573
 20
74.29108038188981
 10
143.07576861872442
 20
74.37442959731233
 10
143.13102174794315
 20
74.45777881273487
 10
143.18627487716185
 20
74.54112802815739
 10
143.24152800638055
 20
74.6244772435799
 10
143.29678113559925
 20
74.70782645900242
 10
143.35203426481795
 20
74.79117567442493
 10
143.40728739403667
 20
74.87452488984748
 10
143.46254052325537
 20
74.95787410527
 10
143.51779365247407
 20
75.04122332069251
 10
143.57304678169277
 20
75.12457253611502
 10
143.62829991091147
 20
75.20792175153754
 10
143.6835530401302
 20
75.29127096696008
 10
143.7388061693489
 20
75.3746201823826
 10
143.7940592985676
 20
75.45796939780512
 10
143.8493124277863
 20
75.54131861322763
 10
143.904565557005
 20
75.62466782865015
 10
143.9598186862237
 20
75.70801704407269
 10
144.0150718154424
 20
75.7913662594952
 10
144.0703249446611
 20
75.87471547491772
 10
144.1255780738798
 20
75.95806469034024
 10
144.1808312030985
 20
76.04141390576275
 10
144.23608433231723
 20
76.1247631211853
 10
144.29133746153593
 20
76.20811233660781
 10
144.34659059075463
 20
76.29146155203033
 10
144.40184371997333
 20
76.37481076745284
 10
144.45709684919203
 20
76.45815998287536
 10
144.51234997841075
 20
76.5415091982979
 10
144.56760310762945
 20
76.62485841372042
 10
144.62285623684815
 20
76.70820762914293
 10
144.67810936606685
 20
76.79155684456545
 10
144.73336249528555
 20
76.87490605998796
 10
144.78861562450427
 20
76.95825527541051
 10
144.84386875372297
 20
77.04160449083302
 10
144.89912188294167
 20
77.12495370625554
 10
144.95437501216037
 20
77.20830292167805
 10
145.00962814137907
 20
77.29165213710057
 10
145.0648812705978
 20
77.37500135252311
 10
145.1201343998165
 20
77.45835056794563
 10
145.1753875290352
 20
77.54169978336814
 10
145.2306406582539
 20
77.62504899879066
 10
145.2858937874726
 20
77.70839821421318
 10
145.34114691669132
 20
77.79174742963572
 10
145.39640004591
 20
77.87509664505824
 10
145.4516531751287
 20
77.95844586048075
 10
145.5069063043474
 20
78.04179507590327
 10
145.5621594335661
 20
78.12514429132578
 10
145.58426068525358
 20
78.15848397749478
  0
ENDSEC
  0
SECTION
  2
OBJECTS
  0
DICTIONARY
  5
A
330
0
100
AcDbDictionary
281
1
  3
ACAD_COLOR
350
B
  3
ACAD_GROUP
350
C
  3
ACAD_LAYOUT
350
D
  3
ACAD_MATERIAL
350
E
  3
ACAD_MLEADERSTYLE
350
F
  3
ACAD_MLINESTYLE
350
10
  3
ACAD_PLOTSETTINGS
350
11
  3
ACAD_PLOTSTYLENAME
350
12
  3
ACAD_SCALELIST
350
14
  3
ACAD_TABLESTYLE
350
15
  3
ACAD_VISUALSTYLE
350
16
  3
EZDXF_META
350
2D
  0
DICTIONARY
  5
B
330
A
100
AcDbDictionary
281
1
  0
DICTIONARY
  5
C
330
A
100
AcDbDictionary
281
1
  0
DICTIONARY
  5
D
330
A
100
AcDbDictionary
281
1
  3
Model
350
1A
  3
Layout1
350
1E
  0
DICTIONARY
  5
E
330
A
100
AcDbDictionary
281
1
  3
ByBlock
350
1F
  3
ByLayer
350
20
  3
Global
350
21
  0
DICTIONARY
  5
F
330
A
100
AcDbDictionary
281
1
  3
Standard
350
2C
  0
DICTIONARY
  5
10
330
A
100
AcDbDictionary
281
1
  3
Standard
350
22
  0
DICTIONARY
  5
11
330
A
100
AcDbDictionary
281
1
  0
ACDBDICTIONARYWDFLT
  5
12
330
A
100
AcDbDictionary
281
1
  3
Normal
350
13
100
AcDbDictionaryWithDefault
340
13
  0
ACDBPLACEHOLDER
  5
13
330
12
  0
DICTIONARY
  5
14
330
A
100
AcDbDictionary
281
1
  0
DICTIONARY
  5
15
330
A
100
AcDbDictionary
281
1
  0
DICTIONARY
  5
16
330
A
100
AcDbDictionary
281
1
  0
LAYOUT
  5
1A
330
D
100
AcDbPlotSettings
  1

  4
A3
  6

 40
7.5
 41
20.0
 42
7.5
 43
20.0
 44
420.0
 45
297.0
 46
0.0
 47
0.0
 48
0.0
 49
0.0
140
0.0
141
0.0
142
1.0
143
1.0
 70
1024
 72
1
 73
0
 74
5
  7

 75
16
 76
0
 77
2
 78
300
147
1.0
148
0.0
149
0.0
100
AcDbLayout
  1
Model
 70
1
 71
0
 10
0.0
 20
0.0
 11
420.0
 21
297.0
 12
0.0
 22
0.0
 32
0.0
 14
1e+20
 24
1e+20
 34
1e+20
 15
-1e+20
 25
-1e+20
 35
-1e+20
146
0.0
 13
0.0
 23
0.0
 33
0.0
 16
1.0
 26
0.0
 36
0.0
 17
0.0
 27
1.0
 37
0.0
 76
1
330
17
  0
LAYOUT
  5
1E
330
D
100
AcDbPlotSettings
  1

  4
A3
  6

 40
7.5
 41
20.0
 42
7.5
 43
20.0
 44
420.0
 45
297.0
 46
0.0
 47
0.0
 48
0.0
 49
0.0
140
0.0
141
0.0
142
1.0
143
1.0
 70
0
 72
1
 73
0
 74
5
  7

 75
16
 76
0
 77
2
 78
300
147
1.0
148
0.0
149
0.0
100
AcDbLayout
  1
Layout1
 70
1
 71
1
 10
0.0
 20
0.0
 11
420.0
 21
297.0
 12
0.0
 22
0.0
 32
0.0
 14
1e+20
 24
1e+20
 34
1e+20
 15
-1e+20
 25
-1e+20
 35
-1e+20
146
0.0
 13
0.0
 23
0.0
 33
0.0
 16
1.0
 26
0.0
 36
0.0
 17
0.0
 27
1.0
 37
0.0
 76
1
330
1B
  0
MATERIAL
  5
1F
102
{ACAD_REACTORS
330
E
102
}
330
E
100
AcDbMaterial
  1
ByBlock
  2

 70
0
 40
1.0
 71
1
 41
1.0
 91
-1023410177
 42
1.0
 72
1
  3

 73
1
 74
1
 75
1
 44
0.5
 73
0
 45
1.0
 46
1.0
 77
1
  4

 78
1
 79
1
170
1
 48
1.0
171
1
  6

172
1
173
1
174
1
140
1.0
141
1.0
175
1
  7

176
1
177
1
178
1
143
1.0
179
1
  8

270
1
271
1
272
1
145
1.0
146
1.0
273
1
  9

274
1
275
1
276
1
 42
1.0
 72
1
  3

 73
1
 74
1
 75
1
 94
63
  0
MATERIAL
  5
20
102
{ACAD_REACTORS
330
E
102
}
330
E
100
AcDbMaterial
  1
ByLayer
  2

 70
0
 40
1.0
 71
1
 41
1.0
 91
-1023410177
 42
1.0
 72
1
  3

 73
1
 74
1
 75
1
 44
0.5
 73
0
 45
1.0
 46
1.0
 77
1
  4

 78
1
 79
1
170
1
 48
1.0
171
1
  6

172
1
173
1
174
1
140
1.0
141
1.0
175
1
  7

176
1
177
1
178
1
143
1.0
179
1
  8

270
1
271
1
272
1
145
1.0
146
1.0
273
1
  9

274
1
275
1
276
1
 42
1.0
 72
1
  3

 73
1
 74
1
 75
1
 94
63
  0
MATERIAL
  5
21
102
{ACAD_REACTORS
330
E
102
}
330
E
100
AcDbMaterial
  1
Global
  2

 70
0
 40
1.0
 71
1
 41
1.0
 91
-1023410177
 42
1.0
 72
1
  3

 73
1
 74
1
 75
1
 44
0.5
 73
0
 45
1.0
 46
1.0
 77
1
  4

 78
1
 79
1
170
1
 48
1.0
171
1
  6

172
1
173
1
174
1
140
1.0
141
1.0
175
1
  7

176
1
177
1
178
1
143
1.0
179
1
  8

270
1
271
1
272
1
145
1.0
146
1.0
273
1
  9

274
1
275
1
276
1
 42
1.0
 72
1
  3

 73
1
 74
1
 75
1
 94
63
  0
MLINESTYLE
  5
22
102
{ACAD_REACTORS
330
10
102
}
330
10
100
AcDbMlineStyle
  2
Standard
 70
0
  3

 62
256
 51
90.0
 52
90.0
 71
2
 49
0.5
 62
256
  6
BYLAYER
 49
-0.5
 62
256
  6
BYLAYER
  0
MLEADERSTYLE
  5
2C
102
{ACAD_REACTORS
330
F
102
}
330
F
100
AcDbMLeaderStyle
179
2
170
2
171
1
172
0
 90
2
 40
0.0
 41
0.0
173
1
 91
-1056964608
 92
-2
290
1
 42
2.0
291
1
 43
8.0
  3
Standard
 44
4.0
300

342
29
174
1
175
1
176
0
178
1
 93
-1056964608
 45
4.0
292
0
297
0
 46
4.0
 94
-1056964608
 47
1.0
 49
1.0
140
1.0
294
1
141
0.0
177
0
142
1.0
295
0
296
0
143
3.75
271
0
272
9
273
9
  0
DICTIONARY
  5
2D
330
A
100
AcDbDictionary
280
1
281
1
  3
CREATED_BY_EZDXF
350
2E
  3
WRITTEN_BY_EZDXF
350
33
  0
DICTIONARYVAR
  5
2E
330
2D
100
DictionaryVariables
280
0
  1
1.4.4 @ 2026-07-07T16:26:25.530096+00:00
  0
DICTIONARYVAR
  5
33
330
2D
100
DictionaryVariables
280
0
  1
1.4.4 @ 2026-07-07T16:26:25.541894+00:00
  0
ENDSEC
  0
EOF
